SplineFontDB: 1.0
FontName: Loma
FullName: Loma
FamilyName: Loma
Weight: Book
Copyright: Copyright (c) NECTEC, 2003. All rights reserved.\nModified under GNU General Public License by TLWG.
Version: 0.9.9: 2007-04-24
ItalicAngle: 0
UnderlinePosition: -170
UnderlineWidth: 20
Ascent: 1638
Descent: 410
NeedsXUIDChange: 1
FSType: 0
OS2Version: 0
OS2_WeightWidthSlopeOnly: 0
OS2_UseTypoMetrics: 0
CreationTime: 1153662374
ModificationTime: 1177392210
PfmFamily: 33
TTFWeight: 400
TTFWidth: 5
LineGap: 0
VLineGap: 0
Panose: 2 11 5 4 2 2 2 2 2 4
OS2TypoAscent: 0
OS2TypoAOffset: 1
OS2TypoDescent: 0
OS2TypoDOffset: 1
OS2TypoLinegap: 0
OS2WinAscent: 0
OS2WinAOffset: 1
OS2WinDescent: 0
OS2WinDOffset: 1
HheadAscent: 0
HheadAOffset: 1
HheadDescent: 0
HheadDOffset: 1
OS2Vendor: 'PfEd'
ScriptLang: 3
 1 latn 1 dflt 
 1 thai 4 KUY  PAL  THA  dflt 
 1 thai 1 PAL  
ContextSub: glyph 0 2 ' RQD' 0 0 0 1
 String: 15 uni0E0D uni0E10
 BString: 0 
 FString: 0 
 1
  SeqLookup: 0 'ndsc'
EndFPST
ChainSub: class 0 1 'ccmp' 7 7 1 5
  Class: 414 uni0E01 uni0E02 uni0E03 uni0E04 uni0E05 uni0E06 uni0E07 uni0E08 uni0E09 uni0E0A uni0E0B uni0E0C uni0E0D uni0E0E uni0E0F uni0E10 uni0E11 uni0E12 uni0E13 uni0E14 uni0E15 uni0E16 uni0E17 uni0E18 uni0E19 uni0E1A uni0E1B uni0E1C uni0E1D uni0E1E uni0E1F uni0E20 uni0E21 uni0E22 uni0E23 uni0E24 uni0E25 uni0E26 uni0E27 uni0E28 uni0E29 uni0E2A uni0E2B uni0E2C uni0E2D uni0E2E uni0E10.descless uni0E0D.descless dottedcircle
  Class: 7 uni0E33
  Class: 39 uni0E48 uni0E49 uni0E4A uni0E4B uni0E4C
  Class: 23 uni0E38 uni0E39 uni0E3A
  Class: 39 uni0E31 uni0E34 uni0E35 uni0E36 uni0E37
  Class: 7 uni0E4D

StartChar: .notdef
Encoding: 0 -1 0
Width: 1536
Flags: W
HStem: 0 32<288 1280> 1248 32<256 1248>
VStem: 256 32<0 1248> 1248 32<32 1280>
Fore
256 0 m 1
 256 1280 l 1
 1280 1280 l 1
 1280 0 l 1
 256 0 l 1
288 32 m 1
 1248 32 l 1
 1248 1248 l 1
 288 1248 l 1
 288 32 l 1
EndSplineSet
EndChar
StartChar: uni0E4D.high
Encoding: 271 63262 2
Width: 0
VWidth: 2561
Flags: W
TeX: 0 0 0 0
HStem: 1726 72<-317.6 -212.3> 1954 73<-326.7 -207.1>
VStem: -412 69<1821.7 1929.6> -183 70<1821.7 1934.8>
AnchorPoint: "AboveMark" -262 1740 mark 0
Fore
-262 2027 m 0
 -180 2027 -113 1961 -113 1875 c 0
 -113 1795 -180 1726 -262 1726 c 0
 -341 1726 -412 1789 -412 1875 c 0
 -412 1957 -343 2027 -262 2027 c 0
-263 1798 m 0
 -224 1798 -183 1834 -183 1875 c 0
 -183 1921 -220 1954 -263 1954 c 0
 -312 1954 -343 1917 -343 1875 c 0
 -343 1834 -305 1798 -263 1798 c 0
EndSplineSet
EndChar
StartChar: exclam
Encoding: 3 33 5
Width: 569
Flags: W
HStem: 0 21G<206 370> 1430 20G<198 378>
VStem: 206 164<0 194>
Fore
198 999 m 1
 198 1450 l 1
 378 1450 l 1
 378 999 l 1
 335 365 l 1
 242 365 l 1
 198 999 l 1
206 194 m 1
 370 194 l 1
 370 0 l 1
 206 0 l 1
 206 194 l 1
EndSplineSet
EndChar
StartChar: quotedbl
Encoding: 4 34 6
Width: 727
Flags: W
HStem: 1430 20G<106 286 439 619>
VStem: 106 180<1216 1450> 439 180<1216 1450>
Fore
156 947 m 1
 106 1217 l 1
 106 1450 l 1
 286 1450 l 1
 286 1217 l 1
 241 947 l 1
 156 947 l 1
487 947 m 1
 439 1217 l 1
 439 1450 l 1
 619 1450 l 1
 619 1217 l 1
 572 947 l 1
 487 947 l 1
EndSplineSet
EndChar
StartChar: numbersign
Encoding: 5 35 7
Width: 1139
Flags: W
HStem: -10 21G<87 267 546 725> 385 180<21 174 384 632 842 1113> 895 180<21 278 488 737 947 1113> 895 575<395 737 854 1113>
Fore
87 -10 m 1xd0
 174 385 l 1
 21 385 l 1
 21 565 l 1
 204 565 l 1
 278 895 l 1
 21 895 l 1
 21 1075 l 1
 308 1075 l 1xe0
 395 1470 l 1
 575 1470 l 1xd0
 488 1075 l 1
 767 1075 l 1xe0
 854 1470 l 1
 1034 1470 l 1xd0
 947 1075 l 1
 1113 1075 l 1
 1113 895 l 1xe0
 917 895 l 1
 842 565 l 1
 1113 565 l 1
 1113 385 l 1
 812 385 l 1
 725 -10 l 1
 546 -10 l 1
 632 385 l 1
 354 385 l 1
 267 -10 l 1
 87 -10 l 1xd0
384 565 m 1
 662 565 l 1
 737 895 l 1xe0
 458 895 l 1xd0
 384 565 l 1
EndSplineSet
EndChar
StartChar: dollar
Encoding: 6 36 8
Width: 1139
Flags: HW
VStem: 106 180<869.547 1192.85> 491 143<-118 -17 123 629 810 1269 1409 1488> 833 175<1025.88 1118.04> 858 184<191.839 575.8>
Fore
491 -17 m 5xd0
 251.109 14.0095 77.1999 143.414 76 417 c 5
 255 417 l 5
 277.852 255.476 360.5 143.5 491 123 c 5
 491 651 l 5
 318.5 693 106 780.5 106 1031 c 4
 106 1243.3 266.524 1393.87 491 1409 c 5
 491 1488 l 5
 634 1488 l 5
 634 1409 l 5
 839.993 1389.47 997.225 1257.7 1008 1050 c 5
 833 1050 l 5xe0
 820.018 1143.28 736.562 1252.52 634 1269 c 5
 634 790 l 5
 635 789 l 5
 852.785 740.259 1042 647.5 1042 397 c 4
 1042 165.15 861.048 -4.27161 634 -15 c 5
 634 -118 l 5
 491 -118 l 5
 491 -17 l 5xd0
491 1271 m 5
 381.93 1257.43 286 1158.5 286 1044 c 4
 286 909.805 379.477 842.862 491 810 c 5
 491 1271 l 5
858 386 m 4xd0
 858 532 769.23 585.552 634 629 c 5
 634 123 l 5
 755.093 148.827 858 236.646 858 386 c 4xd0
EndSplineSet
EndChar
StartChar: percent
Encoding: 7 37 9
Width: 1821
Flags: HW
HStem: -49.5 123<1238.1 1524.75> 599.5 125<1226.4 1536.45> 717 123<291.6 578.25> 1366 125<279.9 589.95>
VStem: 119 157<899.7 1301.68> 590 155<901.35 1305> 1065.5 157<133.2 535.179> 1536.5 155<134.85 538.5>
Fore
1065.5 347.5 m 0xdf
 1065.5 549.634 1171.5 724.5 1372.5 724.5 c 0
 1585.5 724.5 1691.5 561 1691.5 337.5 c 0
 1691.5 120 1581 -49.5 1374.5 -49.5 c 0
 1171.5 -49.5 1065.5 115.5 1065.5 347.5 c 0xdf
1378.5 599.5 m 0
 1261.5 599.5 1222.5 487.715 1222.5 329.5 c 0
 1222.5 178.5 1270.5 73.5 1378.5 73.5 c 0
 1491 73.5 1536.5 183 1536.5 343.5 c 0
 1536.5 493.5 1500 599.5 1378.5 599.5 c 0
119 1114 m 0
 119 1316.13 225 1491 426 1491 c 0
 639 1491 745 1327.5 745 1104 c 0
 745 886.5 634.5 717 428 717 c 0xbf
 225 717 119 882 119 1114 c 0
432 1366 m 0
 315 1366 276 1254.21 276 1096 c 0
 276 945 324 840 432 840 c 0
 544.5 840 590 949.5 590 1110 c 0
 590 1260 553.5 1366 432 1366 c 0
1217 1491 m 1
 1397 1491 l 1
 638 -10 l 1
 458 -10 l 1
 1217 1491 l 1
EndSplineSet
EndChar
StartChar: ampersand
Encoding: 8 38 10
Width: 1366
Flags: W
HStem: -25 158<327.5 727.9> 1343 148<508.486 748.048>
VStem: 88 195<249.6 587.6> 272 185<1075.4 1293.8> 793 184<1010.2 1296.2>
Fore
973 172 m 1xd8
 856 41 720 -25 553 -25 c 0
 284 -25 89.8686 164.128 88 403 c 0xe8
 88 586 204 733 436 842 c 1
 358.564 941.011 272 1032 272 1163 c 0
 272 1352 440 1491 637 1491 c 0
 832 1491 977 1348 977 1178 c 0
 977 1039 885 920 700 821 c 1
 963 485 l 1
 993 542 1016 611 1032 690 c 1
 1221 649 l 1
 1188 522 1144 417 1090 334 c 1
 1157 247 1233 172 1319 109 c 1
 1198 -35 l 1
 1126 13 1051 82 973 172 c 1xd8
606 938 m 1
 726.2 1011.58 793 1048 793 1174 c 0
 793 1268 720.114 1344.79 627 1343 c 0
 535.835 1345.24 457 1268 457 1182 c 0xd8
 457 1100 554.502 998.249 606 938 c 1
530 725 m 1
 384.847 632.506 283 548 283 416 c 0xe8
 283 288 380 133 555 133 c 0
 688 133 797.042 220.454 860 315 c 1
 530 725 l 1
EndSplineSet
EndChar
StartChar: quotesingle
Encoding: 9 39 11
Width: 391
Flags: W
HStem: 1446 20G<90 295>
VStem: 90 205<1220 1466>
Fore
136 947 m 1
 90 1221 l 1
 90 1466 l 1
 295 1466 l 1
 295 1221 l 1
 247 947 l 1
 136 947 l 1
EndSplineSet
EndChar
StartChar: parenleft
Encoding: 10 40 12
Width: 682
Flags: W
VStem: 124 185<114 1069.2>
Fore
479 -431 m 1
 279.268 -171.758 124 160 124 531 c 0
 124 945 280.981 1239.33 479 1491 c 1
 608 1491 l 1
 411.5 1154.93 309 960 309 530 c 0
 309 210 409 -111 608 -431 c 1
 479 -431 l 1
EndSplineSet
EndChar
StartChar: parenright
Encoding: 11 41 13
Width: 682
Flags: W
VStem: 420 185<114 1069.2>
Fore
250 -431 m 1
 449.731 -171.758 605 160 605 531 c 0
 605 945 448.019 1239.33 250 1491 c 1
 121 1491 l 1
 317.5 1154.93 420 960 420 530 c 0
 420 210 320 -111 121 -431 c 1
 250 -431 l 1
EndSplineSet
EndChar
StartChar: asterisk
Encoding: 12 42 14
Width: 797
Flags: W
Fore
64 1197 m 1
 110 1339 l 1
 216 1302 293 1269 341 1242 c 1
 328 1363 322 1446 321 1491 c 1
 466 1491 l 1
 464 1425 456 1342 443 1243 c 1
 512 1278 590 1310 679 1339 c 1
 725 1197 l 1
 640 1169 557 1150 476 1141 c 1
 517 1106 574 1043 648 952 c 1
 528 867 l 1
 489 920 444 991 391 1082 c 1
 342 988 298 916 261 867 c 1
 143 952 l 1
 220 1047 276 1110 309 1141 c 1
 223 1158 141 1176 64 1197 c 1
EndSplineSet
EndChar
StartChar: plus
Encoding: 13 43 15
Width: 1196
Flags: W
HStem: 639 168<114 513 683 1082>
VStem: 513 170<237 639 807 1206>
Fore
513 237 m 1
 513 639 l 1
 114 639 l 1
 114 807 l 1
 513 807 l 1
 513 1206 l 1
 683 1206 l 1
 683 807 l 1
 1082 807 l 1
 1082 639 l 1
 683 639 l 1
 683 237 l 1
 513 237 l 1
EndSplineSet
EndChar
StartChar: comma
Encoding: 14 44 16
Width: 569
Flags: W
HStem: -20 20G<182 284>
VStem: 182 205<0 205> 284 103<-152.65 0>
Fore
182 0 m 1xc0
 182 205 l 1
 387 205 l 1
 387 0 l 2xc0
 386.406 -156.799 331.865 -240.866 220 -290 c 1
 170 -213 l 1
 250.676 -175.845 279.79 -117.423 284 0 c 1xa0
 182 0 l 1xc0
EndSplineSet
EndChar
StartChar: hyphen
Encoding: 15 45 17
Width: 682
Flags: W
HStem: 440 181<65 618>
Fore
65 440 m 1
 65 621 l 1
 618 621 l 1
 618 440 l 1
 65 440 l 1
EndSplineSet
EndChar
StartChar: period
Encoding: 16 46 18
Width: 569
Flags: W
HStem: 0 205<186 391>
VStem: 186 205<0 205>
Fore
186 0 m 1
 186 205 l 1
 391 205 l 1
 391 0 l 1
 186 0 l 1
EndSplineSet
EndChar
StartChar: slash
Encoding: 17 47 19
Width: 595
Flags: W
HStem: -10 21G<-81 102> 1450 20G<506 688>
Fore
-81 -10 m 1
 506 1470 l 1
 688 1470 l 1
 102 -10 l 1
 -81 -10 l 1
EndSplineSet
EndChar
StartChar: zero
Encoding: 18 48 20
Width: 1139
Flags: HW
HStem: -10 150<278.3 816.503> 1309 150<242.5 817.1>
VStem: 86 184<292.7 1124.7> 856 184<219.9 1231.3>
Fore
86 723 m 0
 86 1160 196 1459 563 1459 c 0
 881 1459 1040 1214 1040 723 c 0
 1040 288 920.14 -10 563 -10 c 0
 207.86 -10 86 300 86 723 c 0
270 723 m 0
 270 392 344 140 563 140 c 0
 758.003 140 856 336 856 723 c 0
 856 1114 758 1309 561 1309 c 0
 316 1309 270 1032 270 723 c 0
EndSplineSet
EndChar
StartChar: one
Encoding: 19 49 21
Width: 1139
Flags: W
HStem: 0 21G<583 763> 1452 20G<583 763>
VStem: 583 180<0 1135>
Fore
763 0 m 1
 583 0 l 1
 583 1135 l 1
 520.02 1033.39 368.069 936.577 223 907 c 1
 223 1104 l 1
 377.063 1175.22 531.324 1308.34 583 1472 c 1
 763 1472 l 1
 763 0 l 1
EndSplineSet
KernsSLIFO: 21 -152 0 0
EndChar
StartChar: two
Encoding: 20 50 22
Width: 1139
Flags: HW
HStem: 0 173<312 1031> 1333 149<343.1 769.937>
VStem: 96 185<1039 1274.22> 844 185<787.8 1272.83>
Fore
1031 173 m 1
 1031 0 l 1
 62 0 l 1
 61.6893 174.446 225 365 437 542 c 0
 655.204 724.18 844 855 844 1079 c 0
 844 1228.1 723.336 1333 568 1333 c 0
 395 1333 282.716 1219.94 281 1039 c 1
 96 1039 l 1
 93.2352 1304.11 295 1482 572 1482 c 0
 830.505 1482 1029 1325.77 1029 1075 c 0
 1029 785 800 630 596 455 c 0
 492.668 366.357 383.559 297.543 312 173 c 1
 1031 173 l 1
EndSplineSet
EndChar
StartChar: three
Encoding: 21 51 23
Width: 1139
Flags: HW
HStem: -10 166<343.7 775.108> 1070 21G<104 284> 1317 165<350.1 731.809>
VStem: 86 180<213.855 427> 789 185<922.9 1276.94> 855 191<222.173 662.1>
Fore
86 427 m 1xf4
 266 427 l 1
 266.87 263.042 392 156 553 156 c 0
 723.852 156 855 273.595 855 445 c 0xf4
 855 612 744 713 576 713 c 0
 533 713 488 707 441 694 c 1
 441 852 l 1
 626.587 832.7 789 940 789 1105 c 0
 789 1237.26 689.622 1317 549 1317 c 0
 396 1317 306.691 1228.44 284 1070 c 1
 104 1070 l 1
 110.165 1300.92 300 1482 545 1482 c 0
 776 1482 974 1327.9 974 1101 c 0xf8
 974 964 883.37 843.608 772 794 c 1
 949.326 749.35 1046 640 1046 449 c 0
 1046 181.383 832.18 -10 552 -10 c 4
 291.81 -10 89.2383 170.396 86 427 c 1xf4
EndSplineSet
EndChar
StartChar: four
Encoding: 22 52 24
Width: 1139
Flags: W
HStem: 0 21G<662 842> 347 175<251 662 842 1040> 1452 20G<662 842>
VStem: 662 180<0 347 522 1117>
Fore
662 0 m 1
 662 347 l 1
 26 347 l 1
 26 522 l 1
 662 1472 l 1
 842 1472 l 1
 842 522 l 1
 1040 522 l 1
 1040 347 l 1
 842 347 l 1
 842 0 l 1
 662 0 l 1
662 522 m 1
 662 1117 l 1
 251 522 l 1
 662 522 l 1
EndSplineSet
EndChar
StartChar: five
Encoding: 23 53 25
Width: 1139
Flags: HW
HStem: -10 164<337.6 801.103> 817 170<451.9 811.7> 1292 180<423 988>
VStem: 866 191<236 756>
Fore
85 415 m 1
 274 415 l 1
 302.745 248.884 388 154 556 154 c 0
 744.54 154 866 296 866 496 c 0
 866 696 752 817 553 817 c 0
 454 817 372 773 306 686 c 1
 117 708 l 1
 259 1472 l 1
 988 1472 l 1
 988 1292 l 1
 423 1292 l 1
 344 920 l 1
 397 964 484 987 591 987 c 0
 868 987 1057 796 1057 512 c 0
 1057 224 857.59 -10 556 -10 c 4
 279.82 -10 109.141 158.082 85 415 c 1
EndSplineSet
EndChar
StartChar: six
Encoding: 24 54 26
Width: 1139
Flags: HW
HStem: -10 165<350.985 818.3> 807 170<397.901 815.2> 1305 177<320.3 779.608>
VStem: 77 194<701 1243.7> 861 184<246 723.668>
Fore
1019 1103 m 1
 840 1103 l 1
 807.996 1234.91 736.314 1303.27 592 1305 c 0
 383 1305 276 1151 271 842 c 1
 346.377 933.643 443.154 977 594 977 c 0
 852 977 1045 765.94 1045 491 c 0
 1045 216 865.26 -10 586 -10 c 0
 207.87 -10 77 292 77 701 c 0
 77 1168 216 1482 603 1482 c 0
 825.573 1482 1020.72 1326.52 1019 1103 c 1
306 490 m 0
 306 308 404.527 155 583 155 c 0
 764 155 861 300 861 480 c 0
 861 667.437 760 807 576 807 c 0
 404 807 306 670.145 306 490 c 0
EndSplineSet
EndChar
StartChar: seven
Encoding: 25 55 27
Width: 1139
Flags: W
HStem: 0 21G<293 511> 1292 180<97 795>
VStem: 293 218<0 279.5>
Fore
97 1292 m 1
 97 1472 l 1
 1046 1472 l 1
 1046 1292 l 1
 895 1111 772 911 675 692 c 0
 566 446 511 215 511 0 c 1
 293 0 l 1
 294 235 359 494 486 776 c 0
 577 979 680 1151 795 1292 c 1
 97 1292 l 1
EndSplineSet
EndChar
StartChar: eight
Encoding: 26 56 28
Width: 1139
Flags: HW
HStem: -10 157<347.153 802> 699 181<380.569 745.1> 1326 156<390.372 750.9>
VStem: 83 185<217 660.125> 142 184<930.6 1289.4> 804 185<927.155 1276.8> 865 184<208.043 666>
Fore
362 805 m 1xf2
 215 859 142 959 142 1104 c 0
 142 1340 327.883 1482 563 1482 c 0
 804 1482 989 1332 989 1099 c 0xec
 989 957.817 908.117 855.921 773 805 c 1
 948.002 743.023 1049 632 1049 434 c 0
 1049 152 854.34 -10 566 -10 c 4
 292.13 -10 83 164 83 439 c 0
 83 644 192.564 762.716 362 805 c 1xf2
326 1110 m 0
 326 972 423.592 880 567 880 c 0
 704 880 804 967.042 804 1100 c 0
 804 1236 708 1326 565 1326 c 0
 430.671 1326 326 1248 326 1110 c 0
268 438 m 0xf2
 268 268 398.118 147 568 147 c 0
 748 147 865 259.726 865 432 c 0
 865 612 740 699 562 699 c 0
 388.771 699 268 608.865 268 438 c 0xf2
EndSplineSet
EndChar
StartChar: nine
Encoding: 27 57 29
Width: 1139
Flags: HW
HStem: -10 177<378.379 844.2> 495 170<344.692 760.099> 1317 165<342.3 807.015>
VStem: 113 184<747.6 1233.57> 887 194<228.3 771>
Fore
139 369 m 1
 318 369 l 1
 350.004 237.088 421.676 167 566 167 c 0
 780 167 882 321 887 630 c 1
 811.623 538.357 714.845 495 564 495 c 0
 316 495 113 704 113 981 c 0
 113 1260.2 294.455 1482 572 1482 c 0
 936 1482 1081 1188 1081 771 c 0
 1081 332 952.13 -10 555 -10 c 0
 332.43 -10 137.279 145.482 139 369 c 1
852 982 m 0
 854.32 1167.24 753.473 1317 575 1317 c 0
 396 1317 297 1177.82 297 992 c 0
 297 804 399.455 665 582 665 c 0
 760 665 855.141 801.882 852 982 c 0
EndSplineSet
EndChar
StartChar: colon
Encoding: 28 58 30
Width: 569
Flags: W
HStem: 0 205<185 390> 857 205<185 390>
VStem: 185 205<0 205 857 1062>
Fore
185 857 m 1
 185 1062 l 1
 390 1062 l 1
 390 857 l 1
 185 857 l 1
185 0 m 1
 185 205 l 1
 390 205 l 1
 390 0 l 1
 185 0 l 1
EndSplineSet
EndChar
StartChar: semicolon
Encoding: 29 59 31
Width: 569
Flags: W
HStem: -20 20G<182 284> 857 205<182 387>
VStem: 182 205<0 205 857 1062> 284 103<-142.753 0>
Fore
182 857 m 1xe0
 182 1062 l 1
 387 1062 l 1
 387 857 l 1
 182 857 l 1xe0
182 0 m 1
 182 205 l 1
 387 205 l 1
 387 0 l 2xe0
 388.097 -150.419 327.794 -245.139 220 -290 c 5
 170 -213 l 1
 249.748 -177.615 280.807 -109.81 284 0 c 1xd0
 182 0 l 1
EndSplineSet
EndChar
StartChar: less
Encoding: 30 60 32
Width: 1196
Flags: W
Fore
112 641 m 1
 112 809 l 1
 1083 1219 l 1
 1083 1040 l 1
 313 724 l 1
 1083 405 l 1
 1083 226 l 1
 112 641 l 1
EndSplineSet
EndChar
StartChar: equal
Encoding: 31 61 33
Width: 1196
Flags: W
HStem: 417 168<114 1082> 862 168<114 1082>
Fore
1082 862 m 1
 114 862 l 1
 114 1030 l 1
 1082 1030 l 1
 1082 862 l 1
1082 417 m 1
 114 417 l 1
 114 585 l 1
 1082 585 l 1
 1082 417 l 1
EndSplineSet
EndChar
StartChar: greater
Encoding: 32 62 34
Width: 1196
Flags: W
Fore
1083 641 m 1
 112 226 l 1
 112 405 l 1
 881 724 l 1
 112 1040 l 1
 112 1219 l 1
 1083 809 l 1
 1083 641 l 1
EndSplineSet
EndChar
StartChar: question
Encoding: 33 63 35
Width: 1139
Flags: W
HStem: 0 205<461 666> 1341 163<337.828 817.138>
VStem: 461 205<0 205> 472 173<361 456.399> 853 187<768.512 1236.35>
Fore
90 1046 m 1xd8
 103.875 1301.69 280 1504 565 1504 c 0
 834.463 1495.46 1040 1330 1040 1105 c 0
 1040 745 645 757.672 645 361 c 1
 472 361 l 1
 474 436 l 2
 500.598 805.042 846.345 821.814 853 1088 c 0
 853 1202.11 763.486 1341 568 1341 c 0
 390.945 1339.74 301.005 1221.54 275 1046 c 1
 90 1046 l 1xd8
461 0 m 1xe8
 461 205 l 1
 666 205 l 1
 666 0 l 1
 461 0 l 1xe8
EndSplineSet
EndChar
StartChar: at
Encoding: 34 64 36
Width: 2079
Flags: HW
HStem: -431 157<435.881 1670.53> -33 196<1354 1660.15> -3 164<728.76 1026.9> 925 159<726.721 1137.88> 1338 155<450.28 1597.46>
VStem: 111 158<-159.515 1122.3> 502 181<216.896 696.3> 1799 157<411.205 1217.35>
Fore
1354 -33 m 0xdf
 1199.6 -33 1168.4 46.9651 1161 121 c 1
 1090 38 987 -3 854 -3 c 0xbf
 642.8 -3 502 198.962 502 461 c 0
 502 805.048 762.748 1084 1011 1084 c 0
 1153 1084 1254 1035 1313 938 c 1
 1347 1079 l 1
 1526 1079 l 1
 1380 379 l 2
 1367 315 1358 265 1352 229 c 1
 1355.29 173.099 1399.88 163 1422 163 c 0
 1605.19 163 1799 481.543 1799 716 c 0
 1799 1101.66 1481.05 1338 1093 1338 c 0
 598.6 1338 269 975.234 269 485 c 0
 269 -10.781 593.755 -274 1120 -274 c 0
 1555.43 -274 1751.1 -86.5129 1824 19 c 1
 2005 19 l 1
 1873.36 -252.509 1544.18 -431 1123 -431 c 0
 526.912 -431 111 -123.886 111 469 c 0
 111 1060.56 507.4 1493 1102 1493 c 0
 1586.37 1493 1956 1181 1956 713 c 0
 1956 364.982 1686.93 -33 1354 -33 c 0xdf
683 453 m 0
 683 271.381 766.2 161 891 161 c 0
 1107.23 161 1243 421.263 1243 649 c 0
 1243 881.52 1111.6 925 1024 925 c 0
 795.324 925 683 640.154 683 453 c 0
EndSplineSet
EndChar
StartChar: A
Encoding: 35 65 37
Width: 1366
Flags: W
HStem: 0 21G<-2 203 1149 1368> 471 182<435 948> 1430 20G<559 768>
Fore
559 1450 m 1
 768 1450 l 1
 1368 0 l 1
 1149 0 l 1
 948 471 l 1
 392 471 l 1
 203 0 l 1
 -2 0 l 1
 559 1450 l 1
903 653 m 1
 659 1237 l 1
 435 653 l 1
 903 653 l 1
EndSplineSet
KernsSLIFO: 93 -37 0 0 91 -37 0 0 90 -37 0 0 61 -152 0 0 59 -76 0 0 58 -152 0 0 56 -152 0 0
EndChar
StartChar: B
Encoding: 36 66 38
Width: 1366
Flags: HW
HStem: 0 173<344 1100.3> 669 173<344 890> 1277 173<344 885.8>
VStem: 164 180<173 669 842 1277> 995 191<976.3 1301.7> 1056 201<257.2 608.2>
Fore
981 772 m 1xf8
 1189.21 711.174 1257 565 1257 421 c 0xf4
 1257 140 1055 3.02483e-05 709 0 c 2
 164 0 l 1
 164 1450 l 1
 709 1450 l 2
 995 1450 1186 1315 1186 1079 c 0
 1186 1000 1153 856.755 981 772 c 1xf8
344 842 m 1
 683 842 l 2
 890 842 995 895 995 1056 c 0xf8
 995 1245 845 1277 709 1277 c 2
 344 1277 l 1
 344 842 l 1
344 173 m 1
 709 173 l 2
 1010 173 1056 295 1056 421 c 0xf4
 1056 605 940 669 683 669 c 2
 344 669 l 1
 344 173 l 1
EndSplineSet
EndChar
StartChar: C
Encoding: 37 67 39
Width: 1479
Flags: HW
HStem: -10 180<279.44 1094.72> 1297 180<376.6 978.79>
VStem: 102 197<454.675 1161.12>
Fore
788 170 m 0
 1023.94 170 1192.61 299.563 1210 480 c 1
 1398 480 l 1
 1305.82 116.937 1053.8 -10 791 -10 c 0
 383.88 -10 102 256 102 745 c 0
 102 1191.23 389.094 1477 794 1477 c 0
 1141.4 1477 1310.69 1265.7 1373 1050 c 1
 1185 1050 l 1
 1123.29 1251.8 935.223 1297 790 1297 c 0
 472 1297 298.46 1065.32 299 746 c 0
 299 521.904 396.8 170 788 170 c 0
EndSplineSet
EndChar
StartChar: D
Encoding: 38 68 40
Width: 1479
Flags: MW
HStem: 0 173<350 1071.24> 1277 173<350 1015.88>
VStem: 168 182<173 1277> 1183 197<202.074 1264.26>
Fore
1380 733 m 0
 1380 146.6 1054.12 0 697 0 c 2
 168 0 l 1
 168 1450 l 1
 673 1450 l 2
 1238.6 1450 1380 1141.66 1380 733 c 0
1183 736 m 0
 1183 1168.8 936.063 1277 670 1277 c 2
 350 1277 l 1
 350 173 l 1
 675 173 l 2
 979.8 173 1183 325.288 1183 736 c 0
EndSplineSet
EndChar
StartChar: E
Encoding: 39 69 41
Width: 1366
Flags: W
HStem: 0 179<341 1222> 646 180<341 1021> 1268 182<162 1222>
VStem: 162 179<0 646 0 1268>
Fore
162 0 m 1
 162 1450 l 1
 1222 1450 l 1
 1222 1268 l 1
 341 1268 l 1
 341 826 l 1
 1021 826 l 1
 1021 646 l 1
 341 646 l 1
 341 179 l 1
 1222 179 l 1
 1222 0 l 1
 162 0 l 1
EndSplineSet
EndChar
StartChar: F
Encoding: 40 70 42
Width: 1251
Flags: W
HStem: 0 21G<168 347> 641 179<347 1009> 1271 179<168 1157>
VStem: 168 179<0 641 0 1271>
Fore
168 0 m 1
 168 1450 l 1
 1157 1450 l 1
 1157 1271 l 1
 347 1271 l 1
 347 820 l 1
 1009 820 l 1
 1009 641 l 1
 347 641 l 1
 347 0 l 1
 168 0 l 1
EndSplineSet
KernsSLIFO: 37 -113 0 0 18 -227 0 0 16 -227 0 0
EndChar
StartChar: G
Encoding: 41 71 43
Width: 1479
Flags: HW
HStem: -10 180<324.118 1039.6> 504 180<905 1212> 1297 180<376.6 1103.42>
VStem: 102 197<452.936 1164.6> 1212 192<504 684>
Fore
299 746 m 0
 299 520.566 396 170 788 170 c 0
 981.539 170 1213.29 287.141 1212 504 c 1
 905 504 l 1
 905 684 l 1
 1404 684 l 1
 1428 192 1188.13 -10 791 -10 c 4
 431.86 -10 102 212 102 745 c 0
 102 1191.23 384 1477 794 1477 c 0
 1141.4 1477 1310.69 1265.7 1373 1050 c 1
 1185 1050 l 1
 1145.18 1183.94 1031.09 1297 790 1297 c 0
 472 1297 299 1068 299 746 c 0
EndSplineSet
EndChar
StartChar: H
Encoding: 42 72 44
Width: 1479
Flags: W
HStem: 0 21G<164 344 1134 1314> 668 180<344 1134> 1430 20G<164 344 1134 1314>
VStem: 164 180<0 668 848 1450> 1134 180<0 668 848 1450>
Fore
164 0 m 1
 164 1450 l 1
 344 1450 l 1
 344 848 l 1
 1134 848 l 1
 1134 1450 l 1
 1314 1450 l 1
 1314 0 l 1
 1134 0 l 1
 1134 668 l 1
 344 668 l 1
 344 0 l 1
 164 0 l 1
EndSplineSet
EndChar
StartChar: I
Encoding: 43 73 45
Width: 650
Flags: W
HStem: 0 160<25 625> 1290 160<25 235 25 625>
VStem: 235 180<160 1290>
Fore
625 160 m 1
 625 0 l 1
 25 0 l 1
 25 160 l 1
 235 160 l 1
 235 1290 l 1
 25 1290 l 1
 25 1450 l 1
 625 1450 l 1
 625 1290 l 1
 415 1290 l 1
 415 160 l 1
 625 160 l 1
EndSplineSet
EndChar
StartChar: J
Encoding: 44 74 46
Width: 1024
Flags: HW
HStem: -10 180<287.8 662.2> 1280 170<408 685>
VStem: 64 180<180.7 455> 685 180<210.4 1280>
Fore
865 1450 m 1
 865 456 l 2
 865 108 712.2 -10 463 -10 c 0
 125.64 -10 64 215.744 64 455 c 1
 244 455 l 1
 244 244 328 170 462 170 c 0
 616 170 685 256 685 408 c 2
 685 1280 l 1
 408 1280 l 1
 408 1450 l 1
 865 1450 l 1
EndSplineSet
EndChar
StartChar: K
Encoding: 45 75 47
Width: 1366
Flags: W
HStem: 0 21G<150 330 1113 1346> 1430 20G<150 330 1072 1316>
VStem: 150 180<0 539 0 1450>
Fore
150 0 m 1
 150 1450 l 1
 330 1450 l 1
 330 785 l 1
 1072 1450 l 1
 1316 1450 l 1
 610 806 l 1
 1346 0 l 1
 1113 0 l 1
 479 670 l 1
 330 539 l 1
 330 0 l 1
 150 0 l 1
EndSplineSet
EndChar
StartChar: L
Encoding: 46 76 48
Width: 1139
Flags: W
HStem: 0 170<330 1060> 1430 20G<150 330>
VStem: 150 180<170 1450>
Fore
150 0 m 1
 150 1450 l 1
 330 1450 l 1
 330 170 l 1
 1060 170 l 1
 1060 0 l 1
 150 0 l 1
EndSplineSet
KernsSLIFO: 93 -76 0 0 61 -152 0 0 59 -152 0 0 58 -152 0 0 56 -152 0 0
EndChar
StartChar: M
Encoding: 47 77 49
Width: 1706
Flags: W
HStem: 0 21G<152 332 706 996 1370 1550> 1430 20G<152 332 1370 1550>
VStem: 152 180<0 964> 1370 180<0 964>
Fore
152 0 m 1
 152 1450 l 1
 332 1450 l 1
 851 133 l 1
 1370 1450 l 1
 1550 1450 l 1
 1550 0 l 1
 1370 0 l 1
 1370 964 l 1
 996 0 l 1
 706 0 l 1
 332 964 l 1
 332 0 l 1
 152 0 l 1
EndSplineSet
EndChar
StartChar: N
Encoding: 48 78 50
Width: 1479
Flags: W
HStem: 0 21G<156 336 1131 1311> 1430 20G<156 336 1131 1311>
VStem: 156 180<0 1136> 1131 180<315 1450>
Fore
156 0 m 1
 156 1450 l 1
 336 1450 l 1
 1131 315 l 1
 1131 1450 l 1
 1311 1450 l 1
 1311 0 l 1
 1131 0 l 1
 336 1136 l 1
 336 0 l 1
 156 0 l 1
EndSplineSet
EndChar
StartChar: O
Encoding: 49 79 51
Width: 1593
Flags: W
HStem: -10 180<387.43 1218.89> 1298 180<284.08 1224.01>
VStem: 104 200<284.001 1089.07> 1296 200<279.163 1173.77>
Fore
800 -10 m 0
 369.53 -10 104 306.276 104 714 c 0
 104 1187.74 364.038 1473.94 801 1478 c 0
 1229.65 1478 1496 1175.8 1496 731 c 0
 1496 276.612 1212.39 -10 800 -10 c 0
802 1298 m 0
 403.6 1298 304 1001.83 304 711 c 0
 304 382.54 482.408 170 799 170 c 0
 1121.99 170 1296 383.664 1296 732 c 0
 1296 1071.82 1126.63 1298 802 1298 c 0
EndSplineSet
EndChar
StartChar: P
Encoding: 50 80 52
Width: 1366
Flags: HW
HStem: 0 21G<158 338> 580 173<338 983.2> 1277 173<338 1107.9>
VStem: 158 180<0 580 753 1277> 1077 200<742.32 1221.5>
Fore
158 0 m 1
 158 1450 l 1
 711 1450 l 2
 1185 1450 1277 1255 1277 1026 c 0
 1277 735 1105 580 728 580 c 2
 338 580 l 1
 338 0 l 1
 158 0 l 1
731 753 m 2
 925 753 1077 806.4 1077 1020 c 0
 1077 1175 1020 1277 727 1277 c 2
 338 1277 l 1
 338 753 l 1
 731 753 l 2
EndSplineSet
KernsSLIFO: 37 -152 0 0 18 -264 0 0 16 -264 0 0
EndChar
StartChar: Q
Encoding: 51 81 53
Width: 1659
Flags: W
HStem: -14 189<1341.26 1450.02> -10 177<722.705 959.092> 297 178<729.155 979.5> 1298 180<284.6 1224.01>
VStem: 104 200<410.253 1089.07> 1296 200<595.966 1184.4>
Fore
895 475 m 0x3c
 1075.18 473.02 1174.49 374.809 1194 354 c 1
 1283.92 465.629 1296 642.962 1296 732 c 0
 1296 1080 1126.63 1298 802 1298 c 0
 404 1298 304 1001.83 304 711 c 0
 304 479.656 388.11 317.771 543 230 c 1
 585.966 394.051 751.391 475 895 475 c 0x3c
1496 731 m 0
 1496 396 1390.41 260.727 1317 204 c 1
 1334 185 1358 176 1390 175 c 0
 1429.43 175 1488.24 191.53 1533 228 c 1
 1659 90 l 1
 1585 21 1498 -14 1399 -14 c 0xbc
 1313.43 -14 1214.76 15.8813 1156 88 c 1
 1052.02 21.536 962.3 -10 820 -10 c 0x7c
 372.82 -10 104 284 104 714 c 0
 104 1187.74 368 1478 801 1478 c 0
 1229.65 1478 1496 1175.8 1496 731 c 0
1050 226 m 1
 1010 273 963 297 908 297 c 0
 770.427 297 738.018 174.037 738 174 c 1
 755 169 776 167 803 167 c 0x7c
 923.071 168.559 1014.63 197.057 1050 226 c 1
EndSplineSet
EndChar
StartChar: R
Encoding: 52 82 54
Width: 1400
Flags: W
HStem: 0 21G<158 338 1107 1387> 580 173<338 698> 1277 173<338 1127.4>
VStem: 158 180<0 580 753 1277> 1077 200<742.32 1195.5>
Fore
698 580 m 1
 338 580 l 1
 338 0 l 1
 158 0 l 1
 158 1450 l 1
 711 1450 l 2
 1175 1450 1277 1260 1277 1026 c 0
 1277 799.475 1150.84 630.226 924 596 c 1
 1387 0 l 1
 1107 0 l 1
 698 580 l 1
731 753 m 2
 925 753 1077 806.4 1077 1020 c 0
 1077 1155 1035 1277 727 1277 c 2
 338 1277 l 1
 338 753 l 1
 731 753 l 2
EndSplineSet
KernsSLIFO: 61 -37 0 0 59 -37 0 0 58 -37 0 0 56 -37 0 0
EndChar
StartChar: S
Encoding: 53 83 55
Width: 1366
Flags: HW
HStem: -10 174<393.699 954.258> 1300 171<306.661 942.4>
VStem: 148 187<851.2 1194.4> 1029 186<997.826 1204.8> 1072 187<186.585 677.571>
Fore
1259 429 m 0xe8
 1259 157.466 1014 -10 717 -10 c 0
 203.015 -10 96.9346 291.456 92 502 c 1
 275 502 l 1
 303.137 270.985 466.23 164 708 164 c 0
 897.429 164 1072 238.835 1072 413 c 0xe8
 1074.63 616.516 816.958 624.822 639 666 c 0
 383.86 727.701 148 799.724 148 1067 c 0
 148 1323.07 372 1471 664 1471 c 0
 964 1471 1192.28 1319.28 1215 1019 c 1
 1029 1019 l 1xf0
 1009.25 1191.33 880 1300 672 1300 c 0
 390.97 1300 335 1168 335 1080 c 0
 335 904 559.661 882.553 692 852 c 0
 883.931 807.689 1259 780 1259 429 c 0xe8
EndSplineSet
EndChar
StartChar: T
Encoding: 54 84 56
Width: 1251
Flags: W
HStem: 0 21G<538 718> 1280 170<48 538 48 1210>
VStem: 538 180<0 1280>
Fore
538 0 m 1
 538 1280 l 1
 48 1280 l 1
 48 1450 l 1
 1210 1450 l 1
 1210 1280 l 1
 718 1280 l 1
 718 0 l 1
 538 0 l 1
EndSplineSet
KernsSLIFO: 93 -113 0 0 91 -113 0 0 89 -76 0 0 87 -227 0 0 86 -76 0 0 83 -227 0 0 77 -76 0 0 73 -227 0 0 71 -227 0 0 69 -227 0 0 51 -37 0 0 37 -152 0 0 31 -227 0 0 30 -227 0 0 18 -227 0 0 17 -113 0 0 16 -227 0 0
EndChar
StartChar: U
Encoding: 55 85 57
Width: 1479
Flags: HW
HStem: -10 180<476.222 1149.88> 1430 20G<161 341 1134 1314>
VStem: 161 180<172.754 1450> 1134 180<268.245 1450>
Fore
737 170 m 0
 1054.6 170 1134 337.419 1134 568 c 2
 1134 1450 l 1
 1314 1450 l 1
 1314 567 l 2
 1314 182 1123 -10 741 -10 c 0
 277 -10 161 263.734 161 567 c 2
 161 1450 l 1
 341 1450 l 1
 341 568 l 2
 341 249.6 536.402 170 737 170 c 0
EndSplineSet
EndChar
StartChar: V
Encoding: 56 86 58
Width: 1366
Flags: W
HStem: 0 21G<577 776> 1430 20G<9 219 1152 1350>
Fore
577 0 m 1
 9 1450 l 1
 219 1450 l 1
 677 279 l 1
 1152 1450 l 1
 1350 1450 l 1
 776 0 l 1
 577 0 l 1
EndSplineSet
KernsSLIFO: 93 -76 0 0 89 -76 0 0 86 -76 0 0 83 -113 0 0 77 -37 0 0 73 -113 0 0 69 -152 0 0 37 -152 0 0 31 -76 0 0 30 -76 0 0 18 -188 0 0 17 -113 0 0 16 -188 0 0
EndChar
StartChar: W
Encoding: 57 87 59
Width: 1933
Flags: W
HStem: 0 21G<414 612 1310 1508> 1430 20G<25 224 834 1088 1698 1897>
Fore
414 0 m 1
 25 1450 l 1
 224 1450 l 1
 513 390 l 1
 834 1450 l 1
 1088 1450 l 1
 1409 390 l 1
 1698 1450 l 1
 1897 1450 l 1
 1508 0 l 1
 1310 0 l 1
 961 1170 l 1
 612 0 l 1
 414 0 l 1
EndSplineSet
KernsSLIFO: 93 -18 0 0 89 -37 0 0 86 -37 0 0 83 -37 0 0 73 -37 0 0 69 -76 0 0 37 -76 0 0 31 -37 0 0 30 -37 0 0 18 -113 0 0 17 -37 0 0 16 -113 0 0
EndChar
StartChar: X
Encoding: 58 88 60
Width: 1366
Flags: W
HStem: 0 21G<9 239 1123 1353> 1430 20G<76 306 1083 1313>
Fore
9 0 m 1
 564 756 l 1
 76 1450 l 1
 306 1450 l 1
 681 902 l 1
 1083 1450 l 1
 1313 1450 l 1
 798 756 l 1
 1353 0 l 1
 1123 0 l 1
 681 613 l 1
 239 0 l 1
 9 0 l 1
EndSplineSet
EndChar
StartChar: Y
Encoding: 59 89 61
Width: 1366
Flags: W
HStem: 0 21G<571 765> 1431 20G<6 236 1120 1350>
VStem: 571 194<0 621>
Fore
571 0 m 1
 571 621 l 1
 6 1451 l 1
 236 1451 l 1
 680 855 l 1
 1120 1451 l 1
 1350 1451 l 1
 765 621 l 1
 765 0 l 1
 571 0 l 1
EndSplineSet
KernsSLIFO: 90 -113 0 0 89 -113 0 0 85 -188 0 0 84 -152 0 0 83 -188 0 0 77 -76 0 0 73 -188 0 0 69 -152 0 0 37 -152 0 0 31 -133 0 0 30 -113 0 0 18 -264 0 0 17 -188 0 0 16 -264 0 0
EndChar
StartChar: Z
Encoding: 60 90 62
Width: 1251
Flags: W
HStem: 0 180<325 1200> 1270 180<45 945>
Fore
41 0 m 1
 41 187 l 1
 945 1270 l 1
 45 1270 l 1
 45 1450 l 1
 1213 1450 l 1
 1213 1270 l 1
 325 180 l 1
 1200 180 l 1
 1200 0 l 1
 41 0 l 1
EndSplineSet
EndChar
StartChar: bracketleft
Encoding: 61 91 63
Width: 569
Flags: W
HStem: -407 149<319 536> 1317 149<139 536>
VStem: 139 180<-407 1317>
Fore
139 -407 m 1
 139 1466 l 1
 536 1466 l 1
 536 1317 l 1
 319 1317 l 1
 319 -258 l 1
 536 -258 l 1
 536 -407 l 1
 139 -407 l 1
EndSplineSet
EndChar
StartChar: backslash
Encoding: 62 92 64
Width: 569
Flags: W
Fore
425 -25 m 1
 0 1491 l 1
 145 1491 l 1
 569 -25 l 1
 425 -25 l 1
EndSplineSet
EndChar
StartChar: bracketright
Encoding: 63 93 65
Width: 569
Flags: W
HStem: -407 149<39 436> 1317 149<39 256>
VStem: 256 180<-258 1466>
Fore
436 -407 m 1
 39 -407 l 1
 39 -258 l 1
 256 -258 l 1
 256 1317 l 1
 39 1317 l 1
 39 1466 l 1
 436 1466 l 1
 436 -407 l 1
EndSplineSet
EndChar
StartChar: asciicircum
Encoding: 64 94 66
Width: 961
Flags: W
Fore
239 690 m 1
 54 690 l 1
 407 1491 l 1
 552 1491 l 1
 907 690 l 1
 726 690 l 1
 479 1287 l 1
 239 690 l 1
EndSplineSet
EndChar
StartChar: underscore
Encoding: 65 95 67
Width: 1139
Flags: W
HStem: -407 130<-31 1162>
Fore
-31 -407 m 1
 -31 -277 l 1
 1162 -277 l 1
 1162 -407 l 1
 -31 -407 l 1
EndSplineSet
EndChar
StartChar: grave
Encoding: 66 96 68
Width: 682
Flags: W
HStem: 1194 280<89 465>
Fore
465 1194 m 1
 320 1194 l 1
 89 1474 l 1
 330 1474 l 1
 465 1194 l 1
EndSplineSet
EndChar
StartChar: a
Encoding: 67 97 69
Width: 1139
Flags: HW
HStem: -24 141<255.393 670.339> 937 149<338.491 818.865>
VStem: 74 192<197.64 438.6> 813 182<342.607 533 661.416 864.037>
Fore
995 445 m 2
 995 153.367 999.676 93.2732 1052 0 c 1
 864 0 l 1
 845 37 833 81 828 131 c 1
 731.532 48.9304 616.491 -24 437 -24 c 0
 148.738 -24 74 155.493 74 280 c 0
 74 402 146.088 534.649 332 585 c 0
 450.965 615.591 659.219 620.511 813 674 c 1
 814 699 819.35 716.486 814 721 c 2
 814 849 758.666 937 558 937 c 0
 389.147 937 318.463 882.882 281 735 c 1
 105 759 l 1
 145.71 989.726 321 1086 584 1086 c 0
 998.639 1086 995 864.037 995 685 c 2
 995 445 l 2
266 285 m 0
 266 217.8 307.225 117 480 117 c 0
 628.092 117 737.085 187.54 784 287 c 0
 803 328 813 388 813 467 c 2
 813 533 l 1
 581.772 436.951 266 500.283 266 285 c 0
EndSplineSet
EndChar
StartChar: b
Encoding: 68 98 70
Width: 1139
Flags: W
HStem: -10 159<441.12 835.631> 921 165<451.6 741.88> 1446 20G<134 314>
VStem: 134 180<129.575 812.625 943 1466> 134 167<0 119> 883 172<238.491 948.205>
Fore
596 -10 m 0xf4
 419 -10 329.64 81.7677 301 119 c 1
 301 0 l 1
 134 0 l 1xec
 134 1466 l 1
 314 1466 l 1
 314 943 l 1
 390 1038 487 1086 605 1086 c 0
 886.535 1086 1055 858.64 1055 547 c 0
 1055 227.691 893.456 -10 596 -10 c 0xf4
589 921 m 0
 425.784 921 312 749.481 312 539 c 0
 312 224.058 473.4 149 581 149 c 0
 776.87 150.865 883 306.224 883 532 c 0
 883 852.158 706.6 921 589 921 c 0
EndSplineSet
EndChar
StartChar: c
Encoding: 69 99 71
Width: 1024
Flags: HW
HStem: -10 170<406.041 720.089> 916 170<304.232 756.828>
VStem: 80 185<132.9 862.2> 828 177<149.006 403 696 774.731>
Fore
561 160 m 0
 683.376 160.949 822.878 203.254 828 403 c 1
 1005 403 l 1
 996.642 137.202 828.814 -10 563 -10 c 0
 309.807 -10 80 174.001 80 527 c 0
 80 866.849 252.14 1086 564 1086 c 0
 947.497 1086 1003 806.9 1003 696 c 1
 828 696 l 1
 815.792 816.338 713.944 916 571 916 c 0
 365.794 919.796 265 786 265 532 c 0
 265 225 441.801 160 561 160 c 0
EndSplineSet
EndChar
StartChar: d
Encoding: 70 100 72
Width: 1139
Flags: HW
HStem: -10 154<393.72 692.004> 917 169<243.44 741.221> 1446 20G<812 991>
VStem: 70 185<125.07 761.766> 812 179<199.774 854.3 958 1466> 824 167<0 122>
Fore
519 1086 m 0xf4
 694.8 1086 768.504 1013.91 812 958 c 1
 812 1466 l 1
 991 1466 l 1xf8
 991 0 l 1
 824 0 l 1
 824 122 l 1
 764 34 665 -10 527 -10 c 0
 244.399 -8.38854 70 218.516 70 530 c 0
 70 848 228.21 1086 519 1086 c 0xf4
544 917 m 0
 312.8 917 255 708.281 255 530 c 0
 255 210.475 428.4 144 544 144 c 0
 657.849 141.217 817 272.519 817 515 c 0
 817 776 695.709 917 544 917 c 0
EndSplineSet
EndChar
StartChar: e
Encoding: 71 101 73
Width: 1139
Flags: HW
HStem: -10 162<390.559 776.827> 485 164<271 862> 914 172<352.017 873.56>
VStem: 75 192<139.554 522>
Fore
267 485 m 1
 273.291 212.919 434.738 152 582 152 c 0
 731.867 151.333 825.167 214.078 862 333 c 1
 1048 333 l 1
 1007.59 123.914 836.218 -10 581 -10 c 0
 258.588 -10 75 183.149 75 522 c 0
 75 858.754 252.502 1086 571 1086 c 0
 886.355 1086 1051.84 863.413 1054 520 c 0
 1054 508 1054 496 1053 485 c 1
 267 485 l 1
862 649 m 1
 852.081 756.581 804.2 914 573 914 c 0
 403.013 914 280.882 803.154 271 649 c 1
 862 649 l 1
EndSplineSet
EndChar
StartChar: f
Encoding: 72 102 74
Width: 569
Flags: HW
HStem: 0 21G<178 357> 785 140<19 178 357 536> 1343 172<395.086 577.458>
VStem: 178 179<0 785 925 1340.38>
Fore
501 1343 m 0
 419.528 1346.54 357 1298.75 357 1160 c 2
 357 925 l 1
 536 925 l 1
 536 785 l 1
 357 785 l 1
 357 0 l 1
 178 0 l 1
 178 785 l 1
 19 785 l 1
 19 925 l 1
 178 925 l 1
 178 1175 l 2
 178 1447 354.701 1515 487 1515 c 0
 538 1515 589 1506 640 1488 c 1
 640 1316 l 1
 585 1334 539 1343 501 1343 c 0
EndSplineSet
KernsSLIFO: 74 -37 0 0
EndChar
StartChar: g
Encoding: 73 103 75
Width: 1139
Flags: HW
HStem: -435 167<364.175 831.7> 0 175<270.808 677.1> 917 169<291.389 686.16>
VStem: 66 185<253.728 834.836> 102 175<-263.263 -74> 819 183<-188.353 139 224.2 958.219> 836 166<974 1062>
Fore
1002 144 m 2xf2
 1002 -296.112 859.35 -435 522 -435 c 0
 276.59 -435 108.444 -309.06 102 -74 c 1
 277 -74 l 1
 275.78 -219.587 400.365 -268 521 -268 c 0
 760 -268 819.853 -112.81 819 139 c 1xec
 740 46 642 0 525 0 c 0
 239.324 0 66 223.37 66 537 c 0
 66 853.886 234.699 1086 526 1086 c 0
 667 1086 770 1049 836 974 c 1
 836 1062 l 1
 1002 1062 l 1
 1002 144 l 2xf2
539 917 m 0
 348.53 917 251 769.105 251 550 c 0xf0
 251 322.098 333.39 175 542 175 c 0
 729 175 822 298 822 544 c 0
 822 862.63 652.2 917 539 917 c 0
EndSplineSet
EndChar
StartChar: h
Encoding: 74 104 76
Width: 1139
Flags: W
HStem: 0 21G<135 315 820 1000> 882 213<463.295 789.7> 1446 20G<135 315>
VStem: 135 180<0 822.706 970 1466> 820 180<0 847.6>
Fore
596 882 m 0
 406.385 882 315 755.62 315 532 c 2
 315 0 l 1
 135 0 l 1
 135 1466 l 1
 315 1466 l 1
 315 970 l 1
 381.437 1056.52 494.842 1095 600 1095 c 0
 920 1095 1000 854.769 1000 673 c 2
 1000 0 l 1
 820 0 l 1
 820 624 l 2
 820 796 745 882 596 882 c 0
EndSplineSet
EndChar
StartChar: i
Encoding: 75 105 77
Width: 455
Flags: W
HStem: 0 21G<136 316> 1042 20G<136 316> 1446 20G<136 316>
VStem: 136 180<0 1062 1259 1466>
Fore
136 1259 m 1
 136 1466 l 1
 316 1466 l 1
 316 1259 l 1
 136 1259 l 1
136 0 m 1
 136 1062 l 1
 316 1062 l 1
 316 0 l 1
 136 0 l 1
EndSplineSet
EndChar
StartChar: j
Encoding: 76 106 78
Width: 455
Flags: HW
HStem: -428 161<-64.9111 118.988> 1042 20G<134 314> 1257 209<134 314>
VStem: 134 180<-273.157 1062 1257 1466>
Fore
134 1257 m 1
 134 1466 l 1
 314 1466 l 1
 314 1257 l 1
 134 1257 l 1
314 -58 m 2
 314 -335.953 204 -428 39 -428 c 0
 -1 -428 -45 -423 -94 -412 c 1
 -94 -259 l 1
 -59 -264 -30 -267 -7 -267 c 0
 89.9141 -267 134 -222.582 134 -54 c 2
 134 1062 l 1
 314 1062 l 1
 314 -58 l 2
EndSplineSet
EndChar
StartChar: k
Encoding: 77 107 79
Width: 1024
Flags: W
HStem: 0 21G<136 316 794 1016> 1042 20G<742 975> 1446 20G<136 316>
VStem: 136 180<0 421 0 1466>
Fore
136 0 m 1
 136 1466 l 1
 316 1466 l 1
 316 630 l 1
 742 1062 l 1
 975 1062 l 1
 569 668 l 1
 1016 0 l 1
 794 0 l 1
 443 543 l 1
 316 421 l 1
 316 0 l 1
 136 0 l 1
EndSplineSet
EndChar
StartChar: l
Encoding: 78 108 80
Width: 455
Flags: W
HStem: 0 21G<131 311> 1446 20G<131 311>
VStem: 131 180<0 1466>
Fore
131 0 m 1
 131 1466 l 1
 311 1466 l 1
 311 0 l 1
 131 0 l 1
EndSplineSet
EndChar
StartChar: m
Encoding: 79 109 81
Width: 1706
Flags: HW
HStem: 0 21G<135 315 766 946 1395 1574> 930 156<435.188 724.64 1089.4 1381.5>
VStem: 135 161<913 1062> 135 180<0 704> 766 180<0 929.194> 1395 179<0 910.8>
Fore
766 690 m 2xec
 766 873.995 690.8 930 578 930 c 0
 468.145 930 379.147 867.343 344 773 c 0
 325 722 315 648 315 551 c 2
 315 0 l 1
 135 0 l 1xdc
 135 1062 l 1
 296 1062 l 1
 296 913 l 1
 326.874 961.651 424.8 1086 618 1086 c 0
 793.151 1086 881.003 1003.94 918 900 c 1
 1002 1024 1111 1086 1246 1086 c 0
 1442.52 1086 1574 985.9 1574 729 c 2
 1574 0 l 1
 1395 0 l 1
 1395 669 l 2
 1395 855 1341 930 1206 930 c 0
 1116.31 930 946 893.4 946 617 c 2
 946 0 l 1
 766 0 l 1
 766 690 l 2xec
EndSplineSet
EndChar
StartChar: n
Encoding: 80 110 82
Width: 1139
Flags: W
HStem: 0 21G<135 315 820 1000> 882 213<463.295 789.7>
VStem: 135 180<0 822.706 970 1064> 820 180<0 847.6>
Fore
596 882 m 0
 406.385 882 315 755.62 315 532 c 2
 315 0 l 1
 135 0 l 1
 135 1064 l 1
 315 1064 l 1
 315 970 l 1
 381.437 1056.52 494.842 1095 600 1095 c 0
 920 1095 1000 854.769 1000 673 c 2
 1000 0 l 1
 820 0 l 1
 820 624 l 2
 820 796 745 882 596 882 c 0
EndSplineSet
EndChar
StartChar: o
Encoding: 81 111 83
Width: 1139
Flags: W
HStem: -11 158<403.24 837.679> 928 158<296.036 728.24>
VStem: 68 185<102.394 845.58> 878 185<219.801 954.889>
Fore
566 -11 m 0
 246.365 -11 68 189.597 68 531 c 0
 68 866.654 244.475 1086 566 1086 c 0
 873.91 1086 1063 874.017 1063 546 c 0
 1063 115.931 820.5 -11 566 -11 c 0
566 928 m 0
 358.336 928 253 772.984 253 531 c 0
 253 201.303 440.8 147 566 147 c 0
 774.984 147 878 293.001 878 537 c 0
 878 858.453 690.8 928 566 928 c 0
EndSplineSet
EndChar
StartChar: p
Encoding: 82 112 84
Width: 1139
Flags: W
HStem: -10 165<439.6 729.88> 927 159<428.724 848.5>
VStem: 122 167<957 1076> 122 180<-390 133 267.735 946.152> 871 172<127.646 798.8>
Fore
1043 529 m 0xe8
 1043 217.71 874.83 -10 593 -10 c 0
 475 -10 378 38 302 133 c 1
 302 -390 l 1
 122 -390 l 1xd8
 122 1076 l 1
 289 1076 l 1
 289 957 l 1
 317.64 994.232 407 1086 584 1086 c 0
 881.008 1086 1043 852 1043 529 c 0xe8
569 927 m 0
 461.095 927 300 851.732 300 537 c 0
 300 329.873 410.8 155 577 155 c 0
 694.6 155 871 223.727 871 544 c 0
 871 740 784 927 569 927 c 0
EndSplineSet
EndChar
StartChar: q
Encoding: 83 113 85
Width: 1139
Flags: HW
HStem: -10 165<400.12 690.4> 927 159<284.1 700.88>
VStem: 87 172<127.795 804> 828 180<-390 133 263.375 946.425> 841 167<957 1076>
Fore
546 1086 m 0xf0
 723 1086 812.36 994.232 841 957 c 1
 841 1076 l 1
 1008 1076 l 1xe8
 1008 -390 l 1
 828 -390 l 1
 828 133 l 1
 752 38 655 -10 537 -10 c 0
 255.465 -10 87 217.36 87 529 c 0
 87 848.309 248.544 1086 546 1086 c 0xf0
553 155 m 0
 716.216 155 830 326.519 830 537 c 0
 830 851.942 668.6 927 561 927 c 0
 348 927 259 744 259 544 c 0
 259 223.842 435.4 155 553 155 c 0
EndSplineSet
EndChar
StartChar: r
Encoding: 84 114 86
Width: 682
Flags: W
HStem: 0 21G<133 313> 900 177<380.605 583.585>
VStem: 133 162<947 1062> 133 180<0 876.075>
Fore
518 900 m 0xe0
 395 900 313 802.212 313 556 c 2
 313 0 l 1
 133 0 l 1xd0
 133 1062 l 1
 295 1062 l 1
 295 947 l 1
 326.288 1008.22 415.773 1077 533 1077 c 0
 598 1077 657 1061 710 1028 c 1
 648 861 l 1
 604 887 561 900 518 900 c 0xe0
EndSplineSet
KernsSLIFO: 18 -113 0 0 16 -113 0 0
EndChar
StartChar: s
Encoding: 85 115 87
Width: 1024
Flags: HW
HStem: -11 162<302.189 692.782> 925 161<338.125 688.8>
VStem: 63 178<243.073 358> 93 186<674.422 913.2> 760 185<185.1 528.3>
Fore
945 325 m 0xd8
 945 123.4 764.481 -11 517 -11 c 0
 247.252 -11 79.4862 118.951 63 358 c 1
 241 358 l 1xe8
 260.391 218.628 351.53 151 516 151 c 0
 651.986 151 760 213 760 306 c 0
 760 477 476.519 445.93 279 520 c 0
 130.481 574.838 93 698.786 93 780 c 0
 93 987 271.394 1086 484 1086 c 0
 834.709 1086 905 867.08 905 764 c 1
 729 764 l 1
 713.546 873.267 645 925 499 925 c 0
 375.25 925 279 882 279 778 c 0
 279 687 364.805 672.674 517 644 c 0
 728.399 604.051 945 568.18 945 325 c 0xd8
EndSplineSet
EndChar
StartChar: t
Encoding: 86 116 88
Width: 569
Flags: HW
HStem: -13 166<323.68 526.769> 2 159<446.25 554> 922 140<18 168 347 497>
VStem: 168 179<179.293 922 1062 1433>
Fore
347 301 m 2xb0
 347 207.379 352.6 153 449 153 c 0xb0
 466 153 492 156 528 161 c 1
 554 2 l 1x70
 506 -8 458 -13 411 -13 c 0
 202.65 -13 168 100 168 311 c 2
 168 922 l 1
 18 922 l 1
 18 1062 l 1
 168 1062 l 1
 168 1433 l 1
 347 1433 l 1
 347 1062 l 1
 497 1062 l 1
 497 922 l 1
 347 922 l 1
 347 301 l 2xb0
EndSplineSet
EndChar
StartChar: u
Encoding: 87 117 89
Width: 1139
Flags: HW
HStem: -10 211<388.948 697.676> 1065 20G<104 284 789 969>
VStem: 104 180<190.6 1085> 789 180<0 64 235 1085>
Fore
284 461 m 2
 284 253 422.422 201 534 201 c 4
 704 201 789 286 789 456 c 2
 789 1085 l 1
 969 1085 l 1
 969 0 l 1
 789 0 l 1
 789 64 l 1
 745.901 15.5808 661.52 -10 541 -10 c 0
 255 -10 103.136 164.249 104 412 c 2
 104 1085 l 1
 284 1085 l 1
 284 461 l 2
EndSplineSet
EndChar
StartChar: v
Encoding: 88 118 90
Width: 1024
Flags: W
HStem: 0 21G<429 599> 1042 20G<26 216 810 1000>
Fore
429 0 m 1
 26 1062 l 1
 216 1062 l 1
 520 269 l 1
 810 1062 l 1
 1000 1062 l 1
 599 0 l 1
 429 0 l 1
EndSplineSet
KernsSLIFO: 18 -152 0 0 16 -152 0 0
EndChar
StartChar: w
Encoding: 89 119 91
Width: 1479
Flags: W
HStem: 0 21G<331 519 975 1163> 1042 20G<6 192 648 832 1288 1463>
Fore
331 0 m 1
 6 1062 l 1
 192 1062 l 1
 424 246 l 1
 648 1062 l 1
 832 1062 l 1
 1069 246 l 1
 1288 1062 l 1
 1463 1062 l 1
 1163 0 l 1
 975 0 l 1
 901 265 l 1
 798 623 744 807 740 817 c 1
 519 0 l 1
 331 0 l 1
EndSplineSet
KernsSLIFO: 18 -113 0 0 16 -113 0 0
EndChar
StartChar: x
Encoding: 90 120 92
Width: 1024
Flags: W
HStem: 0 21G<15 233 788 1009> 1042 20G<44 269 766 981>
Fore
15 0 m 1
 396 552 l 1
 44 1062 l 1
 269 1062 l 1
 499 694 l 1
 766 1062 l 1
 981 1062 l 1
 607 562 l 1
 1009 0 l 1
 788 0 l 1
 505 419 l 1
 233 0 l 1
 15 0 l 1
EndSplineSet
EndChar
StartChar: y
Encoding: 91 121 93
Width: 1024
Flags: HW
HStem: -422 168<124.913 471.325> 1042 20G<33 227 826 1006>
VStem: 33 973<1062 1062>
Fore
127 -409 m 1
 107 -240 l 1
 141 -249 177 -254 214 -254 c 0
 411.942 -254 430.716 -111.202 436 -2 c 1
 33 1062 l 1
 227 1062 l 1
 525 201 l 1
 826 1062 l 1
 1006 1062 l 1
 602 -1 l 1
 583.245 -181.051 532 -422 239 -422 c 0
 197.48 -422 156.818 -420.782 127 -409 c 1
EndSplineSet
KernsSLIFO: 18 -152 0 0 16 -152 0 0
EndChar
StartChar: z
Encoding: 92 122 94
Width: 1024
Flags: W
HStem: 0 155<262 980> 916 146<60 716>
Fore
40 0 m 1
 40 155 l 1
 716 916 l 1
 60 916 l 1
 60 1062 l 1
 948 1062 l 1
 948 916 l 1
 262 155 l 1
 980 155 l 1
 980 0 l 1
 40 0 l 1
EndSplineSet
EndChar
StartChar: braceleft
Encoding: 93 123 95
Width: 684
Flags: HW
HStem: -431 157<338.5 636> 1334 157<403.5 636>
VStem: 264 166<-153.533 394.8 684.719 1436.1>
Fore
57 612 m 5
 251.238 633.739 264 757.015 264 998 c 4
 264 1335 280 1491 580 1491 c 6
 636 1491 l 5
 636 1334 l 5
 605 1334 l 6
 450 1334 430 1330 430 975 c 4
 430 685 383.876 619.719 224 530 c 5
 390.711 453.717 432.221 344.093 433 80 c 4
 441.934 -181.217 400 -274 605 -274 c 6
 636 -274 l 5
 636 -431 l 5
 580 -431 l 6
 280 -431 264 -261.687 264 49 c 4
 264 315 256.792 422.779 57 449 c 5
 57 612 l 5
EndSplineSet
EndChar
StartChar: bar
Encoding: 94 124 96
Width: 532
Flags: W
VStem: 188 157<-431 1491>
Fore
188 -431 m 1
 188 1491 l 1
 345 1491 l 1
 345 -431 l 1
 188 -431 l 1
EndSplineSet
EndChar
StartChar: braceright
Encoding: 95 125 97
Width: 684
Flags: HW
HStem: -431 157<47 344.5> 1334 157<47 279.5>
VStem: 253 166<-153.544 394.8 684.719 1436.1>
Fore
626 612 m 1
 431.762 633.739 419 757.015 419 998 c 0
 419 1335 403 1491 103 1491 c 2
 47 1491 l 1
 47 1334 l 1
 78 1334 l 2
 233 1334 253 1330 253 975 c 0
 253 685 299.123 619.719 459 530 c 1
 292.289 453.717 250.779 344.093 250 80 c 0
 241.066 -181.217 283 -274 78 -274 c 2
 47 -274 l 1
 47 -431 l 1
 103 -431 l 2
 403 -431 419 -261.687 419 49 c 0
 419 315 426.207 422.778 626 449 c 1
 626 612 l 1
EndSplineSet
EndChar
StartChar: asciitilde
Encoding: 96 126 98
Width: 1196
Flags: HW
HStem: 559 189<675.595 977.04> 693 189<215.5 557.961>
VStem: 87 1023<673 762 557 885>
Fore
348 693 m 0x60
 245.831 693 178.066 644.814 87 557 c 1
 87 762 l 1
 158 842 250 882 365 882 c 0x60
 558.531 882 716.304 748 852 748 c 0
 955.2 748 1055.1 825.53 1110 885 c 1
 1110 673 l 1
 1025.32 594.232 943.8 559 833 559 c 0xa0
 635.211 559 509.509 693 348 693 c 0x60
EndSplineSet
EndChar
StartChar: exclamdown
Encoding: 98 161 100
Width: 680
Flags: W
HStem: 0 21G<228 452> 1059 20G<256 422>
VStem: 238 204<1278 1489>
Fore
442 1278 m 1
 238 1278 l 1
 238 1489 l 1
 442 1489 l 1
 442 1278 l 1
452 0 m 1
 228 0 l 1
 256 1079 l 1
 422 1079 l 1
 452 0 l 1
EndSplineSet
EndChar
StartChar: cent
Encoding: 99 162 101
Width: 1118
Flags: HW
HStem: 1455 20G<557 671>
VStem: 114 193<156.952 974.04> 557 114<-361 1 146 971 1116 1475>
Fore
975 83 m 1
 806.663 4.70371 714.329 2.99978 671 1 c 1
 671 -361 l 1
 557 -361 l 1
 557 2 l 1
 255.868 37.7989 114 249.271 114 557 c 0
 114 877.8 281.354 1083.04 557 1115 c 1
 557 1475 l 1
 671 1475 l 1
 671 1116 l 1
 793.544 1111.77 903.424 1073.76 975 1037 c 1
 975 837 l 1
 965 837 l 1
 819.578 957.594 712.767 970.838 671 977 c 1
 671 141 l 1
 704.405 144.037 820.781 158.968 965 281 c 1
 975 281 l 1
 975 83 l 1
557 971 m 1
 494.027 959.55 307 907.452 307 557 c 0
 307 209.159 494.626 156.811 557 146 c 1
 557 971 l 1
EndSplineSet
EndChar
StartChar: sterling
Encoding: 100 163 102
Width: 1118
Flags: HW
HStem: 0 171<261 1031> 613 138<130 291 483 847> 1351 167<501.382 830.295>
VStem: 291 192<332.978 613 751 1232.29>
Fore
483 552 m 2
 483 330 322.215 217.854 261 182 c 1
 261 171 l 1
 1031 171 l 1
 1031 0 l 1
 89 0 l 1
 89 207 l 1
 252.574 255.63 291 397.598 291 613 c 1
 130 613 l 1
 130 751 l 1
 291 751 l 1
 291 1071 l 2
 291 1339.85 459.022 1518 708 1518 c 0
 788.727 1518 837.68 1516.06 1001 1470 c 1
 1001 1264 l 1
 991 1264 l 1
 903.328 1324.7 806.458 1351 727 1351 c 0
 553.448 1351 483 1232.29 483 1052 c 2
 483 751 l 1
 847 751 l 1
 847 613 l 1
 483 613 l 1
 483 552 l 2
EndSplineSet
EndChar
StartChar: currency
Encoding: 101 164 103
Width: 1118
Flags: HW
HStem: 326 138<469 652.04> 858 138<482.276 651.52>
VStem: 225 143<585.458 750.573> 752 144<586.397 752>
Fore
896 661 m 0
 896 608.403 880.942 545.285 843 486 c 1
 1057 272 l 1
 951 166 l 1
 737 378 l 1
 673.867 340.121 630.8 326 560 326 c 0
 490 326 426.063 353.336 385 379 c 1
 170 164 l 1
 65 273 l 1
 277 486 l 1
 239.533 545.506 225 612.815 225 661 c 0
 225 729.902 248.613 788.326 278 835 c 1
 65 1051 l 1
 172 1157 l 1
 386 944 l 1
 444.82 981.644 507.741 996 560 996 c 0
 630.4 996 692.362 970.786 736 945 c 1
 948 1157 l 1
 1057 1052 l 1
 843 836 l 1
 877.954 779.686 896 731 896 661 c 0
560 464 m 0
 659.638 464 752 547.413 752 661 c 0
 752 772.423 663.498 858 560 858 c 0
 460.361 858 368 774.587 368 661 c 0
 368 549.577 456.502 464 560 464 c 0
EndSplineSet
EndChar
StartChar: yen
Encoding: 102 165 104
Width: 1118
Flags: W
HStem: 0 21G<465 653> 440 138<125 465 651 993>
VStem: 465 188<0 440 578 678>
Fore
1059 1489 m 1
 651 678 l 1
 651 578 l 1
 993 578 l 1
 993 440 l 1
 653 440 l 1
 653 0 l 1
 465 0 l 1
 465 440 l 1
 125 440 l 1
 125 578 l 1
 467 578 l 1
 467 657 l 1
 56 1489 l 1
 266 1489 l 1
 560 850 l 1
 858 1489 l 1
 1059 1489 l 1
EndSplineSet
EndChar
StartChar: brokenbar
Encoding: 103 166 105
Width: 783
Flags: W
VStem: 308 167<-392 406 758 1556>
Fore
475 758 m 1
 308 758 l 1
 308 1556 l 1
 475 1556 l 1
 475 758 l 1
475 -392 m 1
 308 -392 l 1
 308 406 l 1
 475 406 l 1
 475 -392 l 1
EndSplineSet
EndChar
StartChar: section
Encoding: 104 167 106
Width: 1118
Flags: HW
HStem: -385 165<331.29 650.55> 1355 164<429.107 719.784>
VStem: 119 189<403.16 634.045> 148 192<993.48 1339.87> 776 193<-205 109.431> 810 188<490.722 757.728>
Fore
667 315 m 1xe4
 700.067 335.349 810 411 810 555 c 0
 810 710.945 707.24 744.844 549 788 c 2
 450 819 l 1
 323.928 741.417 308 624.302 308 579 c 0
 308 443.739 385.135 401.653 492 369 c 2
 667 315 l 1xe4
490 -385 m 0
 367.915 -385 262.974 -360.082 172 -327 c 1
 172 -133 l 1
 182 -133 l 1
 244.649 -166.167 369.824 -220 509 -220 c 0
 617.884 -220 776 -183.2 776 -36 c 0
 776 75.8701 711.013 120.568 594 154 c 2
 460 192 l 2
 286.683 241.939 119 307.619 119 533 c 0xe8
 119 610.727 144.313 751.714 318 858 c 1
 318 865 l 1
 249.492 902.062 148 977.8 148 1147 c 0
 148 1320.36 268.122 1519 628 1519 c 0
 755.2 1519 848.369 1496.75 946 1462 c 1
 946 1268 l 1
 936 1268 l 1
 764.557 1353.72 660.306 1355 607 1355 c 0
 470.159 1355 340 1302.05 340 1176 c 0
 340 1035.6 429.831 999.906 657 942 c 0
 863.431 886.616 998 805.274 998 601 c 0xd4
 998 516.171 972.559 381.135 799 277 c 1
 799 270 l 1
 871.876 231.049 969 158 969 -10 c 0xc8
 969 -160 865.729 -385 490 -385 c 0
EndSplineSet
EndChar
StartChar: dieresis
Encoding: 105 168 107
Width: 1118
Flags: W
HStem: 1304 195<253 454 666 867>
Fore
867 1304 m 1
 666 1304 l 1
 666 1499 l 1
 867 1499 l 1
 867 1304 l 1
454 1304 m 1
 253 1304 l 1
 253 1499 l 1
 454 1499 l 1
 454 1304 l 1
EndSplineSet
EndChar
StartChar: copyright
Encoding: 106 169 108
Width: 1902
Flags: HW
HStem: -210 110<682.9 1221.1> 180 147<845.6 1104.63> 996 147<845.6 1127.44> 1409 110<682.9 1221.1>
VStem: 86 117<383.3 926.7> 531 185<289.549 1034.26> 1701 115<383.3 926.7>
Fore
1816 655 m 0
 1816 416 1732 212 1562 44 c 0
 1394 -126 1190 -210 951 -210 c 0
 712 -210 508 -126 340 44 c 0
 170 212 86 416 86 655 c 0
 86 894 170 1097 340 1266 c 0
 508 1435 712 1519 951 1519 c 0
 1190 1519 1394 1435 1562 1266 c 0
 1732 1097 1816 894 1816 655 c 0
1701 655 m 0
 1701 864 1628 1042 1482 1188 c 0
 1335 1336 1159 1409 952 1409 c 0
 745 1409 569 1336 422 1188 c 0
 276 1042 203 864 203 655 c 0
 203 446 276 268 422 121 c 0
 569 -26 745 -100 952 -100 c 0
 1159 -100 1335 -26 1482 121 c 0
 1628 268 1701 446 1701 655 c 0
986 327 m 0
 1123.55 327 1238.2 415.788 1258 434 c 1
 1274 434 l 1
 1274 255 l 1
 1136.48 193.882 1076.33 180 982 180 c 0
 780.694 180 531 276 531 660 c 0
 531 973.053 718.032 1143 982 1143 c 0
 1098.8 1143 1202.26 1105.87 1274 1070 c 1
 1274 889 l 1
 1258 889 l 1
 1202.85 936.543 1094.8 996 986 996 c 0
 878 996 716 947.89 716 660 c 0
 716 375.038 878 327 986 327 c 0
EndSplineSet
EndChar
StartChar: ordfeminine
Encoding: 107 170 109
Width: 1010
Flags: HW
HStem: 541 155<281.486 513.334> 1365 154<377.391 675.885>
VStem: 114 172<746.69 1085.06> 708 166<566 657 802 1045 1184 1332.6>
Fore
483 1519 m 0
 777.519 1519 874 1389 874 1194 c 2
 874 566 l 1
 708 566 l 1
 708 657 l 1
 657 618 l 2
 559.465 548.332 471.742 541 404 541 c 0
 238.177 541 114 661.554 114 839 c 0
 114 1115 340.185 1166.27 708 1184 c 1
 708 1203 l 2
 708 1332.6 631.142 1365 482 1365 c 0
 424.633 1365 367.55 1360.61 204 1304 c 1
 189 1304 l 1
 189 1474 l 1
 221.161 1483.98 365.4 1519 483 1519 c 0
461 696 m 0
 509.189 696 586.339 702.459 708 802 c 1
 708 1045 l 1
 499.86 1030.48 286 1030.58 286 849 c 0
 286 770.3 322.913 696 461 696 c 0
EndSplineSet
EndChar
StartChar: guillemotleft
Encoding: 108 171 110
Width: 1174
Flags: W
Fore
1043 191 m 1
 555 610 l 1
 555 695 l 1
 1043 1113 l 1
 1043 925 l 1
 726 652 l 1
 1043 379 l 1
 1043 191 l 1
613 162 m 1
 103 608 l 1
 103 697 l 1
 613 1142 l 1
 613 946 l 1
 282 652 l 1
 613 358 l 1
 613 162 l 1
EndSplineSet
EndChar
StartChar: logicalnot
Encoding: 109 172 111
Width: 1490
Flags: W
HStem: 602 160<157 1152>
VStem: 1152 171<57 602>
Fore
1323 57 m 1
 1152 57 l 1
 1152 602 l 1
 157 602 l 1
 157 762 l 1
 1323 762 l 1
 1323 57 l 1
EndSplineSet
EndChar
StartChar: registered
Encoding: 111 174 113
Width: 1902
Flags: HW
HStem: -210 110<682.9 1221.1> 570 126<815 938> 1005 125<815 1052.39> 1409 110<682.9 1221.1>
VStem: 86 117<383.3 926.7> 650 165<215 570 696 1005> 1120 182<741.72 1028.22> 1701 115<383.3 926.7>
Fore
1816 655 m 0
 1816 416 1732 212 1562 44 c 0
 1394 -126 1190 -210 951 -210 c 0
 712 -210 508 -126 340 44 c 0
 170 212 86 416 86 655 c 0
 86 894 170 1097 340 1266 c 0
 508 1435 712 1519 951 1519 c 0
 1190 1519 1394 1435 1562 1266 c 0
 1732 1097 1816 894 1816 655 c 0
1701 655 m 0
 1701 864 1628 1042 1482 1188 c 0
 1335 1336 1159 1409 952 1409 c 0
 745 1409 569 1336 422 1188 c 0
 276 1042 203 864 203 655 c 0
 203 446 276 268 422 121 c 0
 569 -26 745 -100 952 -100 c 0
 1159 -100 1335 -26 1482 121 c 0
 1628 268 1701 446 1701 655 c 0
1302 879 m 0
 1302 773.4 1252.99 676.419 1102 615 c 1
 1448 215 l 1
 1221 215 l 1
 938 570 l 1
 815 570 l 1
 815 215 l 1
 650 215 l 1
 650 1130 l 1
 929 1130 l 2
 1005.96 1130 1302 1146.49 1302 879 c 0
913 696 m 2
 1073.76 696 1120 764.8 1120 868 c 0
 1120 991.248 1024.14 1005 930 1005 c 2
 815 1005 l 1
 815 696 l 1
 913 696 l 2
EndSplineSet
EndChar
StartChar: macron
Encoding: 112 175 114
Width: 1118
Flags: W
HStem: 1659 130<-16 1134>
Fore
1134 1659 m 1
 -16 1659 l 1
 -16 1789 l 1
 1134 1789 l 1
 1134 1659 l 1
EndSplineSet
EndChar
StartChar: degree
Encoding: 113 176 115
Width: 964
Flags: HW
HStem: 755 152<325.547 656.72> 1363 152<311.217 644.211>
VStem: 101 157<958.511 1300.21> 706 157<976.384 1308.9>
Fore
482 1515 m 4
 694.666 1515 863 1354.17 863 1135 c 4
 863 916.525 695.311 755 482 755 c 4
 270.225 755 101 914.493 101 1135 c 4
 101 1353.47 268.689 1515 482 1515 c 4
482 907 m 4
 616.4 907 706 1012.99 706 1135 c 4
 706 1268.77 606.777 1363 482 1363 c 4
 350.628 1363 258 1262.09 258 1135 c 4
 258 999.239 361.651 907 482 907 c 4
EndSplineSet
EndChar
StartChar: plusminus
Encoding: 114 177 116
Width: 1490
Flags: W
HStem: 159 158<162 662 828 1328> 739 158<162 662 828 1328>
VStem: 662 166<317 739 897 1402>
Fore
1328 159 m 1
 162 159 l 1
 162 317 l 1
 662 317 l 1
 662 739 l 1
 162 739 l 1
 162 897 l 1
 662 897 l 1
 662 1402 l 1
 828 1402 l 1
 828 897 l 1
 1328 897 l 1
 1328 739 l 1
 828 739 l 1
 828 317 l 1
 1328 317 l 1
 1328 159 l 1
EndSplineSet
EndChar
StartChar: uni00B2
Encoding: 115 178 117
Width: 1010
Flags: HW
HStem: 566 144<373 866> 1371 148<345.468 550.6>
VStem: 619 185<1011.76 1376.76>
Fore
481 1519 m 0
 738.306 1519 804 1353.71 804 1239 c 0
 804 1064.2 684.346 945.307 496 802 c 2
 373 710 l 1
 866 710 l 1
 866 566 l 1
 185 566 l 1
 185 718 l 1
 332 832 l 2
 438.933 914.928 619 1055 619 1227 c 0
 619 1342.2 529 1371 457 1371 c 0
 351.9 1371 246.611 1310.59 206 1279 c 1
 191 1279 l 1
 191 1458 l 1
 268.232 1491.1 376.744 1519 481 1519 c 0
EndSplineSet
EndChar
StartChar: uni00B3
Encoding: 116 179 118
Width: 1010
Flags: HW
HStem: 542 139<345.417 576.003> 968 139<334 595.914> 1380 139<347.674 660.2>
VStem: 641 173<1122.95 1317.12> 665 172<679.28 969.74>
Fore
640 1047 m 1xf0
 740.933 1026.05 837 959.4 837 828 c 0
 837 713.6 767.528 542 474 542 c 0
 394.347 542 289.628 553.327 184 600 c 1
 184 775 l 1
 201 775 l 1
 250.221 729.716 358.044 681 471 681 c 0
 551.772 681 665 710 665 826 c 0xe8
 665 936.57 590.641 968 474 968 c 2
 334 968 l 1
 334 1107 l 1
 459 1107 l 2
 564.318 1107 641 1152.04 641 1249 c 0
 641 1301.4 616.769 1380 472 1380 c 0
 371.188 1380 258.106 1321.74 216 1283 c 1
 199 1283 l 1
 199 1458 l 1
 279.996 1491.91 380.98 1519 492 1519 c 0
 737.142 1519 814 1377.52 814 1281 c 0
 814 1145.4 719.71 1081.57 640 1055 c 1
 640 1047 l 1xf0
EndSplineSet
EndChar
StartChar: acute
Encoding: 117 180 119
Width: 1118
Flags: W
Fore
871 1676 m 1
 598 1302 l 1
 449 1302 l 1
 628 1676 l 1
 871 1676 l 1
EndSplineSet
EndChar
StartChar: mu
Encoding: 118 181 120
Width: 1163
Flags: HW
HStem: -17 181<445.648 685.277>
VStem: 136 188<-412 115 275 1117> 839 188<275 1117> 855 172<0 116>
Fore
578 164 m 0xd0
 690.464 164 769.354 198.825 839 275 c 1
 839 1117 l 1
 1027 1117 l 1xe0
 1027 0 l 1
 855 0 l 1
 855 116 l 1
 849 116 l 1
 738.82 0.310537 660.521 -17 578 -17 c 0
 476.19 -17 417.838 11.0173 324 115 c 1
 324 -412 l 1
 136 -412 l 1
 136 1117 l 1
 324 1117 l 1
 324 275 l 1
 388.431 199.063 474.358 164 578 164 c 0xd0
EndSplineSet
EndChar
StartChar: paragraph
Encoding: 119 182 121
Width: 1118
Flags: HW
HStem: 1359 130<655 842>
VStem: 515 140<-363 593> 842 140<-363 1359>
Fore
57 1050 m 4
 57 1339.52 249.566 1489 560 1489 c 6
 982 1489 l 5
 982 -363 l 5
 842 -363 l 5
 842 1359 l 5
 655 1359 l 5
 655 -363 l 5
 515 -363 l 5
 515 593 l 5
 240.398 599.013 57 775.343 57 1050 c 4
EndSplineSet
EndChar
StartChar: periodcentered
Encoding: 120 183 122
Width: 724
Flags: W
VStem: 243 239<832 1117>
Fore
482 832 m 1
 243 832 l 1
 243 1117 l 1
 482 1117 l 1
 482 832 l 1
EndSplineSet
EndChar
StartChar: cedilla
Encoding: 121 184 123
Width: 1118
Flags: HW
HStem: -423 150<365.443 597.791>
VStem: 614 159<-262.526 50.7505>
Fore
614 -107 m 0
 614 -56.2 613.418 -68.8702 610 20 c 1
 767 20 l 1
 769.643 -11.7217 773 -60.9227 773 -89 c 0
 773 -355.241 591.214 -423 466 -423 c 0
 430.6 -423 356.701 -419.06 289 -399 c 1
 289 -239 l 1
 298 -239 l 1
 343.392 -258.859 389.585 -273 440 -273 c 0
 561.378 -273 614 -226.636 614 -107 c 0
EndSplineSet
EndChar
StartChar: uni0E01
Encoding: 122 3585 124
Width: 1240
Flags: W
HStem: 0 21G<188 348 922 1082> 989 160<444.6 858>
VStem: 188 160<0 531.3> 922 160<0 942.3>
Fore
1082 671 m 2
 1082 0 l 1
 922 0 l 1
 922 655 l 2
 922 876 804 989 624 989 c 0
 486 989 377 938 296 823 c 1
 380 802 443 748 486 661 c 1
 394 596 348 496 348 361 c 2
 348 0 l 1
 188 0 l 1
 188 361 l 2
 188 492 231 595 316 669 c 1
 268 738 202 778 118 790 c 1
 215 1026 384 1149 624 1149 c 0
 932 1149 1082 968 1082 671 c 2
EndSplineSet
EndChar
StartChar: uni0E02
Encoding: 123 3586 125
Width: 1400
Flags: W
HStem: 0 164<707 1057> 545 113<235.5 378.5> 823 102<313 376.7> 995 154<368.9 666.857>
VStem: 96 130<677.3 817.7> 392 104<673.4 804.7> 547 160<164 677.7> 681 153<771 896.503> 1057 160<164 1139>
Fore
307 658 m 0xfc80
 362 658 392 689 392 741 c 0
 392 790 362 823 313 823 c 0
 259 823 226 800 226 741 c 0
 226 692 252 658 307 658 c 0xfc80
96 797 m 0
 96 908 176 1149 460 1149 c 0
 619.121 1149 831.674 1075.67 834 771 c 1xfd80
 751 718 707 654 707 575 c 2
 707 164 l 1
 1057 164 l 1
 1057 1139 l 1
 1217 1139 l 1
 1217 0 l 1
 547 0 l 1
 547 575 l 2xfe80
 547 658 597 730 681 783 c 1xfd80
 679.697 870.31 636 995 456 995 c 0
 389 995 345 970 323 925 c 1
 430 924 496 864 496 765 c 0
 496 616 432 545 298 545 c 0
 164.816 545 96 635.988 96 797 c 0
EndSplineSet
EndChar
StartChar: uni0E03
Encoding: 124 3587 126
Width: 1450
Flags: MW
HStem: 0 164<784 1134> 507 116<251.8 384.4> 790 104.385<296.317 384.4> 881 160<519 519> 979 171<360 360>
VStem: 106 133<641 773.6> 398 104<652.2 766.6> 624 160<164 676.7> 756 155.978<798 895.5> 1134 160<164 1139>
Fore
322 623 m 0
 370 623 398 666 398 712 c 0
 398 754 370 790 322 790 c 0
 265 790 239 758 239 706 c 0
 239 656 268 623 322 623 c 0
502 727 m 0
 502 580.964 431.564 507 303 507 c 0
 184 507 106 586 106 726 c 0
 106 930 189 1079 360 1150 c 1
 360 1149 413 1113 519 1041 c 1
 663 1149 l 5
 782.296 1129.37 911.978 965.877 911.978 806.685 c 0
 911.978 798.773 911.658 790.872 911 783 c 1
 826 721 784 656 784 587 c 2
 784 164 l 1
 1134 164 l 1
 1134 1139 l 1
 1294 1139 l 1
 1294 0 l 1
 624 0 l 1
 624 587 l 2
 624 670 667 738 756 798 c 1
 756 873 725 934 663 979 c 5
 663 978 615 946 519 881 c 1
 360 979 l 1
 329 958 310 927 301 886 c 1
 315.862 891.573 331.138 894.385 346.931 894.385 c 0
 440 894.385 502 836 502 727 c 0
EndSplineSet
EndChar
StartChar: uni0E04
Encoding: 125 3588 127
Width: 1370
Flags: W
HStem: 0 21G<245 455 1035 1195> 342.306 117.694<670.7 811.1> 625 121.013<672.8 809.3> 989 160<370.3 989.1>
VStem: 163 161<493.9 920.3> 822 98<487.1 601.5> 1035 160<0 917.8>
Fore
720.031 746.013 m 0
 880.006 746.013 915.745 643.764 920 553 c 0
 916.32 404.584 822.764 342.306 734.224 342.306 c 0
 672.901 342.306 613.985 372.179 589 424 c 1
 536 319 492 177 455 0 c 1
 245 0 l 1
 245 108 l 2
 242.255 313.874 163 447 163 673 c 0
 164 970 335 1149 676 1149 c 0
 1018 1149 1195 974 1195 651 c 2
 1195 0 l 1
 1035 0 l 1
 1035 650 l 2
 1035 856 918 989 681 989 c 0
 442 989 324 857 324 646 c 0
 326 529 345 399 380 256 c 1
 443.074 700.258 650.833 746.013 720.031 746.013 c 0
737 460 m 0
 794 460 822 500 822 543 c 0
 822 588 794 625 743 625 c 0
 689 625 656 596 656 543 c 0
 656 494 686 460 737 460 c 0
EndSplineSet
EndChar
StartChar: uni0E05
Encoding: 126 3589 128
Width: 1370
Flags: MW
HStem: 0 21G<235 445 1025 1185> 342.365 117.635<663.3 793.3> 625 121<662.8 796.7> 868 160<677 682> 981 168<502 519>
VStem: 153 161<496.1 874.4> 812 98<475.4 604.1> 1025 160<0 875.8>
Fore
235 108 m 2
 233.045 254.628 153 484.129 153 683 c 0
 154 938 271 1094 502 1149 c 1
 677 1028 l 1
 842 1149 l 5
 1069 1091 1184 928 1185 661 c 2
 1185 0 l 1
 1025 0 l 1
 1025 660 l 2
 1025 826 961 933 833 981 c 5
 682 868 l 1
 519 981 l 1
 382 932 314 824 314 656 c 0
 316 533 335 399 370 256 c 1
 433.529 703.462 643.6 746 712 746 c 0
 838 746 910 674 910 553 c 0
 910 406.687 814.13 342.365 723.577 342.365 c 0
 662.781 342.365 604.38 371.359 579 424 c 1
 526 319 482 177 445 0 c 1
 235 0 l 1
 235 108 l 2
727 460 m 0
 778 460 812 491 812 543 c 0
 812 590 782 625 733 625 c 0
 679 625 646 586 646 543 c 0
 646 494 678 460 727 460 c 0
EndSplineSet
EndChar
StartChar: uni0E06
Encoding: 127 3590 129
Width: 1520
Flags: MW
HStem: -10.0312 118.749<564.27 632.321> 328 118<555.596 644> 508 112<251.2 396.8> 789 99.127<303.694 398.2> 881 160<530 530> 979 170<371 371>
VStem: 113 131<649.5 770.4> 408 110<639.2 758.8> 434 108<119.962 268.9> 635 160<446 663> 644 150<116.979 243> 760 162<783 908.9> 1205 160<166 1139>
Fore
324 620 m 0
 380 620 408 656 408 712 c 0
 408 748 382 789 328 789 c 0
 276 789 244 756 244 708 c 0
 244 663 268 620 324 620 c 0
794 146 m 2
 794 41.764 739.6 -10.0312 632.321 -10.0312 c 0
 515.526 -10.0312 434 84.8378 434 218 c 0
 434 315.755 492.317 443.699 635 446 c 1
 635 587 l 2
 635 668 677 743 760 814 c 1
 760 887 731 942 674 979 c 5
 530 881 l 1
 371 979 l 1
 342 961 322 930 312 886 c 1
 321.968 887.424 331.9 888.127 341.713 888.127 c 0
 435.266 888.127 518 824.228 518 712 c 0
 518 596 464 508 325 508 c 0
 190 508 113 604 113 765 c 0
 113 945.148 217.558 1084.3 371 1149 c 1
 530 1041 l 1
 674 1149 l 5
 839 1074 922 952 922 783 c 1
 837 728 795 663 795 587 c 2
 795 409 l 1
 1205 166 l 1
 1205 1139 l 1
 1365 1139 l 1
 1365 0 l 1
 1205 0 l 1
 794 243 l 1
 794 146 l 2
644 328 m 1
 575.997 328 542 253.462 542 202 c 0
 542 138.894 572.573 108.718 600.25 108.718 c 0
 622.541 108.718 642.953 128.292 644 166 c 2
 644 328 l 1
EndSplineSet
EndChar
StartChar: uni0E07
Encoding: 128 3591 130
Width: 1000
Flags: HW
HStem: -10 160<437.3 676.5> 741 113<557.6 670.458> 1021 129<558 681.5>
VStem: 439 100<881.5 1005> 694 161<170.6 770> 703 152<879 1005.1>
Fore
855 272 m 2xf8
 855 85 754 -10 553 -10 c 0
 374 -10 265 84 227 272 c 2
 145 719 l 1
 326 640 l 1
 388 272 l 2
 409 193 464 150 553 150 c 0
 648 150 694 194 694 272 c 2
 694 770 l 1xf8
 678 751 648 741 605 741 c 0
 501 741 439 813.983 439 935 c 0
 439 1059 519.985 1150 651 1150 c 0
 780 1150 855 1050 855 881 c 2xf4
 855 272 l 2xf8
620 854 m 0
 672 854 703 894 703 944 c 0xf4
 703 991 668 1021 623 1021 c 0
 573 1021 539 990 539 940 c 0
 539 895 572 854 620 854 c 0
EndSplineSet
EndChar
StartChar: uni0E08
Encoding: 129 3592 131
Width: 1200
Flags: HW
HStem: -10 160<645.3 852> 345 110<335.1 447.547> 623 130<338 466.7> 989 160<379.3 807>
VStem: 214 105<483.5 607> 469 160<168.6 373> 483 145<468 600.6> 868 160<167.2 880>
Fore
629 283 m 6xfd
 629 195 669 151 748 150 c 4
 828 150 868 193 868 279 c 6
 868 715 l 6
 868 880 753 989 573 989 c 4
 424 989 295 938 186 843 c 5
 96 912 l 5
 232 1067 391 1149 573 1149 c 4
 860 1149 1028 1003 1028 740 c 6
 1028 279 l 6
 1028 87 935 -9 748 -10 c 4
 562 -10 469 88 469 283 c 6
 469 373 l 5xfd
 457 357 432 345 393 345 c 4
 296 345 214 418 214 537 c 4
 214 672 296 753 426 753 c 4
 561 753 629 671 628 512 c 6xfb
 629 283 l 6xfd
391 455 m 4
 451 455 483 486 483 546 c 4xfb
 483 588 452 623 403 623 c 4
 353 623 319 592 319 542 c 4
 319 497 348 455 391 455 c 4
EndSplineSet
EndChar
StartChar: uni0E09
Encoding: 130 3593 132
Width: 1395
Flags: HW
HStem: -10 113<1103 1185.9> 362 111<267.7 380.054> 641 130<268 388.9> 986 163<461.1 899.2>
VStem: 146 103<501.5 630.2> 399 160<176 391> 413 146<486 625.1> 944 160<446 932.1> 945 150<111.8 227> 1197 108<122.7 300.8>
Fore
1103 -10 m 0xfd40
 1008.38 -10 936.805 57.6303 945 227 c 1
 559 0 l 1xfac0
 399 0 l 1
 399 391 l 1xfc40
 381 369 360 362 324 362 c 0
 208 362 147 446 146 571 c 0
 155 704 225 770 356 771 c 0
 491 766 559 676 559 502 c 2xfa40
 559 176 l 1
 944 409 l 1
 944 715 l 2
 944 882 838 986 634 986 c 0
 501 986 377 938 262 843 c 1
 172 912 l 1
 309 1069 463 1149 634 1149 c 0
 938 1149 1105 1003 1104 740 c 2
 1104 446 l 1
 1236 431 1305 351 1305 205 c 0
 1305 66 1235 -9 1103 -10 c 0xfd40
1095 328 m 1
 1095 156 l 2
 1095 122 1113.98 103 1143 103 c 0
 1176 103 1197 141 1197 202 c 0
 1197 278 1163 317 1095 328 c 1
321 473 m 0
 381 473 412 504 413 564 c 0
 413 611 376 641 333 641 c 0
 283 641 249 614 249 560 c 0
 249 515 280 473 321 473 c 0
EndSplineSet
EndChar
StartChar: uni0E0A
Encoding: 131 3594 133
Width: 1390
Flags: W
HStem: 0 164<742 1048> 545 113<272.5 415.5> 823 102<350 413.7> 1005 144<424.9 634.2>
VStem: 133 130<677.3 817.7> 429 104<673.4 804.7> 582 160<164 673.4> 1048 160<164 663.8> 1137 167<1018.7 1188>
Fore
133 797 m 0xff
 133 912 206.362 1149 497 1149 c 0
 648 1149 769 1072 841 921 c 1
 1038 972 1137 1052 1137 1163 c 2
 1137 1188 l 1
 1303 1188 l 1
 1304 1161 l 2xfe80
 1309 1028 1198 905 1015 858 c 1
 1127 811 1208 692 1208 589 c 2
 1208 0 l 1
 582 0 l 1
 582 575 l 2
 582 655 625 726 711 789 c 1
 688 920 606 1005 512 1005 c 0
 445 1005 381.997 969.901 360 925 c 1
 467 925 533 870 533 765 c 0
 533 622 472 545 335 545 c 0
 202 545 133 636 133 797 c 0xff
742 572 m 2
 742 164 l 1
 1048 164 l 1
 1048 578 l 2xff
 1048 644 973 738 870 768 c 1
 786 715 743 650 742 572 c 2
344 658 m 0
 399 658 429 689 429 741 c 0
 429 790 399 823 350 823 c 0
 296 823 263 800 263 741 c 0
 263 692 289 658 344 658 c 0
EndSplineSet
EndChar
StartChar: uni0E0B
Encoding: 132 3595 134
Width: 1390
Flags: MW
HStem: 0 164<747 1053> 507 116<219.8 352.4> 790 104<262.515 352.4> 881 160<490 490> 979 171<632 632>
VStem: 70 129<641.6 766.4> 366 104<652.2 766.6> 587 160<164 667.3> 1053 160<164 683.7> 1141 166<1003.1 1188>
Fore
290 623 m 0xe7
 338 623 366 666 366 712 c 0
 366 754 338 790 290 790 c 0
 233 790 199 752 199 704 c 0
 199 656 236 623 290 623 c 0xe7
470 727 m 0
 470 581 400 507 271 507 c 0
 165 507 70 600 70 726 c 0
 70 930 150 1084 331 1150 c 1
 331 1149 384 1113 490 1041 c 1
 632 1150 l 1
 734 1116 805 1039 845 921 c 1
 1042 957 1141 1040 1141 1163 c 2
 1141 1188 l 1
 1307 1188 l 1
 1307 1164 l 2xe740
 1307 1024 1201 908 1018 861 c 1
 1130 814 1213 696 1213 592 c 2
 1213 0 l 1xe780
 587 0 l 1
 587 575 l 2
 587 646 631 713 718 776 c 1
 716 873 687 941 632 979 c 1
 490 881 l 1
 328 979 l 1
 297 958 278 927 269 886 c 1
 284 892 299 894 315 894 c 0
 403 894 470 831 470 727 c 0
1053 581 m 2xe780
 1053 660 976 741 873 771 c 1
 789 718 747 653 747 575 c 2
 747 164 l 1
 1053 164 l 1
 1053 581 l 2xe780
EndSplineSet
EndChar
StartChar: uni0E0C
Encoding: 133 3596 135
Width: 1750
Flags: W
HStem: -11 116<351.7 486.9> 273 124<374.637 483.3> 989 160<438.2 891.9>
VStem: 191 142<133.5 258> 191 160<369 535.6> 497 107<118 248> 724 108<126.1 300.3> 925 160<446 936.5> 934 150<117.4 243> 1495 160<176 1139>
Fore
925 657 m 2xe740
 925 872 831 989 628 989 c 0
 482 989 373 934 300 825 c 1
 379 808 442 754 489 663 c 1
 397 592 351 505 351 403 c 2
 351 369 l 1xef40
 367 387 392 396 427 397 c 0
 553 396 604 321 604 213 c 0
 604 44 521 -10 394 -11 c 0
 259 -4 191 86 191 258 c 2xf640
 191 403 l 2
 191 508 234 598 320 671 c 1
 293 730 227 770 122 792 c 1
 227 1030 396 1149 628 1149 c 0
 927 1149 1084 986 1085 673 c 2
 1085 409 l 1xef40
 1495 176 l 1
 1495 1139 l 1
 1655 1139 l 1
 1655 0 l 1
 1495 0 l 1
 1084 243 l 1
 1084 146 l 2xe6c0
 1084 52 1026 -8 926 -10 c 0
 797 -7 724 65 724 205 c 0
 724 357 797 435 925 446 c 1
 925 657 l 2xe740
934 328 m 1xe6c0
 867 326 832 279 832 208 c 0
 832 145 850 116 886 109 c 0
 917 103 933 130 934 172 c 2
 934 328 l 1xe6c0
405 105 m 0
 468 105 497 136 497 196 c 0
 497 236 468 273 417 273 c 0
 367 273 333 236 333 192 c 0xf640
 333 147 364 105 405 105 c 0
EndSplineSet
EndChar
StartChar: uni0E0D
Encoding: 134 3597 136
Width: 1745
Flags: W
HStem: -466 117.607<1152.08 1424.04> -143 82<1011.9 1121.1> -11 116<314.5 451> 0 176<1053 1463> 273 124<342.637 446.1> 989 160<406.2 840.4>
VStem: 159 142<133.5 258> 159 160<369 535.6> 465 107<125.8 257.1> 893 160<176 936.5> 900 98<-269.6 -151.3> 1144 88<-269.6 -156.5> 1463 160<176 1139>
Fore
1071 -61 m 0xccb8
 1166 -61 1232 -126 1232 -214 c 0
 1232 -278 1215 -316 1167 -345 c 1
 1185.59 -347.263 1203.43 -348.393 1220.51 -348.393 c 0
 1377.07 -348.393 1470.15 -253.44 1499 -65 c 1
 1615 -65 l 1
 1606 -322 1462 -466 1206 -466 c 0
 1023 -466 900 -358 900 -248 c 0
 900 -130 957 -61 1071 -61 c 0xccb8
998 -215 m 0
 998 -257 1022 -287 1072 -287 c 0
 1122 -287 1144 -257 1144 -215 c 0
 1144 -170 1110 -143 1073 -143 c 0
 1026 -143 998 -166 998 -215 c 0
EndSplineSet
Refer: 256 63247 N 1 0 0 1 0 0 2
Substitution: 0 65534 'nds0' uni0E0D.descless
Substitution: 0 65534 'ndsc' uni0E0D.descless
EndChar
StartChar: uni0E0E
Encoding: 135 3598 137
Width: 1375
Flags: W
HStem: -413 125<502.371 636.7> -112 104<548.2 689.247> -10 122<204.9 331> 280 119<201.3 304.179> 990 160<596.7 1012.7>
VStem: 76 105<140.5 260.1> 330 160<370 535.3> 339 136<-284 -148.8> 345 145<126.3 259> 1064 160<-209 869>
AnchorPoint: "BelowBase" 1224 -453 basechar 0
Fore
1064 -209 m 1xdd40
 1064 658 l 2
 1064 869 956 990 767 990 c 0
 636 990 527 937 439 826 c 1
 524 801 587 747 628 664 c 1
 536 591 490 505 490 404 c 2xde40
 490 259 l 2xdcc0
 490 84 420 -10 285 -10 c 0
 154 -10 76 59 76 198 c 0
 76 312 144 399 246 399 c 0
 283 399 311 389 330 370 c 1
 330 404 l 2xbe40
 330 516 374 603 459 672 c 1
 422 731 356 771 261 793 c 1
 365 1031 534 1150 767 1150 c 0
 1052 1150 1224 986 1224 674 c 2
 1224 -410 l 1
 1064 -410 l 1
 1001 -319 926 -248 839 -196 c 1
 769 -339 666 -413 530 -413 c 0
 404 -413 339 -360 339 -257 c 0
 339 -104 520 -8 647 -8 c 0
 692 -8 735 -18 774 -34 c 1
 867 140 l 1
 973 105 l 1
 882 -76 l 1
 945 -103 1006 -148 1064 -209 c 1xdd40
547 -288 m 0
 616 -288 709 -224 733 -147 c 1
 701 -123 668 -112 634 -112 c 0
 568 -112 475 -168 475 -232 c 0xdd40
 475 -272 514 -288 547 -288 c 0
253 112 m 0xbcc0
 313 112 345 144 345 203 c 0
 345 246 319 280 265 280 c 0
 216 280 181 246 181 199 c 0
 181 154 216 112 253 112 c 0xbcc0
EndSplineSet
EndChar
StartChar: uni0E0F
Encoding: 136 3599 138
Width: 1375
Flags: W
HStem: -413 125<341.813 515.3> -121 112<381 555.757> -10 122<193.9 334.3> 280 120<202 306.002> 990 160<592.8 1021.8>
VStem: 79 104<140.5 267.9> 197 132<-294.8 -157> 330 160<370 547> 347 143<125 261.5> 1064 160<-209 857>
AnchorPoint: "BelowBase" 1224 -453 basechar 0
Fore
1064 -209 m 1xdf40
 1064 658 l 2
 1064 857 963 990 767 990 c 0
 633 990 524 935 439 826 c 1
 536 795 599 741 628 664 c 1
 536 601 490 514 490 404 c 2xdf40
 490 259 l 2
 490 83 422 -10 287 -10 c 0xbec0
 152 -10 79 68 79 221 c 0
 79 308 148 400 231 400 c 0
 277 400 310 393 330 370 c 1
 330 404 l 2
 331 518 374 607 459 672 c 1
 410 743 344 783 261 793 c 1
 370 1030 538 1150 767 1150 c 0
 1065 1150 1224 985 1224 674 c 2
 1224 -410 l 1
 1064 -410 l 1
 928 -252 l 1
 812 -362 l 1
 776 -287 735 -234 689 -203 c 1
 648 -328 520 -413 385 -413 c 0
 256 -413 197 -357 197 -257 c 0
 197 -118 348 -9 515 -9 c 0
 560 -9 598 -18 629 -34 c 1
 722 140 l 1
 828 105 l 1
 737 -76 l 1
 769 -97 794 -124 812 -156 c 1
 928 -38 l 1
 1064 -209 l 1xdf40
397 -288 m 0
 488 -288 574 -211 588 -147 c 1
 561 -130 531 -121 498 -121 c 0
 408 -121 329 -178 329 -248 c 0
 329 -284 371 -288 397 -288 c 0
255 112 m 0xbec0
 316 112 347 143 347 203 c 0
 347 248 320 280 267 280 c 0
 217 280 183 252 183 199 c 0
 183 154 208 112 255 112 c 0xbec0
EndSplineSet
EndChar
StartChar: uni0E10
Encoding: 137 3600 139
Width: 1130
Flags: W
HStem: -532 71<173.724 315.9> -413 129<631.1 727.3> -347 75<174 361.18> -276 62<678.3 770.155> -102 68<688.1 777.8> -10 160<533 741> 290 113<211.3 338.112> 571 126<222 353.3> 913.455 151.485<786.127 986.995> 998.167 150.833<464.646 815.477>
VStem: 64 92<-437 -373.3> 102 101<431.5 560.2> 357 160<167.3 317> 367 150<416 559> 598 74<-200.9 -113.8> 757 160<194 649.445> 785 140<-223 -124.5>
Fore
772 -329 m 1xcf2280
 772 -262 l 1
 762 -271 744 -276 718 -276 c 0
 646 -276 598 -226 598 -153 c 0
 598 -78 650 -34 743 -34 c 0
 864 -34 925 -97 925 -223 c 2
 925 -530 l 1
 775 -530 l 1
 754 -455 720 -416 674 -413 c 0xdf2280
 627 -414 589 -453 560 -529 c 1
 535 -463 504 -422 466 -406 c 1
 402 -490 320 -532 220 -532 c 0
 134 -532 64 -488 64 -425 c 0
 64 -328 162 -272 269 -272 c 0xaf2280
 312 -272 362 -280 418 -294 c 1
 470 -208 l 1
 558 -230 l 1
 502 -324 l 1
 529 -335 547 -349 558 -368 c 1
 603 -312 641 -284 674 -284 c 0
 715 -284 748 -299 772 -329 c 1xcf2280
731 -102 m 0
 698 -102 672 -124 672 -158 c 0
 672 -191 690 -214 729 -214 c 0
 764 -214 785 -191 785 -157 c 0
 785 -132 767 -102 731 -102 c 0
156 -437 m 0
 156 -448 194 -461 221 -461 c 0
 294 -461 371 -418 386 -362 c 1
 345 -352 309 -347 278 -347 c 0xaf22
 198 -347 156 -388 156 -437 c 0
EndSplineSet
Refer: 241 63232 S 1 0 0 1 0 0 2
Substitution: 0 65534 'nds0' uni0E10.descless
Substitution: 0 65534 'ndsc' uni0E10.descless
EndChar
StartChar: uni0E11
Encoding: 138 3601 140
Width: 1700
Flags: MW
HStem: 0 21G<636 838 1374 1534> 508 112<251.2 396.8> 789 99.127<303.694 398.2> 881 160<530 530> 945 204<1309.42 1339.5> 979 170<371 371>
VStem: 113 131<650.8 770.4> 408 110<639.2 758.8> 636 159<263 676.7> 1374 160<0 918.1>
Fore
324 620 m 0
 380 620 408 656 408 712 c 0
 408 748 382 789 328 789 c 0
 276 789 244 756 244 708 c 0
 244 664 268 620 324 620 c 0
530 1041 m 1
 674 1149 l 1
 823 1076 906 954 922 783 c 1
 838 727 795 656 795 587 c 2
 795 263 l 1
 1132 1003 l 2
 1173 1100 1241 1149 1338 1149 c 0
 1452 1149 1534 1067 1534 923 c 2
 1534 0 l 1
 1374 0 l 1
 1374 870 l 2
 1374 917 1356 945 1323 945 c 0
 1295.83 945 1272 924 1250 875 c 2
 838 0 l 1
 636 0 l 1
 636 587 l 2
 636 668 675 736 758 796 c 1
 755 872 727 933 674 979 c 1
 530 881 l 1
 371 979 l 1
 342 961 322 930 312 886 c 1
 321.968 887.424 331.9 888.127 341.713 888.127 c 0
 435.266 888.127 518 824.228 518 712 c 0
 518 596 464 508 325 508 c 0
 190 508 113 600 113 765 c 0
 113 945.148 217.558 1084.3 371 1149 c 1
 530 1041 l 1
EndSplineSet
EndChar
StartChar: uni0E12
Encoding: 139 3602 141
Width: 1850
Flags: HMW
HStem: -10 113<898.646 994> 356.946 97.054<481.2 545.538> 622 123<475 602.4> 863 170<643 643> 979 170<479 479>
VStem: 121 162.397<580.622 871.072> 359 97<482.5 612.5> 620 119<467 600.9> 792 108<127.9 308.6> 993 160<101 243 446 896.5> 1530 160<160 1139>
Fore
499.902 356.946 m 0
 445.78 356.946 359 398.096 359 536 c 0
 359 668 444 745 553 745 c 0
 672 745 739 676 739 541 c 0
 739 348 622 167 389 0 c 1
 204 0 l 1
 204 108 l 2
 201.205 331.593 121 490.431 121 702 c 0
 121 915 240 1076 479 1149 c 1
 643 1033 l 1
 816 1149 l 5
 1041 1099 1153 942 1153 677 c 2
 1153 409 l 1
 1530 160 l 1
 1530 1139 l 1
 1690 1139 l 1
 1690 0 l 1
 1528 0 l 1
 1152 243 l 1
 1152 146 l 2
 1152 49 1099 -3 994 -10 c 0
 860 -9 792 62 792 205 c 0
 792 324 860 413 993 446 c 1
 993 734 l 2
 992 859 933 941 816 979 c 5
 643 863 l 1
 479 979 l 1
 354.594 933.416 283.397 831.014 283.397 697.489 c 0
 283.397 616.634 304.594 462.783 356 290 c 2
 373 197 l 1
 451 231 507 287 542 365 c 1
 528.547 359.897 514.447 356.946 499.902 356.946 c 0
993 328 m 1
 927.99 328 900 284 900 202 c 0
 900 145 911.42 103 954 103 c 0
 978.33 103 993 116 993 166 c 2
 993 328 l 1
528 454 m 0
 588 454 620 485 620 545 c 0
 620 588 588 622 540 622 c 0
 490 622 456 596 456 541 c 0
 456 496 492 454 528 454 c 0
EndSplineSet
EndChar
StartChar: uni0E13
Encoding: 140 3603 142
Width: 1900
Flags: W
HStem: -11 114<342 486.3 1618.37 1706.4> 271 124<380.412 482.7> 989 160<439.9 897.5>
VStem: 194 141<131.5 258> 194 161<369 539.5> 499 105<116 238.2> 928 160<183 924.8> 1460 160<116.485 243 446 1139> 1714 108<130.5 298.2>
Fore
928 657 m 2xef80
 928 863 836 989 631 989 c 0
 484 989 374 934 303 825 c 1
 374 810 437 756 492 663 c 1
 401 594 355 508 355 403 c 2
 355 369 l 1xef80
 376 386 401 395 430 395 c 0
 532 395 604 324 604 204 c 0
 604 36 533 -10 406 -11 c 4
 265 -10 194 80 194 258 c 2xf780
 194 403 l 2
 194 518 237 607 323 671 c 1
 268 738 202 779 125 792 c 1
 236 1030 404 1149 631 1149 c 0
 932 1149 1088 984 1088 673 c 2
 1088 183 l 1
 1460 409 l 1
 1460 1139 l 1
 1620 1139 l 1
 1620 446 l 1
 1755 441 1822 361 1822 205 c 0
 1823 64 1762 -7 1639 -9 c 0
 1520 -8 1459 63 1460 206 c 2
 1460 243 l 1
 1083 0 l 1
 928 0 l 1
 928 657 l 2xef80
1620 328 m 1
 1620 173 l 2
 1620 131 1627.98 109 1660 109 c 0
 1695.69 109 1714 147 1714 202 c 0
 1714 276 1688 321 1620 328 c 1
407 103 m 0
 468 103 499 134 499 194 c 0
 499 228 468 271 419 271 c 0
 369 271 335 236 335 190 c 0xf780
 335 145 357 103 407 103 c 0
EndSplineSet
EndChar
StartChar: uni0E14
Encoding: 141 3604 143
Width: 1330
Flags: HW
HStem: 0 21G<222 407 1011 1171> 362 102<481.9 563.18> 632 113<490 634.3> 989 160<349.4 965.6>
VStem: 140 162<514.878 917.6> 377 94<495.1 621.2> 635 122<473.1 616.1> 1011 160<0 920.7>
Fore
222 108 m 6
 222 242.443 140 550.445 140 669 c 4
 140 964 304 1149 660 1149 c 4
 1000 1149 1171 980 1171 652 c 6
 1171 0 l 5
 1011 0 l 5
 1011 675 l 6
 1011 864 896 989 664 989 c 4
 422 989 302 860 302 668 c 4
 302 534.272 339.307 485.334 391 197 c 5
 456 218 513 274 560 365 c 5
 560 365 545 362 536 362 c 20
 488 362 377 420 377 536 c 4
 377 668 442 745 571 745 c 4
 696 745 757 676 757 542 c 4
 757 332 641 153 407 0 c 5
 222 0 l 5
 222 108 l 6
543 464 m 4
 608 464 635 492 635 555 c 4
 635 602 616 632 555 632 c 4
 505 632 471 605 471 551 c 4
 471 508 496 464 543 464 c 4
EndSplineSet
EndChar
StartChar: uni0E15
Encoding: 142 3605 144
Width: 1330
Flags: HMW
HStem: 0 21G<232 417 1021 1181> 357 97<488.4 573.477> 622 123<503 640.8> 863 170<671 671> 979 170<507 507>
VStem: 149 163<566.8 889.2> 387 97<482.5 607.3> 648 119<467 616.5> 1021 160<0 896.5>
Fore
232 108 m 2
 229.382 317.44 149 498.914 149 702 c 0
 149 928 268 1076 507 1149 c 1
 671 1033 l 1
 844 1149 l 5
 1069 1099 1181 942 1181 677 c 2
 1181 0 l 1
 1021 0 l 1
 1021 734 l 2
 1020 859 961 941 844 979 c 5
 671 863 l 1
 507 979 l 1
 376 931 312 840 312 676 c 0
 312 592 344 424 384 290 c 8
 395 255 401 197 401 197 c 1
 479 231 535 287 570 365 c 1
 557 360 543 357 529 357 c 0
 448 357 387 444 387 536 c 0
 387 656 456 745 581 745 c 0
 712 745 767 664 767 541 c 0
 767 348 650 167 417 0 c 1
 232 0 l 1
 232 108 l 2
556 454 m 0
 624 454 648 485 648 545 c 0
 648 600 624 622 568 622 c 0
 518 622 484 592 484 541 c 0
 484 496 504 454 556 454 c 0
EndSplineSet
EndChar
StartChar: uni0E16
Encoding: 143 3606 145
Width: 1240
Flags: W
HStem: -11 116<345.9 494.1> 273 124<376.637 474.9> 989 160<440.2 879.6>
VStem: 193 142<133.5 258.3> 193 160<369 535.6> 499 107<118 257.1> 927 160<0 872>
Fore
927 0 m 1xee
 927 657 l 2
 927 872 822 989 630 989 c 0
 484 989 375 934 302 825 c 1
 381 808 444 754 491 663 c 1
 399 592 353 505 353 403 c 2
 353 369 l 1xee
 369 387 394 396 429 397 c 0
 555 396 606 321 606 201 c 0
 606 69 528 -11 396 -11 c 0
 270 -11 193 86 193 258 c 2xf6
 193 403 l 2
 193 508 236 598 322 671 c 1
 295 730 229 770 124 792 c 1
 229 1030 398 1149 630 1149 c 0
 924 1149 1086 986 1087 673 c 2
 1087 0 l 1
 927 0 l 1xee
407 105 m 0
 474 105 499 136 499 196 c 0
 499 243 462 273 419 273 c 0
 369 273 335 243 335 192 c 0xf6
 335 147 360 105 407 105 c 0
EndSplineSet
EndChar
StartChar: uni0E17
Encoding: 144 3607 146
Width: 1350
Flags: MW
HStem: 0 21G<317 518 1054 1214> 743 116<181.7 298.112> 945 204<989.5 1021.5> 1026 124<192 328.5>
VStem: 63 110<881.3 1016.5> 317 160<263 770> 337 140<871 1015.3> 1054 160<0 918.1>
Fore
317 770 m 1
 306 756 285 743 253 743 c 0
 128 743 63 817 63 953 c 0
 63 1064 147 1150 274 1150 c 0
 392 1150 477 1051 477 881 c 2
 477 263 l 1
 812 1003 l 2
 853 1100 921 1149 1018 1149 c 0
 1144 1149 1214 1067 1214 923 c 2
 1214 0 l 1
 1054 0 l 1
 1054 870 l 2
 1055 917 1040 945 1003 945 c 0
 976 945 952 924 930 875 c 2
 518 0 l 1
 317 0 l 1
 317 770 l 1
248 859 m 0
 304 859 337 889 337 949 c 0
 337 1000 312 1026 257 1026 c 0
 207 1026 173 1000 173 945 c 0
 173 896 197 859 248 859 c 0
EndSplineSet
EndChar
StartChar: uni0E18
Encoding: 145 3608 147
Width: 1250
Flags: HW
HStem: 0 151<410 864> 908.136 149.219<896.567 1053.09> 997 151<472.9 774.5>
VStem: 249 161<151 650> 864 160<151 548.9>
Fore
864 480 m 2xb8
 864 533 840 593 794 604 c 0
 615 657 398 710 143 761 c 1
 213 1020 364 1148 612 1148 c 0xb8
 800 1148 916 1057.36 980.776 1057.36 c 0
 1014.39 1057.36 1050.57 1062.32 1080 1071 c 1
 1041 916 l 1
 1018.99 911.06 991.538 908.136 963.892 908.136 c 0xd8
 860 908.136 740 997 625 997 c 0
 508 997 431 960 387 871 c 1
 572 832 848 753 848 753 c 2
 972 721 1024 640 1024 518 c 2
 1023 0 l 1
 249 0 l 1
 249 650 l 1
 410 650 l 1
 410 151 l 1
 864 151 l 1
 864 480 l 2xb8
EndSplineSet
EndChar
StartChar: uni0E19
Encoding: 146 3609 148
Width: 1400
Flags: HW
HStem: -10 113<1142.52 1228.67> 741 115<221.6 341.596> 1024 125<231 363.6>
VStem: 109 103<884.5 1017.1> 364 160<174 769> 376 148<869 1005.5> 984 160<113.172 243 475 1139> 1237 113<120.1 258.772>
Fore
364 769 m 1xfb
 351 753 326 741 288 741 c 0
 188 741 109 816 109 937 c 0
 109 1080 184 1149 321 1149 c 0
 452 1149 524 1052 524 880 c 2xf7
 524 174 l 1
 984 402 l 1
 984 1139 l 1
 1144 1139 l 1
 1144 475 l 1
 1281 466 1349 376 1350 205 c 0
 1352 56 1278 -10 1143 -10 c 0
 1033 -10 981 91 984 243 c 1
 519 0 l 1
 364 0 l 1
 364 769 l 1xfb
1144 328 m 1
 1144 165 l 2
 1145 127 1151.86 103 1183 103 c 0
 1218.13 103 1236 139 1237 202 c 0
 1237 242 1224 275 1199 301 c 0
 1181 319 1169 328 1144 328 c 1
284 856 m 0
 344 856 376 887 376 947 c 0
 376 992 348 1024 296 1024 c 0
 246 1024 212 1000 212 943 c 0
 212 898 236 856 284 856 c 0
EndSplineSet
EndChar
StartChar: uni0E1A
Encoding: 147 3610 149
Width: 1300
Flags: W
HStem: 0 148<488 993> 743 112<193.2 308.968> 1023 127<200 330>
VStem: 75 106<883.5 1008.3> 328 160<148 770> 345 143<868 1007.1> 993 160<148 1139>
Fore
488 148 m 1xfa
 993 148 l 1
 993 1139 l 1
 1153 1139 l 1
 1153 0 l 1
 328 0 l 1
 328 770 l 1xfa
 309 749 274 743 223 743 c 0
 129 743 75 849 75 957 c 0
 75 1071 169 1150 285 1150 c 0
 417 1150 488 1064 488 881 c 2xf6
 488 148 l 1xfa
253 855 m 0
 313 855 345 886 345 946 c 0xf6
 345 993 315 1023 265 1023 c 0
 215 1023 181 993 181 942 c 0
 181 897 207 855 253 855 c 0
EndSplineSet
EndChar
StartChar: uni0E1B
Encoding: 148 3611 150
Width: 1300
Flags: W
HStem: 0 148<514 1019> 743 112<219.2 334.968> 1023 127<226 356>
VStem: 101 106<883.5 1008.3> 354 160<148 770> 371 143<868 1007.1> 1019 160<148 1480>
AnchorPoint: "AboveBase" 920 1227 basechar 0
Fore
514 148 m 1xfa
 1019 148 l 1
 1019 1480 l 1
 1179 1480 l 1
 1179 0 l 1
 354 0 l 1
 354 770 l 1xfa
 335 749 300 743 249 743 c 0
 155 743 101 849 101 957 c 0
 101 1071 195 1150 311 1150 c 0
 443 1150 514 1064 514 881 c 2xf6
 514 148 l 1xfa
279 855 m 0
 339 855 371 886 371 946 c 0xf6
 371 993 341 1023 291 1023 c 0
 241 1023 207 993 207 942 c 0
 207 897 233 855 279 855 c 0
EndSplineSet
EndChar
StartChar: uni0E1C
Encoding: 149 3612 151
Width: 1200
Flags: MW
HStem: 0 21G<134 294 880 1040> 406 221<597 597> 741 109<319.821 424> 1018 132<303.4 428.2>
VStem: 134 160<214 770> 134 140<878.5 998.1> 438 110<863 996.9> 880 160<211 1139>
Fore
134 881 m 2x9b80
 134 1048 212 1150 337 1150 c 0
 476 1150 548 1064 548 930 c 0
 548 817 460 741 378 741 c 0
 341 741 313 751 294 770 c 1
 294 214 l 1
 570 627 l 1
 618 627 l 1
 880 211 l 1
 880 1139 l 1
 1040 1139 l 1
 1040 0 l 1
 880 0 l 1
 597 406 l 1
 294 0 l 1x9d80
 134 0 l 1
 134 881 l 2x9b80
346 850 m 0
 406 850 438 881 438 941 c 0
 438 984 412 1018 358 1018 c 0
 316 1018 274 984 274 937 c 0x9b80
 274 892 308 850 346 850 c 0
EndSplineSet
EndChar
StartChar: uni0E1D
Encoding: 150 3613 152
Width: 1200
Flags: MW
HStem: 0 21G<153 313 899 1059> 406 221<616 616> 741 109<338.821 443> 1018 132<322.4 447.2>
VStem: 153 140<878.5 998.1> 153 160<214 770> 457 110<863 996.9> 899 160<211 1480>
AnchorPoint: "AboveBase" 799 1227 basechar 0
Fore
313 214 m 1xb7
 589 627 l 5
 637 627 l 1
 899 211 l 1
 899 1480 l 1
 1059 1480 l 1
 1059 0 l 1
 899 0 l 1
 616 406 l 5
 313 0 l 1
 153 0 l 1xb7
 153 881 l 2xbb
 153 1048 231 1150 356 1150 c 0
 495 1150 567 1064 567 930 c 0
 567 817 479 741 397 741 c 0
 360 741 332 751 313 770 c 1
 313 214 l 1xb7
365 850 m 0
 425 850 457 881 457 941 c 0
 457 984 431 1018 377 1018 c 0
 335 1018 293 984 293 937 c 0xbb
 293 892 327 850 365 850 c 0
EndSplineSet
EndChar
StartChar: uni0E1E
Encoding: 151 3614 153
Width: 1350
Flags: MW
HStem: 0 21G<300 490 1016 1206> 740 117<165.9 274.179> 810 273<745 745> 1025 124<174 294.9>
VStem: 46 109<885.5 1003.8> 300 160<282.303 769> 319 141<870 1010.4> 1046 160<260 1139>
Fore
460 263 m 1xdb
 721 1083 l 5
 769 1083 l 1
 1046 260 l 1
 1046 1139 l 1
 1206 1139 l 1
 1206 0 l 1
 1016 0 l 1
 745 810 l 5
 490 0 l 1
 300 0 l 1
 300 769 l 1xdd
 281 750 253 740 216 740 c 0
 114 740 46 814 46 943 c 0
 46 1074 123 1149 257 1149 c 0
 387 1149 460 1056 460 880 c 2
 460 263 l 1xdb
227 857 m 0
 287 857 319 888 319 948 c 0xdb
 319 996 282 1025 239 1025 c 0
 189 1025 155 990 155 944 c 0
 155 899 180 857 227 857 c 0
EndSplineSet
EndChar
StartChar: uni0E1F
Encoding: 152 3615 154
Width: 1450
Flags: MW
HStem: 0 21G<381 571 1097 1287> 740 117<246.9 355.179> 810 273<826 826> 1025 124<255 375.9>
VStem: 127 109<885.5 1003.8> 381 160<282.303 769> 400 141<870 1010.4> 1127 160<260 1480>
AnchorPoint: "AboveBase" 1031 1227 basechar 0
Fore
541 263 m 1xdb
 802 1083 l 5
 850 1083 l 1
 1127 260 l 1
 1127 1480 l 1
 1287 1480 l 1
 1287 0 l 1
 1097 0 l 1
 826 810 l 5
 571 0 l 1
 381 0 l 1
 381 769 l 1xdd
 362 750 334 740 297 740 c 0
 195 740 127 814 127 943 c 0
 127 1074 204 1149 338 1149 c 0
 468 1149 541 1056 541 880 c 2
 541 263 l 1xdb
308 857 m 0
 368 857 400 888 400 948 c 0xdb
 400 996 363 1025 320 1025 c 0
 270 1025 236 990 236 944 c 0
 236 899 261 857 308 857 c 0
EndSplineSet
EndChar
StartChar: uni0E20
Encoding: 153 3616 155
Width: 1350
Flags: W
HStem: -10 122<195 327.6> 280 119<191.4 298.179> 990 160<590.7 1008>
VStem: 70 105<140.5 260.1> 324 160<370 535.3> 339 145<125 259> 1058 160<0 932.3>
Fore
1058 658 m 2xfa
 1058 869 951 990 761 990 c 0
 630 990 521 937 433 826 c 1
 518 801 581 747 622 664 c 1
 530 591 484 505 484 404 c 2xfa
 484 259 l 2xf6
 484 84 401 -10 281 -10 c 0
 150 -10 70 72 70 198 c 0
 70 318 141 399 240 399 c 0
 277 399 305 389 324 370 c 1
 324 404 l 2
 325 513 368 603 453 672 c 1
 416 731 350 771 255 793 c 1
 359 1031 528 1150 761 1150 c 0
 1059 1150 1218 986 1218 674 c 2
 1218 0 l 1
 1058 0 l 1
 1058 658 l 2xfa
247 112 m 0
 309 112 339 143 339 203 c 0xf6
 339 246 313 280 259 280 c 0
 207 280 175 246 175 199 c 0
 175 154 207 112 247 112 c 0
EndSplineSet
EndChar
StartChar: uni0E21
Encoding: 154 3617 156
Width: 1350
Flags: W
HStem: -10 123<282.327 372.482> 328 118<287.8 371> 739 116<246.6 347.951> 1023 127<243 383.4>
VStem: 118 106<883.5 1008.3> 170 108<133.1 309.9> 371 160<120.7 243 446 770> 388 143<868 1007.1> 991 160<159 1139>
Fore
371 446 m 1xf680
 371 770 l 1xf680
 357 751 333 739 300 739 c 0
 192 739 118 820 118 957 c 0
 118 1071 192 1150 319 1150 c 0
 462 1150 531 1061 531 881 c 2
 531 409 l 1xf980
 991 159 l 1
 991 1139 l 1
 1151 1139 l 1
 1151 0 l 1
 990 0 l 1
 530 243 l 1
 530 146 l 2
 524 43 472 -10 372 -10 c 0
 242 -10 170 62 170 205 c 0
 170 369 240 443 371 446 c 1xf680
371 328 m 1
 307 326 278 285 278 202 c 0
 278 149 293.79 113 332 113 c 0
 363.14 113 370 133 371 174 c 2
 371 328 l 1
296 855 m 0
 354 855 388 886 388 946 c 0
 388 993 366 1023 308 1023 c 0
 258 1023 224 993 224 942 c 0xf980
 224 897 258 855 296 855 c 0
EndSplineSet
EndChar
StartChar: uni0E22
Encoding: 155 3618 157
Width: 1200
Flags: W
HStem: 0 156<345 867> 505 113<464.1 624> 743 112<364.486 492.6> 1023 126<359 489>
VStem: 176 163<684.2 770 883.5 1008.3> 199 146<156 432.8> 504 109<868 1007.1> 867 160<156 1139>
Fore
350 562 m 1xf7
 238 584 176 703 176 845 c 0
 176 1011 234 1149 418 1149 c 0
 546 1149 613 1077 613 926 c 0
 613 809 546 743 441 743 c 0
 390 743 356 753 339 770 c 1xfb
 342 704 371 660 426 637 c 0
 459 623 525 617 624 618 c 1
 624 505 l 1
 527 505 460 497 423 481 c 0
 371 458 345 413 345 347 c 2
 345 156 l 1
 867 156 l 1
 867 1139 l 1
 1027 1139 l 1
 1027 0 l 1
 199 0 l 1
 199 349 l 2
 199 444 249 515 350 562 c 1xf7
412 855 m 0
 474 855 504 886 504 946 c 0
 504 993 474 1023 424 1023 c 0
 374 1023 340 993 340 942 c 0
 340 897 366 855 412 855 c 0
EndSplineSet
EndChar
StartChar: uni0E23
Encoding: 156 3619 158
Width: 1100
Flags: HW
HStem: -10 119<625.5 749> 277 106<614.1 711.32> 906.438 156.401<790.645 1002.73> 998 151<440.1 783.616>
VStem: 490 109<137.5 264.9> 723 160<363 600.5> 763 120<122 304>
Fore
348 872 m 1xdc
 686.469 804.62 883 739.148 883 574 c 2xdc
 883 304 l 2xda
 883 77 838 -10 683 -10 c 0
 557 -10 490 57 490 189 c 0
 490 297 540 383 641 383 c 0
 676 383 703 379 723 363 c 1
 723 529 l 2
 723 584 692 626 629 656 c 0
 520 692 345 727 104 762 c 1
 173 1020 330 1149 573 1149 c 0xdc
 747.068 1149 830.152 1062.84 961.842 1062.84 c 0
 988.045 1062.84 1014.38 1066.14 1041 1072 c 1
 1002 917 l 1
 984.667 909.958 964.986 906.438 941.21 906.438 c 0xec
 774.794 906.438 732.243 998 561 998 c 0
 468 998 390 957 348 872 c 1xdc
671 109 m 0
 731 109 763 140 763 200 c 0xca
 763 237 737 277 683 277 c 0
 630 277 599 249 599 196 c 0
 599 151 636 109 671 109 c 0
EndSplineSet
EndChar
StartChar: uni0E24
Encoding: 157 3620 159
Width: 1240
Flags: W
HStem: -11 116<343.9 492.1> 273 124<374.637 472.9> 989 160<438.2 877.6>
VStem: 191 142<133.5 258.3> 191 160<369 535.6> 497 107<118 257.1> 925 160<-380 936.5>
Fore
1085 673 m 2xee
 1085 -380 l 1
 925 -380 l 1
 925 657 l 2
 925 872 820 989 628 989 c 0
 482 989 373 934 300 825 c 1
 379 808 442 754 489 663 c 1
 397 592 351 505 351 403 c 2
 351 369 l 1xee
 367 387 392 396 427 397 c 0
 553 396 604 321 604 201 c 0
 604 69 526 -11 394 -11 c 0
 268 -11 191 86 191 258 c 2xf6
 191 403 l 2
 191 508 234 598 320 671 c 1
 293 730 227 770 122 792 c 1
 227 1030 396 1149 628 1149 c 0
 922 1149 1085 986 1085 673 c 2xee
405 105 m 0
 472 105 497 136 497 196 c 0
 497 243 460 273 417 273 c 0
 367 273 333 243 333 192 c 0xf6
 333 147 358 105 405 105 c 0
EndSplineSet
EndChar
StartChar: uni0E25
Encoding: 158 3621 160
Width: 1255
Flags: HW
HStem: -11 115<385.5 533.7> 272 127<408.295 522.3> 604 140<415.334 836.917> 984 165<429.6 862.5>
VStem: 221 151<132.5 258.6> 221 160<369 544.752> 536 99<117 257.4> 924 160<0 396.726 609 886>
Fore
610 744 m 0xf7
 784.552 744 896.69 656.434 924 609 c 1
 924 714 l 2
 923 886 801 984 596 984 c 0
 468 984 339 934 210 834 c 1
 156 944 l 1
 291 1077 439 1149 598 1149 c 0
 909 1149 1083 994 1084 713 c 2
 1084 0 l 1
 924 0 l 1
 924 263 l 2
 922.635 396.726 860.8 604 608 604 c 0
 459.795 604 381 512.963 381 407 c 2
 381 369 l 1xf7
 399 389 429 399 471 399 c 0
 585 399 635 327 635 193 c 0
 635 60.5 539.298 -11 433 -11 c 0
 348.2 -11 221 29.9641 221 258 c 2xfb
 221 388 l 2
 221 630 405 744 610 744 c 0xf7
444 104 m 0
 513 104 536 135 536 195 c 0
 536 243 507 272 456 272 c 0
 406 272 372 243 372 191 c 0xfb
 372 146 399 104 444 104 c 0
EndSplineSet
EndChar
StartChar: uni0E26
Encoding: 159 3622 161
Width: 1350
Flags: W
HStem: -10 122<210 342.6> 280 119<206.4 313.179> 990 160<605.7 1023>
VStem: 85 105<140.5 260.1> 339 160<370 535.3> 354 145<125 259> 1073 160<-380 932.3>
Fore
1233 674 m 2xfa
 1233 -380 l 1
 1073 -380 l 1
 1073 658 l 2
 1072 869 966 990 776 990 c 0
 645 990 536 937 448 826 c 1
 533 801 596 747 637 664 c 1
 545 591 499 505 499 404 c 2xfa
 499 259 l 2xf6
 499 84 416 -10 296 -10 c 0
 165 -10 85 72 85 198 c 0
 85 318 156 399 255 399 c 0
 292 399 320 389 339 370 c 1
 339 404 l 2
 340 513 383 603 468 672 c 1
 431 731 365 771 270 793 c 1
 374 1031 543 1150 776 1150 c 0
 1074 1150 1232 986 1233 674 c 2xfa
262 112 m 0
 324 112 354 143 354 203 c 0xf6
 354 246 328 280 274 280 c 0
 222 280 190 246 190 199 c 0
 190 154 222 112 262 112 c 0
EndSplineSet
EndChar
StartChar: uni0E27
Encoding: 160 3623 162
Width: 1150
Flags: HW
HStem: -10 123<700.8 836> 281 117<697.2 807.738> 1002 147<358.8 743.023>
VStem: 579 107<141.5 267.6> 834 160<369 1012.56> 850 144<126 266.4>
Fore
546 1149 m 0xf8
 826.051 1149 994 1011.64 994 742 c 2xf8
 994 258 l 2xf4
 994 79 924 -10 790 -10 c 0
 663 -10 579 78 579 179 c 0
 579 300 630 398 749 398 c 0
 786 398 815 388 834 369 c 1
 834 738 l 2
 834 949.2 697.556 1002 546 1002 c 0
 402 1002 275 958 170 866 c 1
 96 927 l 1
 217 1070 378 1149 546 1149 c 0xf8
758 113 m 0
 818 113 850 144 850 204 c 0xf4
 850 252 824 281 770 281 c 0
 714 281 686 252 686 200 c 0
 686 155 714 113 758 113 c 0
EndSplineSet
EndChar
StartChar: uni0E28
Encoding: 161 3624 163
Width: 1300
Flags: HW
HStem: 0 21G<181 391 971 1131> 344 116<601.5 744.5> 625 121<608.8 742.7> 989 160<334.9 790.1>
VStem: 99 161<493.9 920.3> 758 98<475.4 606.7> 971 160<0 803.1>
Fore
181 108 m 2
 178.358 306.15 99 454.96 99 673 c 0
 100 973 296 1149 612 1149 c 0
 749 1149 858 1120 941 1067 c 1
 987 1096 1027 1148 1062 1224 c 1
 1280 1224 l 1
 1243 1108 1171 1013 1064 939 c 1
 1108 864 1130 768 1131 651 c 2
 1131 0 l 1
 971 0 l 1
 971 650 l 2
 971 856 824 989 617 989 c 0
 400 989 260 857 260 646 c 0
 262 529 281 399 316 256 c 1
 379.529 703.462 589.6 746 658 746 c 0
 784 746 856 672 856 553 c 0
 856 432 784 344 664 344 c 0
 584 344 552 368 525 424 c 1
 472 319 428 177 391 0 c 1
 181 0 l 1
 181 108 l 2
673 460 m 0
 728 460 758 491 758 543 c 0
 758 592 728 625 679 625 c 0
 625 625 592 592 592 543 c 0
 592 494 618 460 673 460 c 0
EndSplineSet
EndChar
StartChar: uni0E29
Encoding: 162 3625 164
Width: 1350
Flags: W
HStem: -1 148<455 960> 423 112<858.957 960.019> 698 67<750.1 846.3> 741 113<164.1 285.06> 1022 127<176.1 300.9>
VStem: 40 108<882.5 1000.8> 295 160<147 769> 312 143<867 1015.2> 657 79<621 688.2> 850 71<598.1 683.9> 960 160<147 435 654 1138> 1161 107<703.6 773>
Fore
1120 654 m 1xeef0
 1147 681 1161 721 1161 773 c 1
 1268 773 l 1
 1268 655 1219 562 1120 493 c 1
 1119 -1 l 1
 295 -1 l 1
 295 769 l 1xeef0
 274 743 261 741 213 741 c 0
 99 741 40 837 40 946 c 0
 40 1089 127 1149 252 1149 c 0
 388 1149 455 1057 455 880 c 2xddf0
 455 147 l 1
 960 147 l 1
 960 435 l 1
 926 422 927 423 891 423 c 0
 711 423 657 549 657 621 c 0
 657 705 721 765 794 765 c 0
 873 765 921 723 921 639 c 0
 921 603 899 563 854 548 c 1
 872 539 890 535 911 535 c 0
 926 535 943 538 960 543 c 1
 960 1138 l 1
 1120 1138 l 1
 1120 654 l 1xeef0
850 641 m 0
 850 674 834 698 793 698 c 0
 760 698 736 678 736 644 c 0
 736 618 756 588 792 588 c 0
 834 588 850 608 850 641 c 0
220 854 m 0xddf0
 280 854 312 885 312 945 c 0
 312 999 285 1022 232 1022 c 0
 189 1022 148 987 148 941 c 0
 148 896 177 854 220 854 c 0xddf0
EndSplineSet
EndChar
StartChar: uni0E2A
Encoding: 163 3626 165
Width: 1250
Flags: HW
HStem: -11 115<357 489.6> 272 127<373.295 478.2> 604 140<380.334 806.162> 984 165<381.6 768.4>
VStem: 186 151<132.5 258> 186 160<369 544.752> 501 99<117 261.3> 889 160<0 471.858 609 815.916>
Fore
575 744 m 0xf7
 752.817 744 861.69 656.434 889 609 c 1
 889 714 l 2
 888 886 771 984 561 984 c 0
 423 984 304 934 175 834 c 1
 121 944 l 1
 256 1077 405 1149 563 1149 c 0
 721 1149 841 1107 922 1037 c 1
 983 1081 1024 1138 1046 1209 c 1
 1212 1209 l 1
 1192.77 1047.92 1057.26 952.465 1001 936 c 1
 1032 875 1049 786 1049 713 c 2
 1049 0 l 1
 889 0 l 1
 889 263 l 2
 886.869 471.858 762.6 604 573 604 c 0
 424.795 604 346 512.963 346 407 c 2
 346 369 l 1xf7
 364 389 394 399 436 399 c 0
 543 399 600 324 600 193 c 0
 600 57.9381 501.224 -11 398 -11 c 0
 315.016 -12.3831 186 29.1836 186 258 c 2xfb
 186 388 l 2
 186 615.884 358.844 744 575 744 c 0xf7
409 104 m 0
 471 104 501 135 501 195 c 0
 501 246 465 272 421 272 c 0
 371 272 337 234 337 191 c 0xfb
 337 146 369 104 409 104 c 0
EndSplineSet
EndChar
StartChar: uni0E2B
Encoding: 164 3627 166
Width: 1350
Flags: W
HStem: 0 21G<332 556 1038 1198> 748 115<222.6 317.985> 1019 125<908.1 1047.2> 1031 118<219 343.8>
VStem: 100 100<891.5 1009.8> 332 160<190 767> 364 128<876 1024.2> 775 118<879.5 997.8> 1038 160<0 649.9> 1057 128<864 988.8>
Fore
492 190 m 1xdd
 535 315 594 430 670 538 c 0
 745 644 810 721 865 767 c 1
 803 798 775 859 775 950 c 0
 775 1068 846 1144 972 1144 c 0
 1106 1144 1185 1068 1185 956 c 0xed40
 1185 865 1158 801 1107 764 c 1
 1156 733 1198 660 1198 610 c 2
 1198 0 l 1
 1038 0 l 1
 1038 594 l 2
 1038 637 1017 669 976 690 c 1
 917 646 843 556 754 419 c 0
 665 282 599 143 556 0 c 1
 332 0 l 1
 332 767 l 1xed80
 313 754 288 748 255 748 c 0
 174 748 100 822 100 956 c 0
 100 1062 180 1149 296 1149 c 0
 426 1149 492 1075 492 924 c 2xdb
 492 190 l 1xdd
272 863 m 0
 336 863 364 894 364 954 c 0
 364 1008 330 1031 284 1031 c 0xdb
 234 1031 200 996 200 950 c 0
 200 905 234 863 272 863 c 0
965 851 m 0
 1025 851 1057 882 1057 942 c 0
 1057 978 1031 1019 977 1019 c 0xe940
 924 1019 893 984 893 938 c 0
 893 893 918 851 965 851 c 0
EndSplineSet
EndChar
StartChar: uni0E2C
Encoding: 165 3628 167
Width: 1400
Flags: MW
HStem: 0 21G<317 507 1033 1223> 740 117<181.6 291.179> 810 273<762 762> 1025 124<191 334> 1167 108<1006.7 1063> 1412 107<1000.9 1111.4>
VStem: 63 109<885.5 1022> 317 160<263 769> 336 141<870 1010.4> 895 95<1288.4 1401.5> 1063 160<260 1159> 1129 94<1291.7 1400.9> 1359 100<1338.79 1472.17>
AnchorPoint: "AboveBase" 875 1227 basechar 0
Fore
1063 1167 m 1xdf68
 956 1170 895 1230 895 1348 c 0
 895 1468 954 1519 1062 1519 c 0
 1164 1519 1221 1460 1223 1349 c 2
 1223 1281 l 1xde58
 1264 1281 1297 1296 1324 1328 c 0
 1351 1358 1363 1405 1359 1467 c 1
 1459 1467 l 1
 1466 1360 1445 1282 1398 1234 c 0
 1350 1186 1293 1161 1223 1159 c 1xde68
 1223 0 l 1
 1033 0 l 1
 762 810 l 1
 507 0 l 1
 317 0 l 1
 317 769 l 1xdf58
 298 750 270 740 233 740 c 0
 132 740 63 810 63 943 c 0
 63 1076 140 1149 274 1149 c 0
 404 1149 477 1056 477 880 c 2xdec8
 477 263 l 1
 738 1083 l 1
 786 1083 l 1
 1063 260 l 1
 1063 1167 l 1xdf68
244 857 m 0
 304 857 336 888 336 948 c 0xdec8
 336 996 316 1025 256 1025 c 0
 206 1025 172 1004 172 944 c 0
 172 899 196 857 244 857 c 0
1060 1275 m 0
 1100 1275 1129 1304 1129 1345 c 0xde58
 1129 1388 1100 1412 1062 1412 c 0
 1015 1412 990 1388 990 1343 c 0
 990 1301 1019 1275 1060 1275 c 0
EndSplineSet
EndChar
StartChar: uni0E2D
Encoding: 166 3629 168
Width: 1230
Flags: W
HStem: 0 159<384 890> 340 120<411.326 522.6> 628 120<389 519> 1002 147<386.7 806.6>
VStem: 223 147<434 600.3> 223 160<159 366> 534 104<473 599.1> 890 160<159 947.3>
Fore
1050 749 m 2xf7
 1050 0 l 1
 223 0 l 1xf7
 223 434 l 2xfb
 224 641 295 748 436 748 c 0
 568 748 638 660 638 525 c 0
 638 404 568 340 458 340 c 0
 432 340 407 349 383 366 c 1
 384 159 l 1
 890 159 l 1
 890 738 l 2
 889 899 752 1002 570 1002 c 0
 429 1002 315 957 226 866 c 1
 152 927 l 1
 265 1075 403 1149 566 1149 c 0
 896 1149 1050 1012 1050 749 c 2xf7
442 460 m 0
 504 460 534 491 534 551 c 0
 534 588 504 628 454 628 c 0
 404 628 370 588 370 547 c 0xfb
 370 502 392 460 442 460 c 0
EndSplineSet
EndChar
StartChar: uni0E2E
Encoding: 167 3630 169
Width: 1250
Flags: HW
HStem: 0 159<388 895> 343 117<417.308 526.9> 628 120<377.7 527.2> 764 111<443.9 700> 1038 111<440 710.4>
VStem: 202 152<898.2 1002.2> 228 145<434 621.1> 228 160<159 373> 537 106<473 609.5> 895 162<159 788.71>
Fore
1057 0 m 1xfcc0
 228 0 l 1xf9c0
 228 434 l 2xfac0
 227 639 300 748 441 748 c 0
 572 748 643 676 643 525 c 0
 643 407 572 343 465 343 c 0
 432 343 406 356 388 373 c 1
 388 159 l 1xf9c0
 895 159 l 1
 895 715 l 2
 895 776 886 819 868 842 c 1
 799 791 706 764 588 764 c 0
 348 764 202 848 202 958 c 0
 202 1056 372 1149 585 1149 c 0
 711 1149 815 1121 898 1064 c 1
 926 1100 943 1131 950 1158 c 1
 1072 1116 l 1
 1049 1061 1023 1014 994 975 c 1
 1034 925 1055 846 1056 739 c 2
 1057 0 l 1xfcc0
824 952 m 1
 760 1009 684 1038 596 1038 c 0
 476 1038 354 992 354 958 c 0xfcc0
 354 912 476 875 583 875 c 0
 673 875 753 901 824 952 c 1
445 460 m 0
 508 460 537 491 537 551 c 0
 537 596 511 628 457 628 c 0
 396 628 373 604 373 547 c 0xfac0
 373 502 404 460 445 460 c 0
EndSplineSet
EndChar
StartChar: uni0E2F
Encoding: 168 3631 170
Width: 1150
Flags: HW
HStem: 0 21G<865 1025> 692 140<460 589.4> 1034 104<262 390.7>
VStem: 126 117<894.5 1024.5> 407 124<879 1012.9> 865 160<0 830 1021.6 1149>
Fore
1025 1149 m 1
 1025 0 l 1
 865 0 l 1
 865 830 l 1
 770 746 630 692 460 692 c 0
 288 692 126 780 126 950 c 0
 126 1056 208 1138 330 1138 c 0
 457 1138 531 1064 531 955 c 0
 531 894 509 853 462 832 c 1
 560 832 644 857 730 915 c 0
 818 973 862 1051 865 1149 c 1
 1025 1149 l 1
315 866 m 0
 376 866 407 897 407 957 c 0
 407 1000 376 1034 327 1034 c 0
 277 1034 243 1008 243 953 c 0
 243 908 280 866 315 866 c 0
EndSplineSet
EndChar
StartChar: uni0E30
Encoding: 169 3632 171
Width: 1100
Flags: HW
HStem: 62 186<315.611 484> 393 92<287.1 401.5> 548 186<315.611 484> 879 92<287.1 391.1>
VStem: 173 97<272.3 386.7 758.3 864.9> 412 93<259.4 364.7 745.4 853.3> 798 116<315.2 479 801.2 965>
Fore
484 62 m 0
 354.47 62 173 115.6 173 330 c 0
 173 420 236 485 343 485 c 0
 452 485 505 420 505 318 c 0
 505 269 479 230 438 199 c 1
 515 174 594 182 676 226 c 0
 757 268 798 353 798 479 c 1
 914 479 l 1
 914 145.4 674.895 62 484 62 c 0
332 248 m 0
 388 248 412 275 412 327 c 0
 412 356 388 393 343 393 c 0
 300 393 270 372 270 323 c 0
 270 284 308 248 332 248 c 0
484 548 m 0
 354.47 548 173 601.6 173 816 c 0
 173 900 236 971 343 971 c 0
 444 971 505 908 505 804 c 0
 505 755 479 716 438 685 c 1
 515 660 594 668 676 712 c 0
 757 754 798 839 798 965 c 1
 914 965 l 1
 914 631.4 671.8 548 484 548 c 0
332 734 m 0
 388 734 412 761 412 813 c 0
 412 844 380 879 343 879 c 0
 300 879 270 852 270 809 c 0
 270 770 292 734 332 734 c 0
EndSplineSet
EndChar
StartChar: uni0E31
Encoding: 170 3633 172
Width: 0
Flags: W
HStem: 1214 186<-613.389 -445> 1545 92<-641.9 -531.4>
VStem: -756 97<1424.3 1543.9> -517 93<1411.4 1532.3> -131 116<1467.2 1631>
AnchorPoint: "AboveMark" -262 1740 basemark 0
AnchorPoint: "AboveBase" -180 1227 mark 0
Fore
-445 1214 m 0
 -574.53 1214 -756 1267.6 -756 1482 c 0
 -756 1576 -693 1637 -586 1637 c 0
 -480 1637 -424 1576 -424 1470 c 0
 -424 1421 -450 1382 -491 1351 c 1
 -414 1326 -335 1334 -254 1378 c 0
 -172 1420 -131 1505 -131 1631 c 1
 -15 1631 l 1
 -15 1362.9 -174.589 1214 -445 1214 c 0
-597 1400 m 0
 -544 1400 -517 1427 -517 1479 c 0
 -517 1520 -544 1545 -586 1545 c 0
 -629 1545 -659 1528 -659 1475 c 0
 -659 1436 -640 1400 -597 1400 c 0
EndSplineSet
EndChar
StartChar: uni0E32
Encoding: 171 3634 173
Width: 1150
Flags: W
HStem: 0 21G<796 956> 990 159<377 755.708>
VStem: 796 160<0 945.905>
Fore
546 1149 m 0
 793.626 1149 956 986.896 956 753 c 2
 956 0 l 1
 796 0 l 1
 796 729 l 2
 796 895.85 707.314 990 546 990 c 0
 416 990 314 930 258 816 c 1
 138 837 l 1
 208 1043 344 1149 546 1149 c 0
EndSplineSet
EndChar
StartChar: uni0E34
Encoding: 173 3636 175
Width: 0
Flags: W
HStem: 1322 91<-1124 -898> 1528 116<-788.9 -457.4>
VStem: -1124 944<1227 1322>
AnchorPoint: "AboveMark" -272 1740 basemark 0
AnchorPoint: "AboveBase" -180 1227 mark 0
Fore
-1124 1322 m 1
 -1059 1489.78 -891.685 1644 -658 1644 c 0
 -500 1644 -412 1595 -327 1515 c 0
 -248 1441 -199 1345 -180 1227 c 1
 -506.556 1297.99 -1035.72 1322 -1124 1322 c 1
-365 1359 m 1
 -423 1462 -500 1528 -642 1528 c 0
 -755 1528 -841 1490 -898 1413 c 1
 -762.932 1415.14 -407.594 1369.65 -365 1359 c 1
EndSplineSet
EndChar
StartChar: uni0E35
Encoding: 174 3637 176
Width: 0
Flags: W
HStem: 1323 101<-1124 -809.125> 1511 131<-775.9 -483.8>
VStem: -337 150<1525 1735>
AnchorPoint: "AboveMark" -262 1740 basemark 0
AnchorPoint: "AboveBase" -180 1227 mark 0
Fore
-180 1228 m 1
 -397.867 1275.23 -881.789 1323 -1124 1323 c 1
 -1080.51 1465.04 -874.5 1642 -658 1642 c 0
 -524 1642 -421 1603 -337 1525 c 1
 -337 1735 l 1
 -187 1735 l 1
 -187 1260 l 1
 -184 1249 -182 1238 -180 1228 c 1
-379 1370 m 1
 -417 1457 -508 1511 -616 1511 c 0
 -739 1511 -824 1483 -873 1424 c 1
 -724.688 1424 -474.824 1393.13 -379 1370 c 1
EndSplineSet
EndChar
StartChar: uni0E36
Encoding: 175 3638 177
Width: 0
Flags: W
HStem: 1323 89<-1124 -809.125> 1514 128<-793.6 -535.8> 1568 113<-256.5 -127.8>
VStem: -124 110<1441.5 1532.49>
AnchorPoint: "AboveMark" -198 1740 basemark 0
AnchorPoint: "AboveBase" -180 1227 mark 0
Fore
-180 1228 m 1xb0
 -397.867 1275.23 -881.789 1323 -1124 1323 c 1
 -1084.66 1491.72 -929.5 1642 -658 1642 c 0xd0
 -564 1642 -439 1611 -367 1548 c 1
 -352 1633 -296 1681 -198 1681 c 0
 -88 1681 -14 1604 -14 1502 c 0
 -14 1396 -79 1321 -202 1321 c 1
 -196 1304 -189 1273 -180 1228 c 1xb0
-198 1568 m 0xb0
 -243 1568 -270 1540 -270 1500 c 0
 -270 1455 -245 1429 -198 1429 c 0
 -160 1429 -124 1455 -124 1500 c 0
 -124 1524 -144 1568 -198 1568 c 0xb0
-374 1358 m 1
 -410 1460 -504 1514 -648 1514 c 0xd0
 -760 1514 -840 1480 -877 1412 c 1
 -719.967 1412 -459.301 1378.59 -374 1358 c 1
EndSplineSet
EndChar
StartChar: uni0E37
Encoding: 176 3639 178
Width: 0
Flags: W
HStem: 1322 91<-1105 -860> 1505 65<-649 -416>
VStem: -566 150<1624 1722> -337 150<1519 1721>
AnchorPoint: "AboveMark" -376 1740 basemark 0
AnchorPoint: "AboveBase" -180 1227 mark 0
Fore
-1105 1322 m 1
 -1064.79 1442.62 -919.4 1633 -641 1633 c 0
 -614 1633 -589 1629 -566 1624 c 1
 -566 1722 l 1
 -416 1722 l 1
 -416 1570 l 1
 -399.543 1570 -375.648 1553.23 -337 1519 c 1
 -337 1721 l 1
 -187 1721 l 1
 -187 1284 l 1
 -185 1227 l 1
 -435.512 1281.69 -964.801 1322 -1105 1322 c 1
-399 1369 m 1
 -428.132 1428.8 -499 1505 -649 1505 c 0
 -747 1505 -815 1472 -860 1413 c 1
 -750.575 1411.54 -478.868 1390.39 -399 1369 c 1
EndSplineSet
EndChar
StartChar: uni0E38
Encoding: 177 3640 179
Width: 0
Flags: W
HStem: -375 67<-386.9 -294.929> -163 78<-386.9 -290.7>
VStem: -473 77<-299.7 -171> -289 131<-534 -360> -281 123<-299 -175.9>
AnchorPoint: "BelowBase" -158 -85 mark 0
Fore
-289 -534 m 1xf0
 -289 -360 l 1xf0
 -299 -369 -310 -375 -322 -375 c 0
 -428 -375 -473 -331 -473 -244 c 0
 -473 -142 -422 -85 -320 -85 c 0
 -216 -85 -158 -158 -158 -299 c 2xe8
 -158 -534 l 1
 -289 -534 l 1xf0
-331 -163 m 0
 -374 -163 -396 -186 -396 -236 c 0
 -396 -285 -374 -308 -331 -308 c 0
 -296 -308 -281 -284 -281 -237 c 0xe8
 -281 -190 -300 -163 -331 -163 c 0
EndSplineSet
EndChar
StartChar: uni0E39
Encoding: 178 3641 180
Width: 0
Flags: W
HStem: -534 99<-437 -292> -376 69<-668.4 -567.33> -163 78<-659.4 -569.7>
VStem: -752 77<-291.9 -184> -568 131<-435 -360> -560 123<-299 -204.146> -292 134<-435 -96>
AnchorPoint: "BelowBase" -158 -85 mark 0
Fore
-292 -96 m 1xfa
 -158 -96 l 1
 -158 -534 l 1
 -568 -534 l 1
 -568 -360 l 1xfa
 -584 -376 -606 -376 -635 -376 c 0
 -699 -376 -752 -317 -752 -244 c 0
 -752 -152 -689 -85 -599 -85 c 0
 -538 -85 -494 -106 -470 -145 c 0
 -449 -178 -437 -236 -437 -299 c 2xf6
 -437 -435 l 1
 -292 -435 l 1
 -292 -96 l 1xfa
-610 -163 m 0
 -648 -163 -675 -196 -675 -236 c 0
 -675 -279 -657 -307 -619 -307 c 0
 -575 -307 -560 -271 -560 -232 c 0xf6
 -560 -188 -579 -163 -610 -163 c 0
EndSplineSet
EndChar
StartChar: uni0E3A
Encoding: 179 3642 181
Width: 0
Flags: W
HStem: -330 270<-338.3 -153.7>
VStem: -380 269<-288.6 -106.6>
AnchorPoint: "BelowBase" -158 -65 mark 0
Fore
-246 -60 m 0
 -171 -60 -111 -127 -111 -195 c 0
 -111 -269 -175 -330 -246 -330 c 0
 -317 -330 -380 -267 -380 -195 c 0
 -380 -123 -321 -60 -246 -60 c 0
EndSplineSet
EndChar
StartChar: uni0E3F
Encoding: 180 3647 182
Width: 1250
Flags: HW
HStem: -20 20G<152 541> 2 172<348 541 653 811.917> 719 166<348 541> 1321 168<348 541>
VStem: 152 196<170 719 885 1321> 541 112<-133 0 174 717 887 1319 1489 1595> 885 207<957.214 1344.24> 954 207<163 646.412>
Fore
653 1489 m 1xfd
 975.329 1484.55 1092 1351 1092 1144 c 0xfe
 1090.16 1000.32 984.415 876.268 883 827 c 1
 1095.4 767.337 1161 602.702 1161 457 c 0
 1161 181.047 945.769 9.75547 653 2 c 1
 653 -133 l 1
 541 -133 l 1
 541 0 l 1
 152 0 l 1
 152 1489 l 1
 541 1489 l 1
 541 1595 l 1
 653 1595 l 1
 653 1489 l 1xfd
541 885 m 1
 541 1321 l 1
 348 1321 l 1
 348 885 l 1
 541 885 l 1
653 887 m 1
 784.375 893.072 885 945 885 1124 c 0
 885 1293.41 763.065 1309.72 653 1319 c 1
 653 887 l 1
541 170 m 1
 541 719 l 1
 348 719 l 1
 348 170 l 1
 541 170 l 1
653 174 m 1
 775.244 179.557 954 229 954 449 c 0xfd
 954 657 842.658 705.619 653 717 c 1
 653 174 l 1
EndSplineSet
EndChar
StartChar: uni0E40
Encoding: 181 3648 183
Width: 700
Flags: W
HStem: -11 108<331.3 478.2> 304 93<348.422 470.4> 1129 20G<167 327>
VStem: 167 160<111.5 284.4 369 1149> 485 95<108.2 292.8>
Fore
167 1149 m 1
 327 1149 l 1
 327 369 l 1
 344 388 369 397 403 397 c 0
 519 397 580 324 580 175 c 0
 580 66 507 -11 379 -11 c 0
 238 -11 167 82 167 258 c 2
 167 1149 l 1
395 97 m 0
 459 97 485 128 485 194 c 0
 485 270 453 304 395 304 c 0
 343 304 321 264 321 196 c 0
 321 131 346 97 395 97 c 0
EndSplineSet
EndChar
StartChar: uni0E41
Encoding: 182 3649 184
Width: 1320
Flags: W
HStem: -11 108<355.3 503.5 970.3 1109.4> 304 93<372.422 493.1 987.422 1109.4> 1129 20G<191 351 806 966>
VStem: 191 160<111.5 279.2 369 1149> 509 95<108.2 290.2> 806 160<111.5 279.2 369 1149> 1124 95<108.2 279.8>
Fore
191 1149 m 1
 351 1149 l 1
 351 369 l 1
 368 388 393 397 427 397 c 0
 532 397 604 324 604 196 c 0
 604 60 533 -11 403 -11 c 0
 262 -11 191 82 191 258 c 2
 191 1149 l 1
419 97 m 0
 484 97 509 128 509 194 c 0
 509 268 476 304 419 304 c 0
 367 304 345 260 345 196 c 0
 345 131 370 97 419 97 c 0
806 1149 m 1
 966 1149 l 1
 966 369 l 1
 983 388 1008 397 1042 397 c 0
 1156 397 1219 316 1219 175 c 0
 1219 68 1148 -11 1018 -11 c 0
 877 -11 806 82 806 258 c 2
 806 1149 l 1
1034 97 m 0
 1092 97 1124 128 1124 194 c 0
 1124 260 1092 304 1034 304 c 0
 982 304 960 260 960 196 c 0
 960 131 985 97 1034 97 c 0
EndSplineSet
EndChar
StartChar: uni0E42
Encoding: 183 3650 185
Width: 1100
Flags: HW
HStem: -11 108<725.3 863.1> 304 93<746.068 870.9> 1603 140<623.071 931.419> 1704 140<314.9 606.198>
VStem: 561 160<112.8 284.4 369 1313.8> 879 96<113.9 282.9>
Fore
230 1560 m 1
 697.317 1497.91 721 1308.4 721 1132 c 2
 721 369 l 1
 738 386 764 397 798 397 c 0
 930 397 975 294 975 175 c 0
 975 54 908 -11 773 -11 c 0
 642 -11 561 78 561 258 c 2
 561 1130 l 2
 557.883 1312.82 529.149 1321.98 396 1392 c 0
 327 1421 202 1442 21 1455 c 1
 47.8181 1613.56 165 1844 431 1844 c 0xdc
 573.223 1844 680.516 1743 872 1743 c 0
 950 1743 1011 1763 1056 1804 c 1
 1034 1650 l 1
 975 1619 910 1603 839 1603 c 0xec
 664.431 1603 562.075 1704 415 1704 c 0
 338 1704 277 1653 230 1560 c 1
789 97 m 0
 846 97 879 134 879 201 c 0
 879 264 852 304 789 304 c 0
 741 304 715 264 715 196 c 0
 715 132 740 97 789 97 c 0
EndSplineSet
EndChar
StartChar: uni0E43
Encoding: 184 3651 186
Width: 1000
Flags: HW
HStem: -11 108<703.5 837.4> 304 93<716.193 850.4> 1266 112<217.5 438.1> 1683 156<486 597.118>
VStem: 66 131<1399.7 1622> 534 160<112.8 285.7 369 1366.58> 760 139<1138 1586.9> 852 95<112.1 286.3>
Fore
899 1505 m 0xfe
 899 1124 694 1269.95 694 911 c 2
 694 369 l 1
 705 383 730 397 770 397 c 0
 890 397 947 325 947 175 c 0xfd
 947 51 880 -11 746 -11 c 0
 600 -11 534 75 534 258 c 2
 534 913 l 2
 534 1261.91 760 1216.69 760 1479 c 0
 760 1645.98 578.86 1681.81 518 1683 c 1
 599 1592 610 1475 536 1367 c 0
 488 1296 412 1266 325 1266 c 0
 160 1266 66 1335 66 1496 c 0
 66 1735 310 1839 486 1839 c 0
 625 1839 730 1795 797 1720 c 0
 867 1641 899 1568 899 1505 c 0xfe
762 97 m 0
 820 97 852 131 852 194 c 0
 852 265 830 304 762 304 c 0
 711 304 688 265 688 196 c 0
 688 132 717 97 762 97 c 0
320 1629 m 0
 241 1629 197 1595 197 1505 c 0
 197 1424 243 1378 328 1378 c 0
 420 1378 470 1424 470 1509 c 0
 470 1585 420 1629 320 1629 c 0
EndSplineSet
EndChar
StartChar: uni0E44
Encoding: 185 3652 187
Width: 1030
Flags: HW
HStem: -11 108<675.3 813.1> 304 93<696.138 813.1> 1326 114<116.8 301.9> 1694 145<421.1 504.3>
VStem: 511 160<112.8 284.4 369 1661> 829 95<113.9 282.9>
Fore
671 1608 m 2
 671 369 l 1
 694 391 721 396 747 397 c 0
 864 395 924 320 924 175 c 0
 924 56 854 -11 723 -11 c 0
 573 -11 508 82 511 258 c 2
 511 1594 l 2
 511 1661 495 1694 464 1694 c 0
 431 1698 396 1608 373 1488 c 0
 356 1400 271 1326 168 1326 c 0
 100 1326 48 1351 11 1400 c 0
 -25 1448 -74 1577 -135 1788 c 1
 14 1788 l 1
 72 1573 l 2
 96 1484 130 1440 174 1440 c 0
 280.6 1440 270 1680 341 1771 c 0
 371.812 1810.49 411 1839 486 1839 c 0
 610 1839 672 1762 671 1608 c 2
739 97 m 0
 796 97 829 134 829 201 c 0
 829 264 796 304 739 304 c 0
 688 304 665 264 665 196 c 0
 665 132 690 97 739 97 c 0
EndSplineSet
EndChar
StartChar: uni0E45
Encoding: 186 3653 188
Width: 1000
Flags: HW
HStem: 989 160<306.6 688.8>
VStem: 723 160<-380 952.6>
Fore
449 1149 m 0
 673.203 1149 883 1069.8 883 753 c 2
 883 -380 l 1
 723 -380 l 1
 723 729 l 2
 723 901 636 989 460 989 c 0
 342 989 268 928 238 811 c 1
 65 837 l 1
 77.232 894.941 141.8 1149 449 1149 c 0
EndSplineSet
EndChar
StartChar: uni0E46
Encoding: 187 3654 189
Width: 1100
Flags: MW
HStem: 512 95<272.7 430> 808 92<322.743 419> 887 160<555 555> 985 170<699 699>
VStem: 139 130<633.7 793.6> 440 98<632.2 796> 788 160<-374 904.1>
Fore
352 607 m 0
 412 607 440 652 440 718 c 0
 440 778 404 808 354 808 c 0
 300 808 269 775 269 713 c 0
 269 652 291 607 352 607 c 0
699 1155 m 1
 885.993 1124.23 948 893.445 948 789 c 2
 948 -374 l 1
 788 -374 l 1
 788 817 l 2
 788 884 749 956 699 985 c 1
 555 887 l 1
 396 985 l 1
 369 966 349 935 337 892 c 1
 357 901 379 900 405 900 c 0
 484 900 538 835 538 732 c 0
 538 588 468 512 340 512 c 0
 194 512 139 612 139 756 c 0
 139 995.4 287.002 1106.41 396 1155 c 1
 396 1154 449 1118 555 1047 c 1
 699 1155 l 1
EndSplineSet
EndChar
StartChar: uni0E47
Encoding: 188 3655 190
Width: 0
Flags: MW
HStem: 1284 133<-504.477 -455 -504.477 -414> 1372 152<-808.6 -683.053> 1417 43<-495.7 -445> 1583 53<-495.9 -399.7> 1660 118<-882.281 -519.871>
VStem: -1035 148<1460.8 1628.84> -575 62<1471.6 1570.3> -385 93<1472.2 1535.12>
AnchorPoint: "AboveMark" -663 1227 mark 0
AnchorPoint: "AboveBase" -290 1227 mark 0
Fore
-453 1583 m 0x3f
 -486 1583 -513 1558 -513 1517 c 0
 -513 1482 -484 1460 -445 1460 c 0
 -408 1460 -385 1483 -385 1519 c 0
 -385 1558 -412 1583 -453 1583 c 0x3f
-455 1417 m 1
 -553.953 1417 -575 1483.23 -575 1522 c 0
 -575 1590 -516 1636 -452 1636 c 0
 -384 1636 -328 1610 -312 1566 c 0
 -302 1538 -292 1509 -292 1476 c 0
 -292 1370 -360 1284 -468 1284 c 0
 -652.561 1284 -677.062 1372 -754 1372 c 0
 -796 1372 -785 1298 -795 1284 c 1
 -962.748 1284 -1035 1398.12 -1035 1510 c 0
 -1035 1617.2 -979.964 1778 -641 1778 c 0
 -551.359 1778 -434.919 1786.23 -397 1894 c 1
 -255 1894 l 1
 -264.526 1793.03 -366.145 1699.91 -459 1675 c 0
 -491 1666 -546.99 1660 -628 1660 c 0
 -823.601 1660 -885.599 1600.26 -887 1505 c 0
 -883 1471 -870 1426 -839 1430 c 1
 -834.775 1470.13 -822 1524 -754 1524 c 0x5f
 -699.425 1524 -645.187 1451.51 -580 1426 c 0
 -547 1414 -487 1398 -455 1417 c 1
EndSplineSet
EndChar
StartChar: uni0E48
Encoding: 189 3656 191
Width: 0
Flags: W
VStem: -333 142<1826 2106>
AnchorPoint: "AboveMark" -262 1740 mark 0
Fore
-333 2106 m 1
 -191 2106 l 1
 -191 1826 l 1
 -333 1826 l 1
 -333 2106 l 1
EndSplineSet
Substitution: 0 65534 'loww' uni0E48.low
MultipleSubs: 0 65534 'amtn' uni0E4D uni0E48
EndChar
StartChar: uni0E49
Encoding: 190 3657 192
Width: 0
Flags: W
HStem: 1882 63<-583.5 -490.686> 2102 68<-575.7 -479.5>
VStem: -679 73<1969.4 2078.6> -448 99<1969.4 2083.8>
AnchorPoint: "AboveMark" -286 1740 mark 0
Fore
-397 1848 m 1
 -166.875 1934.05 -95.0642 2095.81 -75 2156 c 1
 67 2156 l 1
 34 2021 -51 1910 -187 1825 c 0
 -317 1748 -422 1708 -591 1703 c 1
 -591 1783 l 1
 -541 1798 -504 1831 -489 1893 c 1
 -506 1886 -524 1882 -543 1882 c 0
 -618 1882 -679 1939 -679 2020 c 0
 -679 2110 -614 2170 -539 2170 c 0
 -418 2170 -349 2102 -349 2009 c 0
 -349 1950 -367 1888 -397 1848 c 1
-525 1945 m 0
 -488 1945 -448 1982 -448 2024 c 0
 -448 2070 -490 2102 -525 2102 c 0
 -564 2102 -606 2066 -606 2024 c 0
 -606 1982 -570 1945 -525 1945 c 0
EndSplineSet
Substitution: 0 65534 'loww' uni0E49.low
MultipleSubs: 0 65534 'amtn' uni0E4D uni0E49
EndChar
StartChar: uni0E4A
Encoding: 191 3658 193
Width: 0
Flags: HMW
HStem: 1668 68<-684.2 -595.8> 1856 58<-688.7 -596.4> 1902 134<-507 -507> 2020 134<-647 -647 -365 -365>
VStem: -872 126.716<1826.96 1960.75> -579 54<1749.6 1836.7> -273 121.494<1827.47 1944>
AnchorPoint: "AboveMark" -458 1740 mark 0
Fore
-579 1799 m 0
 -579 1828 -606 1856 -638 1856 c 0
 -677 1856 -696 1832 -696 1792 c 0
 -696 1760 -674 1736 -640 1736 c 0
 -606 1736 -579 1761 -579 1799 c 0
-741 1837 m 1
 -740.953 1837.42 -726.762 1914 -635 1914 c 0
 -566 1914 -525 1860 -525 1803 c 0
 -525 1712 -586 1668 -676 1668 c 0
 -802 1668 -872 1754 -872 1886 c 0
 -872 2046.8 -714.88 2129.32 -647 2154 c 1
 -507 2036 l 1
 -365 2154 l 1
 -308 2135 -255 2099 -215 2042 c 0
 -174.868 1984.67 -151.506 1939.41 -151.506 1880.41 c 0
 -151.506 1867.37 -152.647 1853.66 -155 1839 c 1
 -10 2169 l 1
 125 2169 l 1
 124 2169 -4 1832 -4 1832 c 2
 -58.2688 1684.95 -267.331 1672 -325 1672 c 1
 -290 1725 -273 1781 -273 1840 c 0
 -273 1920 -311 1987 -365 2020 c 1
 -507 1902 l 1
 -548 1937 -606 1993 -647 2020 c 1
 -700.15 1998.51 -745.284 1940.48 -745.284 1872.94 c 0
 -745.284 1861.2 -743.921 1849.17 -741 1837 c 1
EndSplineSet
Substitution: 0 65534 'loww' uni0E4A.low
MultipleSubs: 0 65534 'amtn' uni0E4D uni0E4A
EndChar
StartChar: uni0E4B
Encoding: 192 3659 194
Width: 0
Flags: W
HStem: 1812 142<-590 -448 -306 -164>
VStem: -448 142<1670 1812 1954 2096>
AnchorPoint: "AboveMark" -377 1640 mark 0
Fore
-164 1812 m 1
 -306 1812 l 1
 -306 1670 l 1
 -448 1670 l 1
 -448 1812 l 1
 -590 1812 l 1
 -590 1954 l 1
 -448 1954 l 1
 -448 2096 l 1
 -306 2096 l 1
 -306 1954 l 1
 -164 1954 l 1
 -164 1812 l 1
EndSplineSet
Substitution: 0 65534 'loww' uni0E4B.low
MultipleSubs: 0 65534 'amtn' uni0E4D uni0E4B
EndChar
StartChar: uni0E4C
Encoding: 193 3660 195
Width: 0
Flags: W
HStem: 1621 84<-466.4 -346.8>
VStem: -617 113<1728.3 1870> -314 105<1723.5 1874.3>
AnchorPoint: "AboveMark" -389 1740 mark 0
Fore
-617 1805 m 0
 -617 2114.11 -242.233 1974.3 -127 2169 c 1
 28 2169 l 1
 15.8854 2111.46 -113.636 1981.07 -321 1942 c 1
 -248 1928 -209 1864 -209 1789 c 0
 -209 1716 -272 1621 -389 1621 c 0
 -524 1621 -617 1700 -617 1805 c 0
-409 1885 m 0
 -463 1885 -504 1852 -504 1792 c 0
 -504 1743 -452 1705 -404 1705 c 0
 -360 1705 -314 1740 -314 1795 c 0
 -314 1856 -356 1885 -409 1885 c 0
EndSplineSet
Substitution: 0 65534 'loww' uni0E4C.low
MultipleSubs: 0 65534 'amtn' uni0E4D uni0E4C
EndChar
StartChar: uni0E4D
Encoding: 194 3661 196
Width: 0
Flags: W
HStem: 1212 138<-365.2 -228.7> 1521 147<-362.6 -228.7>
VStem: -527 147<1364.5 1503.6> -207 141<1368.4 1506.2>
AnchorPoint: "AboveMark" -262 1740 basemark 0
AnchorPoint: "AboveBase" -140 1227 mark 0
Fore
-299 1668 m 0
 -156 1668 -66 1576 -66 1441 c 0
 -66 1304 -148 1212 -299 1212 c 0
 -436 1212 -527 1294 -527 1441 c 0
 -527 1576 -439 1668 -299 1668 c 0
-295 1521 m 0
 -347 1521 -380 1488 -380 1436 c 0
 -380 1381 -349 1350 -295 1350 c 0
 -244 1350 -207 1384 -207 1436 c 0
 -207 1490 -244 1521 -295 1521 c 0
EndSplineSet
Substitution: 0 65534 'high' uni0E4D.high
EndChar
StartChar: uni0E4E
Encoding: 195 3662 197
Width: 0
Flags: HW
HStem: 1444 110<-349 -135> 1686 112<-375.8 -168> 1925 111<-380.5 -167.625>
VStem: -543 123<1569.84 1678> -520 123<1807.5 1916.7>
AnchorPoint: "AboveBase" -140 1227 mark 0
Fore
-520 1872 m 0xe8
 -520 1946.26 -462.703 2036 -279 2036 c 0
 -223 2036 -164 2028 -102 2013 c 1
 -102 1901 l 1
 -165 1917 -221 1925 -270 1925 c 0
 -355 1925 -397 1905 -397 1866 c 0xe8
 -397 1821 -344 1798 -238 1798 c 2
 -168 1798 l 1
 -168 1686 l 1
 -233 1686 l 2
 -358 1686 -420 1666 -420 1626 c 0
 -420 1582.8 -330.9 1554 -213 1554 c 2
 -135 1554 l 1
 -135 1444 l 1
 -219 1444 l 2
 -319 1444 -398 1461 -456 1495 c 0
 -514 1529 -543 1569 -543 1616 c 0xf0
 -542 1679 -490 1729 -434 1743 c 1
 -491 1772 -520 1815 -520 1872 c 0xe8
EndSplineSet
EndChar
StartChar: uni0E4F
Encoding: 196 3663 198
Width: 1250
Flags: HW
HStem: -21 121<430.1 905.202> 258 103<503.222 730.778> 658 105<502.502 731.497> 917 123<470.1 803.2>
VStem: 97 109<319.2 654.9> 363 101<393.56 625.22> 770 100<393.56 625.22> 1029 108<201.889 700.1>
Fore
1029 508 m 0
 1029 739.472 842.433 917 617 917 c 0
 504 917 407 877 327 797 c 0
 246 717 206 621 206 508 c 0
 206 271.542 397.001 100 617 100 c 0
 838.694 100 1029 272.53 1029 508 c 0
464 509 m 0
 464 420.2 529.478 361 617 361 c 0
 704.522 361 770 420.2 770 509 c 0
 770 598.4 705.075 658 617 658 c 0
 528.925 658 464 598.4 464 509 c 0
1137 509 m 0
 1137 203.772 897.828 -21 616 -21 c 0
 473 -21 351 31 250 134 c 0
 148 238 97 363 97 509 c 0
 97 656 148 781 250 884 c 0
 351 988 473 1040 616 1040 c 0
 760 1040 883 988 985 884 c 0
 1086 781 1137 656 1137 509 c 0
870 511 m 0
 870 367.193 767.702 258 616 258 c 0
 464.176 258 363 366.783 363 511 c 0
 363 654.545 463.391 763 616 763 c 0
 766.825 763 870 655.85 870 511 c 0
EndSplineSet
EndChar
StartChar: uni0E50
Encoding: 197 3664 199
Width: 1250
Flags: HW
HStem: -10 173<413.593 855.354> 751 173<397.899 869.185>
VStem: 150 172<227.68 661.134> 939 173<249.572 657.515>
Fore
322 457 m 0
 322 280.6 462.379 163 625 163 c 0
 802.195 163 939 297.44 939 457 c 0
 939 611.242 812.834 751 625 751 c 0
 450.307 751 322 614.026 322 457 c 0
622 -10 m 4
 362.56 -10 150 182.291 150 458 c 0
 150 705 347.581 924 622 924 c 0
 897 924 1112 720 1112 458 c 0
 1112 207 900.18 -10 622 -10 c 4
EndSplineSet
EndChar
StartChar: uni0E51
Encoding: 198 3665 200
Width: 1300
Flags: HW
HStem: -10 155<402.9 818.9> 203 159<436.5 634.1> 409 76<600.2 666.679> 603 84<600.8 695.7> 765 159<457.9 888.2>
VStem: 212 178<390.2 719.1> 489 96<500.8 585.3> 709 144<462 592.2> 934 173<296.646 713.128>
Fore
612 924 m 0
 1008 924 1107 653.098 1107 453 c 0
 1107 164.5 904.208 -10.8607 583 -10 c 0
 420 -10 277 34 185 115 c 1
 271 254 l 1
 351 186 444 146 581 145 c 0
 764 151 924 258 934 450 c 0
 935 659 827 761 623 765 c 0
 496 765 392 678 390 541 c 0
 393 425 468 362 573 362 c 0
 620 362 663 378 667 421 c 1
 656 413 640 409 620 409 c 0
 534 409 489 462 489 550 c 0
 489 630 558 687 653 687 c 0
 786 687 853 588 853 462 c 0
 853 312 732 203 572 203 c 0
 384 203 212 330 212 552 c 0
 212 774 394 924 612 924 c 0
585 545 m 0
 585 511 611 485 647 485 c 0
 678 485 709 509 709 548 c 0
 709 582 684 603 645 603 c 0
 611 603 585 576 585 545 c 0
EndSplineSet
EndChar
StartChar: uni0E52
Encoding: 199 3666 201
Width: 1350
Flags: HMW
HStem: 0 174<511.8 1041> 343 110<606.2 701.1> 571 108<653 670.5> 674 157<832 832> 744 180<718 718 936 936>
VStem: 456 135<470.1 570> 715 111<465.3 551.1> 1041 173<174 594.183>
Fore
591 513 m 0
 591 480 617 453 653 453 c 0
 690 453 715 477 715 516 c 0
 715 543 690 571 651 571 c 0
 617 571 591 555 591 513 c 0
534 0 m 18
 444 0 392 36 327 92 c 0
 141.596 251.382 307.957 589.291 75 1134 c 1
 269 1134 l 1
 329 979 370 788 393 560 c 0
 417 362 408 309 445 252 c 0
 475 206 528 174 582 174 c 2
 1041 174 l 1
 1041 506 l 2
 1041 648.8 975.785 715.582 936 744 c 1
 936 743 901 720 832 674 c 5
 718 744 l 1
 693 733 672 711 653 679 c 1
 680 679 l 18
 738 679 826 615 826 511 c 0
 826 426 762 343 659 343 c 0
 528 343 456 447 456 570 c 0
 456 664 480 724 526 790 c 0
 555 832 655 906 718 924 c 1
 718 923 756 892 832 831 c 5
 936 924 l 1
 998.937 911.637 1136.91 815.916 1187 679 c 0
 1205 631 1214 573 1214 506 c 2
 1214 0 l 1
 534 0 l 18
EndSplineSet
EndChar
StartChar: uni0E53
Encoding: 200 3667 202
Width: 1400
Flags: MW
HStem: -11 103<322.1 437.8> 210 122<368.5 389> 753 171<296.3 542 859.5 1106.5>
VStem: 89 175<413.368 704.9> 436 115<107.8 193.6> 644 130<216 370.7> 1129 170<314.7 699.5>
Fore
378 92 m 0
 424 92 436 118 436 152 c 0
 436 184 408 210 370 210 c 0
 340 210 314 184 314 160 c 0
 314 114 335 92 378 92 c 0
89 561 m 0
 89 768 192 924 403 924 c 0
 552 924 652 862 705 768 c 1
 756 856 839 924 967 924 c 0
 1184 924 1299 779 1299 489 c 0
 1299 312 1275 195 1229 0 c 1
 1053 0 l 1
 1104 252 1129 360 1129 511 c 0
 1129 656 1078 753 983 753 c 0
 888 753 824 664 807 570 c 0
 788 465 775 338 774 216 c 1
 644 216 l 1
 645 335 616 472 597 573 c 0
 581 657 512 753 412 753 c 0
 323 753 264 680 264 597 c 0
 264 491 270 397 301 314 c 1
 326 326 354 332 383 332 c 0
 480 332 551 256 551 163 c 0
 551 69 497 -11 394 -11 c 0
 288 -11 238 15 198 94 c 0
 144 200 89 424 89 561 c 0
EndSplineSet
EndChar
StartChar: uni0E54
Encoding: 201 3668 203
Width: 1550
Flags: HW
HStem: -6 164<378.1 674.436> 580 112<982.7 1090.6> 762 162<350.1 1130>
VStem: 127 176<242.6 709.3> 813 148<450 561.8> 1112 115<448.7 556.6> 1278 184<1043.86 1284.72>
Fore
1038 313 m 1
 1127.94 223.056 1251.13 259.216 1382 145 c 1
 1253 -2 l 1
 1195 49 1145 77 1030 76 c 0
 929 78 676 -6 580 -6 c 0
 330 -6 127 215 127 469 c 0
 127 772 361 926 672 924 c 2
 918 924 l 2
 1130 924 1250 1037 1278 1262 c 1
 1462 1262 l 1
 1431.94 931.342 1240.69 762 913 762 c 2
 653 762 l 2
 420 762 303 652 303 461 c 0
 303 293 427 155 590 158 c 0
 651 158 769 182 942 231 c 1
 883 272 813 369 813 459 c 0
 813 604 904 692 1036 692 c 0
 1140 692 1230 605 1227 504 c 0
 1227 400 1144 316 1038 313 c 1
1036 428 m 0
 1076 427 1113 461 1112 502 c 0
 1113 544 1078 581 1036 580 c 0
 995 581 961 548 961 502 c 0
 961 462 996 427 1036 428 c 0
EndSplineSet
EndChar
StartChar: uni0E55
Encoding: 202 3669 204
Width: 1550
Flags: HW
HStem: -6 164<389.8 674.436> 580 112<982.7 1088> 762 160<742.3 913> 1073 113<738.4 828.1>
VStem: 127 176<242.6 709.3> 602 115<946.174 1037.9> 813 148<450 561.8> 868 115<949.36 1048.3> 1112 115<448.7 551.4> 1278 184<1024.12 1284.27>
Fore
1038 313 m 1xfec0
 1129.17 221.829 1249.24 259.115 1380 145 c 1
 1253 -2 l 1
 1195 49 1140 76 1030 76 c 0
 929 76 679 -8 580 -6 c 0
 332 0 127 215 127 469 c 0
 127 748 331 907 618 922 c 1
 607 948 602 973 602 997 c 0
 602 1100 692 1186 793 1186 c 0
 900 1186 983 1092 983 997 c 0xfdc0
 983 970 978 947 969 926 c 1
 1150 945 1253 1057 1278 1262 c 1
 1462 1262 l 1
 1431.94 931.342 1240.69 762 913 762 c 2
 653 762 l 2
 420 762 303 652 303 461 c 0
 303 293 436 158 590 158 c 0
 651 158 769 182 942 231 c 1
 883 272 813 369 813 459 c 0
 813 588 904 692 1036 692 c 0
 1140 692 1227 604 1227 504 c 0
 1227 400 1144 316 1038 313 c 1xfec0
793 922 m 0
 820 922 868 956 868 995 c 0
 868 1036 820 1073 793 1073 c 0
 751 1073 717 1028 717 995 c 0
 717 956 754 922 793 922 c 0
1036 428 m 0
 1076 428 1112 461 1112 502 c 0
 1112 540 1076 580 1036 580 c 0
 995 580 961 548 961 502 c 0xfec0
 960 462 996 428 1036 428 c 0
EndSplineSet
EndChar
StartChar: uni0E56
Encoding: 203 3670 205
Width: 1300
Flags: HW
HStem: -16 155<639.7 946.691> 481 113<499.7 606.3> 760 168<539.473 946.993>
VStem: 328 149<338 457.6> 629 112<352.3 457.6> 1020 176<204.34 688.72>
Fore
1020 436 m 0
 1020 630.4 879.148 760 653 760 c 0
 540 760 439 741 348 702 c 1
 247 945 135 1131 12 1262 c 1
 260 1262 l 1
 337 1141 391 1015 422 885 c 1
 498 914 575 928 653 928 c 0
 974.956 928 1196 731.2 1196 436 c 0
 1196 160.701 990.016 -16 719 -16 c 0
 488.4 -16 328 154.687 328 338 c 0
 328 489.422 424 594 551 594 c 0
 652.968 594 741 512.569 741 406 c 0
 741 324.598 686.873 224.254 555 215 c 1
 575 176 658 138 719 139 c 0
 894.147 139 1020 257.8 1020 436 c 0
553 330 m 0
 592 329 630 364 629 403 c 0
 630 445 594 482 553 481 c 0
 512 482 476 445 477 403 c 0
 476 364 514 329 553 330 c 0
EndSplineSet
EndChar
StartChar: uni0E57
Encoding: 204 3671 206
Width: 1540
Flags: HW
HStem: -16 112<334.5 447.6> 0 178<1042 1172> 248 114<339.7 448.9> 760 164<316.3 499.6 702.8 903>
VStem: 127 176<322.288 716.8> 469 115<115.5 226> 514 174<467 720.5> 899 178<298.803 682.22> 1229 188<198.9 1130>
Fore
393 -16 m 0xbd80
 286.6 -16 127 59.4375 127 436 c 0
 127 761 220 924 406 924 c 0
 498 924 563 875 602 776 c 1
 643 875 708 924 799 924 c 0
 984 924 1077 761 1077 436 c 0
 1077 349 1065 263 1042 178 c 1
 1057 178 l 2
 1172 178 1229 231 1229 338 c 2
 1229 1130 l 1
 1417 1130 l 1
 1417 334 l 2
 1417 111 1297 0 1057 0 c 2
 791 0 l 1
 791 10 l 1
 835.478 80.8349 899 276.055 899 436 c 0
 899 625.4 879 760 799 760 c 0
 725 760 688 662 688 467 c 1
 514 467 l 1x7b80
 514 662 478 760 406 760 c 0
 337 760 303 652 303 436 c 0
 303 389 305 359 309 348 c 1
 329 357 358 362 395 362 c 0
 508.837 362 584 271.25 584 172 c 0
 584 68.5945 500.562 -16 393 -16 c 0xbd80
393 96 m 0xbd80
 435 96 469 129 469 174 c 0
 469 214 436 248 393 248 c 0
 352 248 317 217 317 174 c 0
 317 132 348 96 393 96 c 0xbd80
EndSplineSet
EndChar
StartChar: uni0E58
Encoding: 205 3672 207
Width: 1580
Flags: HW
HStem: 0 21G<575 700> 283 166<705.3 828.884> 309 115<1146.8 1257.3> 575 113<1149.4 1267.7> 764.503 152.497<364.073 1029.25>
VStem: 127 176<241.375 702.486> 532 168<141 264.5> 1014 114<446 561.7> 1278 184<442.1 553.9 1175.21 1262> 1288 170<163.422 381>
Fore
575 0 m 6xdf40
 319.267 0 127 193.41 127 469 c 4
 127 648.605 202.662 886.294 613 917 c 4
 925.215 936.513 1275.39 875.488 1278 1262 c 5
 1462 1262 l 5
 1423.28 841.205 1148.72 788.876 979 776 c 4
 653.245 749.94 303 832.179 303 461 c 4
 303 292.057 412.4 179.492 532 170 c 5
 532 311.793 586.256 449 713 449 c 4xdf80
 818.132 449 893.706 369.213 963 287 c 4
 1041 203 1048 168 1155 154 c 4
 1212.26 146.466 1285.67 200.478 1288 324 c 5
 1269 314 1240 309 1202 309 c 4xbf40
 1091.59 309 1014 398.472 1014 500 c 4
 1014 602.17 1098.71 688 1204 688 c 4
 1356.4 688 1458 562.422 1458 381 c 4
 1458 67.7836 1277.04 -12 1155 -12 c 4
 936.608 -12 809.065 283 743 283 c 4
 714 283 700 236 700 141 c 6
 700 0 l 5
 575 0 l 6xdf40
1204 424 m 4xbf
 1245 424 1280 455 1280 498 c 4
 1280 541 1253 575 1204 575 c 4
 1162 575 1128 547 1128 498 c 4
 1128 458 1160 424 1204 424 c 4xbf
EndSplineSet
EndChar
StartChar: uni0E59
Encoding: 206 3673 208
Width: 1500
Flags: HW
HStem: -16 112<339.7 447.6> 248 114<341.615 445> 555 166<1028.61 1180.7> 760 164<381.72 510.084 829.8 944.686>
VStem: 127 176<322.707 792.365> 469 115<119.4 224.7> 1214 185<838.336 1139.47>
Fore
874 924 m 4
 1001.22 924 1046.01 721 1104 721 c 4
 1163 721 1200 857 1214 1130 c 5
 1399 1130 l 5
 1387.33 898.649 1352.52 555 1120 555 c 4
 958.824 555 928.374 760 874 760 c 4
 840 760 805 708 768 604 c 5
 999 0 l 5
 825 0 l 5
 621 546 l 6
 540.808 753.905 500.142 760 467 760 c 4
 401.4 760 303 710.127 303 436 c 4
 303 395 305 366 309 348 c 5
 329 357 358 362 395 362 c 4
 508.837 362 584 271.25 584 172 c 4
 584 68.5945 500.562 -16 393 -16 c 4
 286.6 -16 127 59.4375 127 436 c 4
 127 710.536 218.809 924 467 924 c 4
 570 924 649 875 702 776 c 5
 745 875 802 924 874 924 c 4
393 96 m 4
 435 96 469 132 469 174 c 4
 469 213 433 248 393 248 c 4
 353 248 317 213 317 174 c 4
 317 132 352 96 393 96 c 4
EndSplineSet
EndChar
StartChar: uni0E5A
Encoding: 207 3674 209
Width: 1400
Flags: HW
HStem: 0 21G<845 1025 1065 1253> 646 212<267.8 487> 995 111<271.2 385.6>
VStem: 125 130<867.9 982.3> 403 122<875.677 981> 845 180<0 777 1038.13 1120> 1065 188<0 1120>
Fore
462 803 m 1
 507.811 783.367 814.958 812.067 845 1120 c 1
 1025 1120 l 1
 1025 0 l 1
 845 0 l 1
 845 777 l 1
 793.779 732.182 701.8 646 487 646 c 0
 304 646 125 728 125 885 c 0
 125 1061.8 272.436 1106 349 1106 c 0
 424.162 1106 525 1028.13 525 939 c 0
 525 891 511 845 462 803 c 1
255 929 m 0
 255 882 281 858 325 858 c 0
 369 858 403 884 403 929 c 0
 403 969 373 995 331 995 c 0
 285 995 255 970 255 929 c 0
1253 0 m 1
 1065 0 l 1
 1065 1120 l 1
 1253 1120 l 1
 1253 0 l 1
EndSplineSet
EndChar
StartChar: uni0E5B
Encoding: 208 3675 210
Width: 2370
Flags: HW
HStem: -10 158<450.476 774.4> 218 108<1808.91 2358> 272 158<572.728 787.5> 340 8<1616 1776> 462 88<539.638 620.3> 658 75<539 622.2> 812 174<423.8 644.23>
VStem: 133 154<260.7 804.03> 380 144<500 646.2> 632 84<562.1 644> 796 165<541.587 709.2>
Fore
1973 218 m 2xdfe0
 1840.92 218 1793.5 340 1776 340 c 0xdfe0
 1732.72 340 1704.84 94 1600 94 c 0
 1538.5 94 1512.39 223.845 1488 297 c 8
 1480 321 1461 351 1450 351 c 0
 1407.17 351 1391 88 1292 88 c 0
 1205.08 88 1193.39 173.448 1158 315 c 0
 1154 330 1151 375 1145 375 c 0
 1115.1 375 1115.33 274.074 1004 138 c 0
 918 33 792 -10 604 -10 c 0
 359.67 -10 133 198 133 483 c 0
 133 881.923 436.251 986 578 986 c 0
 884.254 986 961 770.799 961 611 c 0
 961 522 915 426 875 388 c 0
 829 344 747 272 612 272 c 0xafe0
 539 272 480 296 434 348 c 0x9fe0
 403 383 380 418 380 500 c 0
 380 626.676 469.673 733 561 733 c 0
 657 733 716 672 716 600 c 0
 716 504 636 462 584 462 c 8
 566 462 540 471 540 471 c 1
 552 438 604 430 640 430 c 0xafe0
 764.8 430 796 561.067 796 626 c 0
 796 690 770 726 740 757 c 0
 708 790 624 812 572 812 c 0
 458 812 287 729.946 287 483 c 0
 287 237.664 486.828 148 608 148 c 0
 736 148 867 203 925 282 c 0
 1063.29 470.773 1051.46 615 1151 615 c 0
 1288.18 615 1244.01 357 1292 357 c 0
 1334.08 357 1349.34 493.952 1355 518 c 0
 1366 568 1395 615 1457 615 c 0
 1577.68 615 1543.58 348 1616 348 c 0
 1670 348 1661.68 507 1760 507 c 0
 1838.21 507 1848.16 326 1979 326 c 2
 2358 326 l 1
 2358 218 l 1
 1973 218 l 2xdfe0
632 605 m 0
 632 635 612 658 578 658 c 0
 548 658 524 636 524 602 c 0
 524 572 547 550 580 550 c 0
 611 550 632 572 632 605 c 0
EndSplineSet
EndChar
StartChar: afii301
Encoding: 211 8205 212
Width: 0
Flags: W
VStem: -36 72<-275 1114>
Fore
36 -275 m 1
 -36 -275 l 1
 -36 1114 l 1
 -170 978 l 1
 -219 1027 l 1
 -48 1196 l 1
 -219 1364 l 1
 -170 1413 l 1
 0 1242 l 1
 170 1413 l 1
 219 1364 l 1
 48 1196 l 1
 219 1027 l 1
 170 978 l 1
 36 1114 l 1
 36 -275 l 1
EndSplineSet
EndChar
StartChar: afii299
Encoding: 212 8206 213
Width: 0
Flags: W
HStem: 1163 71<-36 301>
VStem: -36 71<-275 1163>
Fore
430 1198 m 1
 213 984 l 1
 164 1033 l 1
 301 1163 l 1
 35 1163 l 1
 35 -275 l 1
 -36 -275 l 1
 -36 1234 l 1
 301 1234 l 1
 164 1364 l 1
 213 1413 l 1
 430 1198 l 1
EndSplineSet
EndChar
StartChar: afii300
Encoding: 213 8207 214
Width: 0
Flags: W
HStem: 1163 71<-302 -36>
VStem: -36 71<-275 1234>
Fore
35 -275 m 1
 -36 -275 l 1
 -36 1163 l 1
 -302 1163 l 1
 -165 1033 l 1
 -214 984 l 1
 -431 1198 l 1
 -214 1413 l 1
 -165 1364 l 1
 -302 1234 l 1
 35 1234 l 1
 35 -275 l 1
EndSplineSet
EndChar
StartChar: uni2010
Encoding: 214 8208 215
Width: 973
Flags: W
HStem: 580 165<190 815>
Fore
190 745 m 1
 815 745 l 1
 815 580 l 1
 190 580 l 1
 190 745 l 1
EndSplineSet
EndChar
StartChar: endash
Encoding: 215 8211 216
Width: 1125
Flags: W
HStem: 572 160<-4 1122>
Fore
1122 572 m 1
 -4 572 l 1
 -4 732 l 1
 1122 732 l 1
 1122 572 l 1
EndSplineSet
EndChar
StartChar: emdash
Encoding: 216 8212 217
Width: 1886
Flags: W
HStem: 572 160<-4 1866>
Fore
1866 572 m 1
 -4 572 l 1
 -4 732 l 1
 1866 732 l 1
 1866 572 l 1
EndSplineSet
EndChar
StartChar: afii00208
Encoding: 217 8213 218
Width: 1862
Flags: W
HStem: 572 160<110 1752>
Fore
1752 572 m 1
 110 572 l 1
 110 732 l 1
 1752 732 l 1
 1752 572 l 1
EndSplineSet
EndChar
StartChar: underscoredbl
Encoding: 218 8215 219
Width: 1118
Flags: W
HStem: -423 130<-16 1134> -212 130<-16 1134>
Fore
1134 -212 m 1
 -16 -212 l 1
 -16 -82 l 1
 1134 -82 l 1
 1134 -212 l 1
1134 -423 m 1
 -16 -423 l 1
 -16 -293 l 1
 1134 -293 l 1
 1134 -423 l 1
EndSplineSet
EndChar
StartChar: quoteleft
Encoding: 219 8216 220
Width: 450
Flags: W
Fore
335 997 m 1
 197 997 l 1
 -64 1556 l 1
 178 1556 l 1
 335 997 l 1
EndSplineSet
EndChar
StartChar: quoteright
Encoding: 220 8217 221
Width: 580
Flags: W
Fore
496 1556 m 1
 235 997 l 1
 97 997 l 1
 254 1556 l 1
 496 1556 l 1
EndSplineSet
EndChar
StartChar: quotesinglbase
Encoding: 221 8218 222
Width: 432
Flags: W
Fore
386 283 m 1
 125 -276 l 1
 -13 -276 l 1
 144 283 l 1
 386 283 l 1
EndSplineSet
EndChar
StartChar: quotereversed
Encoding: 222 8219 223
Width: 432
Flags: W
Fore
335 1556 m 1
 178 997 l 1
 -64 997 l 1
 197 1556 l 1
 335 1556 l 1
EndSplineSet
EndChar
StartChar: quotedblleft
Encoding: 223 8220 224
Width: 850
Flags: W
Fore
725 997 m 1
 591 997 l 1
 330 1556 l 1
 568 1556 l 1
 725 997 l 1
331 997 m 1
 197 997 l 1
 -64 1556 l 1
 174 1556 l 1
 331 997 l 1
EndSplineSet
EndChar
StartChar: quotedblright
Encoding: 224 8221 225
Width: 1000
Flags: W
Fore
896 1556 m 1
 635 997 l 1
 501 997 l 1
 658 1556 l 1
 896 1556 l 1
502 1556 m 1
 241 997 l 1
 107 997 l 1
 264 1556 l 1
 502 1556 l 1
EndSplineSet
EndChar
StartChar: quotedblbase
Encoding: 225 8222 226
Width: 814
Flags: W
Fore
781 283 m 1
 520 -276 l 1
 386 -276 l 1
 543 283 l 1
 781 283 l 1
387 283 m 1
 126 -276 l 1
 -8 -276 l 1
 149 283 l 1
 387 283 l 1
EndSplineSet
EndChar
StartChar: dagger
Encoding: 226 8224 227
Width: 1118
Flags: W
HStem: 1034 124<135 498 620 983>
VStem: 493 127<135 1039 1158 1556>
Fore
983 1034 m 1
 620 1039 l 1
 625 135 l 1
 493 135 l 1
 498 1039 l 1
 135 1034 l 1
 135 1163 l 1
 498 1158 l 1
 493 1556 l 1
 625 1556 l 1
 620 1158 l 1
 983 1163 l 1
 983 1034 l 1
EndSplineSet
EndChar
StartChar: daggerdbl
Encoding: 227 8225 228
Width: 1118
Flags: W
HStem: 507 124<135 498 620 983> 1044 124<135 498 620 983>
VStem: 493 127<124 512 1168 1556>
Fore
983 507 m 1
 620 512 l 1
 625 124 l 1
 493 124 l 1
 498 512 l 1
 135 507 l 1
 135 636 l 1
 498 631 l 1
 498 1049 l 1
 135 1044 l 1
 135 1173 l 1
 498 1168 l 1
 493 1556 l 1
 625 1556 l 1
 620 1168 l 1
 983 1173 l 1
 983 1044 l 1
 620 1049 l 1
 620 631 l 1
 983 636 l 1
 983 507 l 1
EndSplineSet
EndChar
StartChar: bullet
Encoding: 228 8226 229
Width: 950
Flags: HW
Fore
465 1013 m 0
 667.955 1013 817 851.305 817 662 c 0
 817 472.45 666.665 311 465 311 c 0
 270.579 311 114 465.248 114 662 c 0
 114 856.421 268.248 1013 465 1013 c 0
EndSplineSet
EndChar
StartChar: ellipsis
Encoding: 229 8230 230
Width: 1650
Flags: W
HStem: 0 223<177 381 735 939 1293 1497>
VStem: 177 204<0 223> 735 204<0 223> 1293 204<0 223>
CounterMasks: 1 00
Fore
1497 0 m 1
 1293 0 l 1
 1293 223 l 1
 1497 223 l 1
 1497 0 l 1
939 0 m 1
 735 0 l 1
 735 223 l 1
 939 223 l 1
 939 0 l 1
381 0 m 1
 177 0 l 1
 177 223 l 1
 381 223 l 1
 381 0 l 1
EndSplineSet
EndChar
StartChar: perthousand
Encoding: 230 8240 231
Width: 2848
Flags: HW
HStem: -29 133<1408.5 1680.41 2252.5 2524.41> 634 133<318.5 590.406> 721 133<1408.5 1680.72 2252.5 2524.72> 1384 133<318.5 590.72>
VStem: 102 178<735.751 1404.54> 629 178<743.595 1409.13> 1192 178<72.7513 741.536> 1719 178<80.5951 746.132> 2036 178<72.7513 741.536> 2563 178<80.5951 746.132>
Fore
455 1517 m 0xdfc0
 666.2 1517 807 1395.8 807 1076 c 0
 807 755.4 666.2 634 455 634 c 0
 243.2 634 102 757.5 102 1075 c 0
 102 1393.85 243.2 1517 455 1517 c 0xdfc0
1473 1489 m 1
 693 0 l 1
 528 0 l 1
 1308 1489 l 1
 1473 1489 l 1
1545 854 m 0xbfc0
 1756.2 854 1897 732.8 1897 413 c 0
 1897 93.5 1756.2 -29 1545 -29 c 0
 1333.2 -29 1192 94.5 1192 412 c 0
 1192 730.852 1333.2 854 1545 854 c 0xbfc0
455 767 m 0xdfc0
 559.159 767 629 820.304 629 1076 c 0
 629 1332.26 559.4 1384 455 1384 c 0
 350 1384 280 1328.49 280 1075 c 0
 280 814.039 350 767 455 767 c 0xdfc0
1545 104 m 0
 1649.16 104 1719 157.304 1719 413 c 0
 1719 669.255 1649.4 721 1545 721 c 0xbfc0
 1440 721 1370 665.489 1370 412 c 0
 1370 151.039 1440 104 1545 104 c 0
2389 854 m 0
 2600.2 854 2741 732.8 2741 413 c 0
 2741 93.5 2600.2 -29 2389 -29 c 0
 2177.2 -29 2036 94.5 2036 412 c 0
 2036 730.852 2177.2 854 2389 854 c 0
2389 104 m 0
 2493.16 104 2563 157.304 2563 413 c 0
 2563 669.255 2493.4 721 2389 721 c 0
 2284 721 2214 665.489 2214 412 c 0
 2214 151.039 2284 104 2389 104 c 0
EndSplineSet
EndChar
StartChar: minute
Encoding: 231 8242 232
Width: 602
Flags: W
Fore
571 1489 m 1
 273 870 l 1
 137 870 l 1
 331 1489 l 1
 571 1489 l 1
EndSplineSet
EndChar
StartChar: second
Encoding: 232 8243 233
Width: 972
Flags: W
Fore
567 1489 m 1
 269 870 l 1
 137 870 l 1
 331 1489 l 1
 567 1489 l 1
961 1489 m 1
 663 870 l 1
 531 870 l 1
 725 1489 l 1
 961 1489 l 1
EndSplineSet
EndChar
StartChar: guilsinglleft
Encoding: 233 8249 234
Width: 784
Flags: W
Fore
633 172 m 1
 123 608 l 1
 123 697 l 1
 633 1132 l 1
 633 933 l 1
 302 652 l 1
 633 371 l 1
 633 172 l 1
EndSplineSet
EndChar
StartChar: guilsinglright
Encoding: 234 8250 235
Width: 784
Flags: W
Fore
661 608 m 1
 151 172 l 1
 151 371 l 1
 482 652 l 1
 151 933 l 1
 151 1132 l 1
 661 697 l 1
 661 608 l 1
EndSplineSet
EndChar
StartChar: uni203E
Encoding: 236 8254 237
Width: 1118
Flags: W
HStem: 1658 131<-48 1118>
Fore
1118 1658 m 1
 -48 1658 l 1
 -48 1789 l 1
 1118 1789 l 1
 1118 1658 l 1
EndSplineSet
EndChar
StartChar: fraction
Encoding: 237 8260 238
Width: 886
Flags: W
HStem: 0 21G<-29 136>
Fore
916 1489 m 1
 136 0 l 1
 -29 0 l 1
 751 1489 l 1
 916 1489 l 1
EndSplineSet
EndChar
StartChar: uni207F
Encoding: 238 8319 239
Width: 1010
Flags: HW
HStem: 1368 151<498.728 727.358>
VStem: 125 171<566 1254 1388 1488> 718 172<566 1329.23>
Fore
586 1519 m 0
 694.737 1519 890 1478.2 890 1163 c 2
 890 566 l 1
 718 566 l 1
 718 1088 l 2
 718 1273.56 707.1 1368 541 1368 c 0
 492 1368 423.39 1356.53 296 1254 c 1
 296 566 l 1
 125 566 l 1
 125 1488 l 1
 296 1488 l 1
 296 1388 l 1
 442.626 1513.68 528 1519 586 1519 c 0
EndSplineSet
EndChar
StartChar: dottedcircle
Encoding: 239 9676 240
Width: 1255
Flags: HW
HStem: 7 121<565.399 655.084> 68 121<858.88 949.084> 98 121<299.88 389.68> 234 121<1024.88 1115.08> 249 121<157.399 247.084> 438 121<1099.88 1189.68> 445 121<36.3987 125.615> 679 121<51.3988 141.084 1086.4 1175.62> 868 121<156.88 247.084> 891 121<979.399 1069.08> 1011 121<346.399 435.615> 1034 121<790.88 881.084> 1079 121<572.399 661.615>
VStem: 22 121<460.801 549.086> 37 121<694.801 782.493> 143 121<264.801 352.493 883.801 971.615> 286 121<113.801 201.68> 332 121<1026.8 1115.09> 551 121<22.8009 110.493> 558 121<1094.8 1183.09> 777 121<1049.8 1137.62> 845 121<83.8009 171.615> 965 121<906.801 994.493> 1011 121<249.801 337.615> 1072 121<694.801 783.086> 1086 121<453.801 541.68>
Fore
203 868 m 0x0181
 167.523 868 143 894.001 143 928 c 0
 143 961.6 167 989 203 989 c 0
 239.6 989 264 961.55 264 928 c 0
 264 892.929 236.911 868 203 868 c 0x0181
392 1011 m 0x012040
 356.523 1011 332 1037 332 1071 c 0
 332 1104.91 356.922 1132 392 1132 c 0
 425.55 1132 453 1107.6 453 1071 c 0
 453 1035 425.6 1011 392 1011 c 0x012040
618 1079 m 0x010810
 582.523 1079 558 1105 558 1139 c 0
 558 1172.91 582.922 1200 618 1200 c 0
 651.55 1200 679 1175.6 679 1139 c 0
 679 1103 651.6 1079 618 1079 c 0x010810
82 445 m 0x0304
 46.5234 445 22 471.001 22 505 c 0
 22 538.912 46.9221 566 82 566 c 0
 115.55 566 143 541.6 143 505 c 0
 143 469 115.6 445 82 445 c 0x0304
203 249 m 0x0901
 167.523 249 143 275.001 143 309 c 0
 143 342.912 167.922 370 203 370 c 0
 237.999 370 264 342.456 264 309 c 0
 264 273.929 236.911 249 203 249 c 0x0901
346 98 m 0x210080
 310.523 98 286 124.001 286 158 c 0
 286 191.6 310 219 346 219 c 0
 379.953 219 407 195.055 407 158 c 0
 407 122 379.6 98 346 98 c 0x210080
611 7 m 0x810020
 575.523 7 551 33.0007 551 67 c 0
 551 100.912 575.922 128 611 128 c 0
 645.999 128 672 100.456 672 67 c 0
 672 31.9291 644.911 7 611 7 c 0x810020
905 68 m 0x410004
 869.523 68 845 94.0007 845 128 c 0x810004
 845 161.6 869 189 905 189 c 0x410004
 941.6 189 966 161.55 966 128 c 0x810004
 966 92.9291 938.911 68 905 68 c 0x410004
1071 234 m 0x110001
 1035.52 234 1011 260.001 1011 294 c 0
 1011 327.6 1035 355 1071 355 c 0
 1107.6 355 1132 327.55 1132 294 c 0
 1132 258.929 1104.91 234 1071 234 c 0x110001
1146 438 m 0x05000040
 1110.52 438 1086 464.001 1086 498 c 0
 1086 531.6 1110 559 1146 559 c 0
 1179.95 559 1207 535.055 1207 498 c 0
 1207 462 1179.6 438 1146 438 c 0x05000040
1132 679 m 0x010001
 1096.52 679 1072 705.001 1072 739 c 0x01000080
 1072 772.912 1096.92 800 1132 800 c 0x010001
 1165.55 800 1193 775.6 1193 739 c 0x01000080
 1193 703 1165.6 679 1132 679 c 0x010001
1025 891 m 0x014002
 989.523 891 965 917.001 965 951 c 0
 965 984.912 989.922 1012 1025 1012 c 0
 1060 1012 1086 984.456 1086 951 c 0
 1086 915.929 1058.91 891 1025 891 c 0x014002
837 1034 m 0x011008
 801.523 1034 777 1060 777 1094 c 0
 777 1127.6 801 1155 837 1155 c 0
 873.6 1155 898 1127.55 898 1094 c 0
 898 1058.93 870.911 1034 837 1034 c 0x011008
97 679 m 0
 61.5234 679 37 705.001 37 739 c 0
 37 772.912 61.9221 800 97 800 c 0
 131.999 800 158 772.456 158 739 c 0x0102
 158 703.929 130.911 679 97 679 c 0
EndSplineSet
EndChar
StartChar: uni0E10.descless
Encoding: 240 63232 241
Width: 1130
Flags: W
HStem: -10 160<533 741> 290 113<211.3 338.112> 571 126<222 353.3> 913.455 151.485<786.127 986.995> 998.167 150.833<464.646 815.477>
VStem: 102 101<431.5 560.2> 357 160<167.3 317> 367 150<416 559> 757 160<194 649.445>
Fore
324 872 m 1xee80
 693.862 796.8 917 737.095 917 574 c 2
 917 279 l 2
 916 86 823 -10 637 -10 c 0
 450 -10 357 88 357 283 c 2
 357 317 l 1xee80
 346 303 325 290 293 290 c 0
 174 290 102 353 102 481 c 0
 102 620 172 697 305 697 c 0
 442 697 517 601 517 428 c 2xed80
 517 283 l 2
 517 194 557 150 637 150 c 0
 717 151 757 194 757 279 c 2
 757 529 l 2
 757 621.65 611.512 685.039 80 762 c 1
 163 1020 320 1149 549 1149 c 0xee80
 763.969 1146.53 826.4 1064.94 960.645 1064.94 c 0
 980.914 1064.94 999.699 1067.28 1017 1072 c 1
 978 917 l 1
 963.637 914.645 948.942 913.455 933.901 913.455 c 0xf680
 794.315 913.455 754.326 998.167 550.489 998.167 c 0
 486.316 998.167 379.163 986.57 324 872 c 1xee80
275 403 m 0
 335 403 367 434 367 494 c 0xe580
 367 544 338 571 287 571 c 0
 237 571 203 544 203 490 c 0
 203 445 226 403 275 403 c 0
EndSplineSet
EndChar
StartChar: uni0E48.low
Encoding: 250 63242 251
Width: 0
Flags: W
VStem: -310 142<1306 1586>
AnchorPoint: "AboveBase" -180 1227 mark 0
Fore
-310 1586 m 1
 -168 1586 l 1
 -168 1306 l 1
 -310 1306 l 1
 -310 1586 l 1
EndSplineSet
EndChar
StartChar: uni0E49.low
Encoding: 251 63243 252
Width: 0
Flags: W
HStem: 1428 71<-712.1 -636.577> 1628 82<-705.6 -621.1>
VStem: -821 90<1519.8 1612.1> -602 111<1519.8 1606.9>
AnchorPoint: "AboveBase" -240 1227 mark 0
Fore
-664 1499 m 0
 -631 1499 -602 1530 -602 1564 c 0
 -602 1597 -631 1628 -664 1628 c 0
 -696 1628 -731 1601 -731 1564 c 0
 -731 1530 -701 1499 -664 1499 c 0
-539 1388 m 1
 -308.875 1474.05 -237.064 1635.81 -217 1696 c 1
 -75 1696 l 1
 -129.885 1471.47 -345.56 1289.81 -673 1246 c 8
 -696 1243 -733 1243 -733 1243 c 1
 -733 1323 l 1
 -657.26 1341.93 -636.657 1407.54 -629 1442 c 1
 -646 1433 -666 1428 -688 1428 c 0
 -746.192 1428 -821 1456.4 -821 1570 c 0
 -821 1646.26 -751.423 1710 -681 1710 c 0
 -518.875 1710 -491 1601.15 -491 1549 c 0
 -491 1485 -510 1428 -539 1388 c 1
EndSplineSet
EndChar
StartChar: uni0E4A.low
Encoding: 252 63244 253
Width: 0
Flags: HMW
HStem: 1242 88<-624 -562.879> 1477 134<-455 -455> 1594 134<-594 -594 -313 -313>
VStem: -820 127<1393.2 1545.1> -545 72<1339.2 1382> -221 122<1402.39 1523.2>
AnchorPoint: "AboveBase" 0 1227 mark 0
Fore
-545 1373 m 0
 -545 1395 -565 1411 -589 1411 c 0
 -612 1411 -626 1395 -626 1368 c 0
 -626 1346 -609 1330 -588 1330 c 0
 -560 1330 -545 1347 -545 1373 c 0
-313 1728 m 1
 -205.456 1692.15 -99 1574.31 -99 1451 c 0
 -99 1438 -100 1426 -102 1413 c 1
 43 1743 l 1
 177 1743 l 1
 48 1406 l 2
 -9.61624 1257.59 -207.58 1248.73 -273 1246 c 1
 -238 1299 -221 1355 -221 1414 c 0
 -221 1498 -258 1562 -313 1594 c 1
 -455 1477 l 1
 -496 1512 -553 1567 -594 1594 c 1
 -651 1571 -691 1522 -693 1445 c 0
 -693 1424 -689 1406 -681 1391 c 1
 -689.588 1455.41 -640.155 1489 -583 1489 c 0
 -516 1489 -473 1432 -473 1382 c 0
 -473 1320 -496 1277 -539 1260 c 0
 -565 1250 -593 1242 -624 1242 c 0
 -730.203 1242 -820 1313.29 -820 1461 c 0
 -820 1621.2 -656.014 1707.94 -594 1728 c 1
 -455 1611 l 1
 -313 1728 l 1
EndSplineSet
EndChar
StartChar: uni0E4B.low
Encoding: 253 63245 254
Width: 0
Flags: W
HStem: 1370 142<-468 -326 -184 -42>
VStem: -326 142<1228 1370 1512 1654>
AnchorPoint: "AboveBase" -60 1227 mark 0
Fore
-42 1370 m 1
 -184 1370 l 1
 -184 1228 l 1
 -326 1228 l 1
 -326 1370 l 1
 -468 1370 l 1
 -468 1512 l 1
 -326 1512 l 1
 -326 1654 l 1
 -184 1654 l 1
 -184 1512 l 1
 -42 1512 l 1
 -42 1370 l 1
EndSplineSet
EndChar
StartChar: uni0E4C.low
Encoding: 254 63246 255
Width: 0
Flags: W
HStem: 1248 84<-577.7 -447.7>
VStem: -714 113<1356.6 1490.5> -411 105<1373.98 1474.96>
AnchorPoint: "AboveBase" -300 1227 mark 0
Fore
-486 1248 m 0
 -575.622 1248 -714 1287.02 -714 1450 c 0
 -714 1502 -687 1564 -650 1596 c 0
 -579.905 1655.79 -413.121 1675.15 -376 1690 c 0
 -320 1710 -253 1747 -224 1796 c 1
 -69 1796 l 1
 -91.2892 1734.38 -205.895 1610.12 -418 1569 c 1
 -321.345 1548.44 -306 1454 -306 1416 c 0
 -306 1390 -328 1330 -352 1302 c 0
 -372 1278 -420 1248 -486 1248 c 0
-506 1512 m 0
 -559 1512 -601 1474 -601 1419 c 0
 -601 1371 -560 1332 -501 1332 c 0
 -460 1332 -411 1367 -411 1422 c 0
 -411 1474 -444 1512 -506 1512 c 0
EndSplineSet
EndChar
StartChar: uni0E0D.descless
Encoding: 255 63247 256
Width: 1745
Flags: W
HStem: -11 116<314.5 451> 0 176<1053 1463> 273 124<342.637 446.1> 989 160<406.2 840.4>
VStem: 159 142<133.5 258> 159 160<369 535.6> 465 107<125.8 257.1> 893 160<176 936.5> 1463 160<176 1139>
Fore
893 657 m 2x7780
 893 872 784 989 596 989 c 0
 450 989 341 934 268 825 c 1
 347 808 410 754 457 663 c 1
 365 592 319 505 319 403 c 2
 319 369 l 1x7780
 335 387 360 396 395 397 c 0
 521 396 572 320 572 196 c 0
 572 60 489 -10 362 -11 c 0
 227 -4 159 86 159 258 c 2xbb80
 159 403 l 2
 159 508 202 598 288 671 c 1
 261 730 195 770 90 792 c 1
 195 1030 364 1149 596 1149 c 0
 896 1149 1052 986 1053 673 c 2
 1053 176 l 1
 1463 176 l 1
 1463 1139 l 1
 1623 1139 l 1
 1623 0 l 1
 893 0 l 1
 893 657 l 2x7780
373 105 m 0xbb80
 433 105 465 142 465 196 c 0
 465 243 432 273 385 273 c 0
 335 273 301 242 301 192 c 0
 301 147 328 105 373 105 c 0xbb80
EndSplineSet
EndChar
StartChar: uniF71B
Encoding: 267 63259 268
Width: 1000
Flags: W
HStem: 1065 20G<215 830>
VStem: 215 615<61 1085>
Fore
830 1085 m 1
 830 61 l 1
 215 61 l 1
 215 1085 l 1
 830 1085 l 1
EndSplineSet
EndChar
StartChar: uniF71C
Encoding: 268 63260 269
Width: 700
Flags: W
Fore
107 -423 m 1
 244 -154 l 1
 486 -154 l 1
 245 -423 l 1
 107 -423 l 1
EndSplineSet
EndChar
StartChar: uniF71D
Encoding: 269 63261 270
Width: 800
Flags: W
HStem: -127 102<182 532>
VStem: 182 84<-236 -127> 532 84<-236 -25>
Fore
616 -236 m 1
 532 -236 l 1
 532 -127 l 1
 266 -127 l 1
 266 -236 l 1
 182 -236 l 1
 182 -25 l 1
 616 -25 l 1
 616 -236 l 1
EndSplineSet
EndChar
StartChar: afii61664
Encoding: 210 8204 271
Width: 0
Flags: W
VStem: -36 72<-275 1289>
Fore
36 1289 m 1
 36 -275 l 1
 -36 -275 l 1
 -36 1289 l 1
 36 1289 l 1
EndSplineSet
EndChar
